<?xml version="1.0" standalone="no"?>
<!DOCTYPE svg PUBLIC "-//W3C//DTD SVG 1.1//EN" "http://www.w3.org/Graphics/SVG/1.1/DTD/svg11.dtd" >
<svg xmlns="http://www.w3.org/2000/svg" xmlns:xlink="http://www.w3.org/1999/xlink" version="1.1">
<metadata>
Created by FontForge 20170731 at Tue Jan 14 08:23:49 2020
 By Aleksey,,,
Copyright (c) 2011 by Olexa M. Volochay | Cyreal.org. All rights reserved.
</metadata>
<defs>
<font id="Federov2-Regular" horiz-adv-x="1030" >
  <font-face 
    font-family="Federov2"
    font-weight="400"
    font-stretch="normal"
    units-per-em="2048"
    panose-1="2 0 0 0 0 0 0 0 0 0"
    ascent="1638"
    descent="-410"
    x-height="942"
    cap-height="1487"
    bbox="-27 -592 2446 1927"
    underline-thickness="102"
    underline-position="-307"
    unicode-range="U+0020-FEFF"
  />
<missing-glyph horiz-adv-x="1184" 
d="M167 1024h848v-1024h-848v1024zM294 127h594v770h-594v-770z" />
    <glyph glyph-name=".notdef" horiz-adv-x="1184" 
d="M167 1024h848v-1024h-848v1024zM294 127h594v770h-594v-770z" />
    <glyph glyph-name=".null" horiz-adv-x="532" 
 />
    <glyph glyph-name="glyph2" horiz-adv-x="0" 
 />
    <glyph glyph-name="space" unicode=" " horiz-adv-x="480" 
 />
    <glyph glyph-name="exclam" unicode="!" horiz-adv-x="376" 
d="M289 0h-203v160h203v-160zM56 1487h263l-80 -1213h-101z" />
    <glyph glyph-name="quotedbl" unicode="&#x22;" horiz-adv-x="881" 
d="M361 1163h-203v324h203v-324zM720 1163h-203v324h203v-324z" />
    <glyph glyph-name="numbersign" unicode="#" horiz-adv-x="1139" 
d="M31 430h240l106 473h-225v121h253l72 319h123l-72 -319h252l72 319h123l-72 -319h201v-121h-229l-106 -473h214v-121h-242l-69 -309h-123l69 309h-252l-69 -309h-123l69 309h-212v121zM394 430h252l106 473h-252z" />
    <glyph glyph-name="dollar" unicode="$" horiz-adv-x="959" 
d="M412 1524h119v-152q48 -3 86.5 -10t75.5 -17t74.5 -22.5t82.5 -26.5l-4 -104q-38 13 -77 25t-81.5 21t-90.5 14t-103 5q-25 0 -58 -8t-63 -26.5t-51 -49.5t-21 -77q0 -17 3.5 -37t16 -43.5t36 -51t63.5 -59.5l203 -166q62 -48 116 -100t93.5 -105.5t62.5 -107t23 -104.5
q0 -84 -33 -147.5t-87.5 -108t-124 -69t-142.5 -30.5v-131h-119v131q-109 8 -197 36.5t-170 76.5l13 108q39 -18 80 -36.5t83.5 -33t86.5 -23.5t88 -9q147 0 222 60.5t75 175.5q-1 71 -48 136t-133 130l-225 170q-75 62 -117 113.5t-62.5 93.5t-25 74.5t-4.5 56.5
q0 74 28 124.5t74.5 83t106.5 48.5t125 20v152z" />
    <glyph glyph-name="percent" unicode="%" horiz-adv-x="1731" 
d="M1111 1384h131l-641 -1415h-131zM1320 717q71 0 134 -28t110 -77t74.5 -115t27.5 -141q0 -76 -27.5 -142t-74.5 -115t-109.5 -77t-132.5 -28q-72 0 -135 28t-110.5 77t-75 115t-27.5 142q0 75 28 141t75.5 115t110 77t132.5 28zM1320 72q46 0 78.5 21t52.5 58.5
t29.5 88.5t9.5 112q0 62 -9 114.5t-29 90.5t-52.5 59t-79.5 21t-79.5 -21t-52.5 -59t-29 -90.5t-9 -114.5q0 -61 9.5 -112t29.5 -88.5t52.5 -58.5t78.5 -21zM415 1362q71 0 134 -28t110 -77t74.5 -115t27.5 -141q0 -76 -27.5 -142t-74.5 -115t-109.5 -77t-132.5 -28
q-72 0 -135 28t-110.5 77t-75 115t-27.5 142q0 75 28 141t75 115t110 77t133 28zM415 717q46 0 78.5 21t52.5 58.5t29.5 89t9.5 111.5q0 62 -9 114.5t-29 90.5t-52.5 59t-79.5 21t-79.5 -21t-52.5 -59t-29 -90.5t-9 -114.5q0 -60 9.5 -111.5t29.5 -89t52.5 -58.5t78.5 -21z
" />
    <glyph glyph-name="ampersand" unicode="&#x26;" horiz-adv-x="1313" 
d="M812 1255h-334q-40 0 -66 -16t-26 -59q0 -27 18 -56t39 -53l97 -123zM1050 1356l-437 -502l316 -403l180 215v-174l-111 -134l265 -358h-244l-139 197l-31 -35q-28 -32 -64.5 -66t-82.5 -62t-101.5 -46.5t-120.5 -18.5q-83 0 -149 25t-112.5 68.5t-71.5 103t-25 127.5
q0 52 11 100.5t38.5 101t73 113t114.5 137.5l52 58l-177 241q-11 15 -23 33t-22 39.5t-16 47t-6 57.5q0 60 42.5 97.5t123.5 37.5h717zM484 713l-32 -37q-14 -15 -39.5 -43.5t-50.5 -67t-43.5 -86t-18.5 -100.5q1 -55 18 -100.5t47.5 -78.5t74 -51t98.5 -18q46 0 83.5 12
t67 30t51 38.5t35.5 36.5l33 37z" />
    <glyph glyph-name="quotesingle" unicode="'" horiz-adv-x="527" 
d="M361 1163h-203v324h203v-324z" />
    <glyph glyph-name="parenleft" unicode="(" horiz-adv-x="511" 
d="M33 643q0 59 10.5 154.5t43 213t93.5 249.5t163 264h106q-61 -105 -102.5 -219.5t-67.5 -229t-37.5 -225t-11.5 -207.5q0 -96 11.5 -206.5t37.5 -225.5t67.5 -229.5t102.5 -219.5h-106q-102 132 -163 264t-93.5 249.5t-43 213t-10.5 154.5z" />
    <glyph glyph-name="parenright" unicode=")" horiz-adv-x="509" 
d="M477 643q0 -59 -10.5 -154.5t-43 -213t-93.5 -249.5t-162 -264h-107q61 105 103 219.5t68 229t37.5 225t11.5 207.5t-11.5 207.5t-37.5 225t-68 229t-103 219.5h107q101 -132 162 -264t93.5 -249.5t43 -213t10.5 -154.5z" />
    <glyph glyph-name="asterisk" unicode="*" horiz-adv-x="815" 
d="M721 1307l55 -170l-319 -43l235 -220l-145 -106l-139 291l-138 -293l-145 106l234 222l-320 41l55 170l283 -154l-61 317h180l-60 -317z" />
    <glyph glyph-name="plus" unicode="+" horiz-adv-x="1039" 
d="M450 504h-449v139h449v449h139v-449h449v-139h-449v-449h-139v449z" />
    <glyph glyph-name="comma" unicode="," horiz-adv-x="482" 
d="M160 160h203v-160q0 -41 -15 -73t-41 -54t-61 -33.5t-75 -11.5h-99v90q29 0 46.5 1.5t26.5 9.5t12 24.5t3 46.5v160z" />
    <glyph glyph-name="hyphen" unicode="-" horiz-adv-x="925" 
d="M158 504v139h606v-139h-606z" />
    <glyph glyph-name="period" unicode="." horiz-adv-x="527" 
d="M361 0h-203v160h203v-160z" />
    <glyph glyph-name="slash" unicode="/" horiz-adv-x="1005" 
d="M854 1486h151l-853 -1806h-152z" />
    <glyph glyph-name="zero" unicode="0" horiz-adv-x="1221" 
d="M611 1378q93 0 167.5 -30.5t131 -83t97 -122t66.5 -147.5t38 -160t12 -159t-12 -159t-38 -160.5t-66.5 -148.5t-97 -122.5t-131 -83.5t-167.5 -31t-167 31t-131 83.5t-97.5 122.5t-66.5 148.5t-38 160.5t-12 159t12 159t38 160t66.5 147.5t97.5 122t131 83t167 30.5z
M611 63q70 0 118.5 30t81.5 79.5t51.5 113t27.5 131.5t11.5 135t2.5 122q0 56 -2.5 123.5t-11.5 135.5t-27.5 131.5t-51.5 113t-81.5 79t-118.5 29.5t-118.5 -29.5t-81 -79t-51 -113t-27.5 -131.5t-11.5 -135.5t-2.5 -123.5q0 -55 2.5 -122t11.5 -135t27.5 -131.5t51 -113
t81 -79.5t118.5 -30z" />
    <glyph glyph-name="one" unicode="1" horiz-adv-x="533" 
d="M371 0h-219v1212l-137 -24v94l290 74h66v-1356z" />
    <glyph glyph-name="two" unicode="2" horiz-adv-x="962" 
d="M640 981q0 64 -14.5 117.5t-44.5 92t-76 60t-109 21.5q-32 0 -63 -1t-65.5 -6.5t-74 -15.5t-88.5 -28v100q53 19 97 30.5t80 17.5t64 7.5t50 1.5q238 0 361.5 -100t123.5 -297q0 -68 -27 -136.5t-73 -137.5t-106 -139t-126 -141.5t-134 -145t-128 -150.5h604v-131h-831
l313 399q81 102 132.5 189.5t81.5 161t41.5 131.5t11.5 100z" />
    <glyph glyph-name="three" unicode="3" horiz-adv-x="907" 
d="M33 1255v101h600q60 0 96 -13t55 -32t25 -40.5t6 -39.5q0 -48 -22.5 -89t-61.5 -81l-260 -264q89 0 156 -22t112 -60.5t67.5 -92t22.5 -116.5q0 -93 -34 -166t-92.5 -129t-136.5 -96t-166.5 -67.5t-182.5 -43.5t-184 -24v100q52 2 118.5 12.5t151.5 42.5q76 29 130 65.5
t88 80.5t49.5 95t15.5 108q0 43 -12 79.5t-40 63.5t-74.5 42t-115.5 15h-176v57l336 336q25 25 47 56t22 61q0 35 -23 47t-79 12z" />
    <glyph glyph-name="four" unicode="4" horiz-adv-x="1089" 
d="M883 342h121v-100h-121v-242h-219v242h-664v88l738 1026h145v-1014zM664 342v735l-529 -735h529z" />
    <glyph glyph-name="five" unicode="5" horiz-adv-x="990" 
d="M823 1184h-443l-115 -271q15 8 39 13t50.5 8t52 4.5t43.5 1.5q118 0 205 -33t144 -88.5t84.5 -128t27.5 -151.5q0 -152 -55.5 -259.5t-149.5 -176t-218.5 -100.5t-262.5 -32q-45 0 -93 4t-96 17v96q18 -5 42 -8.5t48 -6t45 -4t33 -1.5q121 0 213.5 35.5t154 94.5
t93 136.5t31.5 161.5q0 87 -23.5 151.5t-65.5 107t-100.5 64t-128.5 21.5q-57 0 -100.5 -8t-78 -20t-63.5 -27.5t-57 -30.5l270 602h537z" />
    <glyph glyph-name="six" unicode="6" horiz-adv-x="1076" 
d="M543 61q62 0 109.5 32t79.5 81t48.5 106t16.5 107q0 105 -25 173.5t-63 109t-83 57t-85 16.5t-76 -9t-67 -24t-57.5 -35t-47.5 -42v-150q0 -212 58 -317t192 -105zM232 1026q43 58 105.5 115.5t140.5 106t168 83t188 45.5v-86q-87 -20 -153 -48.5t-116.5 -64t-88 -76
t-66.5 -85.5q-37 -56 -64 -122t-41 -159q37 31 76 51.5t77 33t74 17.5t68 5q111 0 190 -38.5t128.5 -98.5t72.5 -134t23 -145q0 -59 -12.5 -108t-32 -89.5t-44.5 -72t-50 -54.5q-26 -27 -59.5 -51t-74.5 -42t-89 -28t-103 -10q-130 0 -219.5 43t-146 117t-82.5 173t-29 212
q0 67 10.5 135.5t30.5 134.5t50 127t69 113z" />
    <glyph glyph-name="seven" unicode="7" horiz-adv-x="942" 
d="M936 1356l-604 -1356h-123l510 1157h-661l94 199h784z" />
    <glyph glyph-name="eight" unicode="8" horiz-adv-x="1094" 
d="M365 735q-44 25 -83.5 57t-69.5 72.5t-48 90.5t-18 110q0 64 32 120.5t89.5 99.5t136.5 68t174 25q73 0 137 -20.5t111.5 -59.5t75 -95t27.5 -126q0 -46 -17 -86t-47.5 -76.5t-72.5 -71t-93 -69.5l84 -55q53 -35 95 -70.5t70.5 -77t43.5 -91t15 -111.5q0 -92 -39 -166
t-106 -125.5t-155.5 -79t-187.5 -27.5q-86 0 -163 24.5t-135 73t-92 119.5t-34 164q0 60 22.5 113.5t60 101t86 89.5t101.5 79zM456 688q-39 -27 -83.5 -60.5t-82 -75t-62 -92.5t-24.5 -112q0 -68 25 -121t67.5 -90t99 -56.5t119.5 -19.5q54 0 106 15.5t93 48t66.5 83.5
t25.5 122q0 86 -56 153t-159 127zM609 821q29 16 66 40t69.5 56t55 72t22.5 88q0 42 -16.5 79.5t-48 66.5t-76.5 46t-103 17q-41 0 -82.5 -9t-74.5 -32t-53.5 -62t-20.5 -98q0 -53 28.5 -93.5t69.5 -72t86 -55.5t78 -43z" />
    <glyph glyph-name="nine" unicode="9" horiz-adv-x="1075" 
d="M534 1286q-62 0 -109.5 -32t-79.5 -80.5t-48.5 -105.5t-16.5 -107q0 -105 25 -173.5t63 -109.5t83 -57.5t85 -16.5q81 0 143.5 33t104.5 78v149q0 212 -58.5 317t-191.5 105zM845 322q-43 -58 -106 -115.5t-140.5 -106t-168 -83t-187.5 -46.5v86q87 20 153 48.5t116 64
t87.5 76.5t67.5 86q37 56 63.5 121.5t40.5 158.5q-37 -31 -76 -51.5t-77 -32.5t-74.5 -17t-67.5 -5q-74 0 -133.5 17.5t-105.5 48t-79 71t-54 86.5t-31 95.5t-10 97.5q0 58 12 107t32 89.5t44.5 72t50.5 54.5q53 57 133.5 94t192.5 37q130 0 219.5 -42.5t145.5 -116.5
t82.5 -173.5t29.5 -212.5q0 -67 -10.5 -135t-30.5 -134t-50 -127t-69 -113z" />
    <glyph glyph-name="colon" unicode=":" horiz-adv-x="368" 
d="M361 0h-203v160h203v-160zM361 782h-203v160h203v-160z" />
    <glyph glyph-name="semicolon" unicode=";" horiz-adv-x="427" 
d="M319 782h-203v160h203v-160zM116 160h203v-160q0 -41 -15 -73t-41 -54t-61 -33.5t-75 -11.5h-99v90q29 0 46.5 1.5t26.5 9.5t12 24.5t3 46.5v160z" />
    <glyph glyph-name="less" unicode="&#x3c;" horiz-adv-x="972" 
d="M0 616l813 420v-135l-645 -336l645 -338v-135l-813 420v104z" />
    <glyph glyph-name="equal" unicode="=" horiz-adv-x="1234" 
d="M158 672v139h1037v-139h-1037zM158 331v139h1037v-139h-1037z" />
    <glyph glyph-name="greater" unicode="&#x3e;" horiz-adv-x="970" 
d="M970 512l-813 -420v135l645 338l-645 336v135l813 -420v-104z" />
    <glyph glyph-name="question" unicode="?" horiz-adv-x="779" 
d="M69 489q-1 51 24.5 109t75.5 119l240 293q35 43 60 78t40.5 65.5t23 59.5t7.5 61q0 30 -11.5 55t-37 42.5t-67 27.5t-101.5 10q-31 0 -62 -1t-65.5 -6.5t-74.5 -15.5t-89 -28l-4 100q106 34 182 46t127 12q101 0 181.5 -13t136 -43.5t85 -80.5t29.5 -124q0 -34 -13 -74
t-37 -83t-58 -88.5t-76 -89.5l-215 -267q-35 -45 -60.5 -84.5t-25.5 -74.5q0 -26 5 -42.5t23 -27t51.5 -14.5t90.5 -4v-91h-181q-93 0 -148.5 45t-55.5 129zM392 0h-203v160h203v-160z" />
    <glyph glyph-name="at" unicode="@" horiz-adv-x="1570" 
d="M1265 195v503q-42 20 -92 31.5t-107 11.5q-50 0 -90.5 -20t-69.5 -55t-45 -83t-16 -104q0 -21 1.5 -50t9.5 -61t25.5 -62.5t49.5 -55.5t81 -40t120 -15h133zM863 1186q-131 0 -237 -53t-181 -145t-116 -215.5t-41 -264.5t40.5 -265t116 -216.5t184.5 -146.5t247 -54
q54 0 103 4.5t96 14.5t93 26t95 39v-86q-94 -51 -189 -72.5t-198 -21.5q-179 0 -324.5 61t-248.5 166.5t-158.5 247.5t-55.5 303q0 106 27.5 205t78 185t121.5 156.5t156.5 121t184 78.5t204.5 28q120 0 229 -29t192 -87t133 -145t52 -204v-711h-327q-134 0 -229 28.5
t-155 77.5t-88 115.5t-28 141.5q0 84 26.5 151.5t76.5 115t122 73t164 25.5q66 0 125.5 -13t110.5 -39v39q-1 65 -19 118t-49 93.5t-71 69.5t-84.5 47.5t-90.5 27.5t-88 9z" />
    <glyph glyph-name="A" unicode="A" horiz-adv-x="1400" 
d="M1367 0h-231l-82 193h-813l-80 -193h-121l545 1296l-80 191h234zM282 291h731l-369 864z" />
    <glyph glyph-name="B" unicode="B" horiz-adv-x="1289" 
d="M158 0v1487h465q120 0 206.5 -22t142 -63t82 -99t26.5 -129q0 -47 -17 -92t-56 -82.5t-104 -65t-161 -39.5v-2q236 -34 348.5 -148.5t112.5 -300.5q0 -93 -30 -174t-97.5 -141t-176.5 -94.5t-268 -34.5h-473zM377 840v-742h197q93 0 165 24t120.5 70t74 112t25.5 149
q0 100 -36.5 173.5t-104 120.5t-163.5 70t-214 23h-64zM377 1389v-451h150q69 0 128 12.5t102.5 40t68.5 72.5t25 111q0 61 -22.5 102.5t-64.5 66.5t-102 35.5t-135 10.5h-150z" />
    <glyph glyph-name="C" unicode="C" horiz-adv-x="1585" 
d="M884 1518q174 0 322.5 -56.5t263.5 -156.5l-56 -74q-46 39 -102 73t-118 58.5t-129 39t-135 14.5q-146 0 -259 -53t-190 -145t-117 -215t-40 -264q0 -138 39.5 -260t116 -214t189.5 -145.5t259 -53.5q70 0 142 14t139 41t126.5 66t105.5 89l57 -73q-118 -112 -274 -175
t-340 -63q-111 0 -213 27.5t-190.5 78.5t-161 121.5t-124 156.5t-80 184.5t-28.5 205.5t28.5 207t80 186.5t124 157.5t161 121.5t190.5 78.5t213 28z" />
    <glyph glyph-name="D" unicode="D" horiz-adv-x="1532" 
d="M1216 741q0 136 -31 237t-84 173t-124 118.5t-150 73t-162.5 36.5t-162.5 10h-125v-1291h125q79 0 162.5 10t162.5 36.5t150 72.5t124 117.5t84 171.5t31 235zM1448 745q0 -156 -55.5 -291.5t-164.5 -236.5t-270.5 -159t-373.5 -58h-426v1487h426q212 0 373.5 -58
t270.5 -158.5t164.5 -236t55.5 -289.5z" />
    <glyph glyph-name="E" unicode="E" horiz-adv-x="1071" 
d="M1069 1487v-98h-691v-451h670v-98h-670v-742h691v-98h-910v1487h910z" />
    <glyph glyph-name="F" unicode="F" horiz-adv-x="1068" 
d="M1068 1487v-98h-690v-451h669v-98h-669v-840h-219v1487h909z" />
    <glyph glyph-name="G" unicode="G" horiz-adv-x="1616" 
d="M326 762q0 -151 49.5 -273.5t141.5 -209.5t224.5 -134t297.5 -47h219v865h219v-963h-528q-119 0 -229 21t-206 63t-174 105t-134 148t-86.5 191t-30.5 234q0 107 28.5 205t80 182t124 152t161 116.5t190.5 74.5t213 26q173 0 322 -57t264 -156l-56 -74q-46 39 -101.5 73
t-118 59t-129.5 39t-135 14q-141 -1 -253 -50.5t-190.5 -137t-120.5 -206.5t-42 -260z" />
    <glyph glyph-name="H" unicode="H" horiz-adv-x="1430" 
d="M1269 0h-219v840h-671v-840h-219v1487h219v-549h671v549h219v-1487z" />
    <glyph glyph-name="I" unicode="I" horiz-adv-x="549" 
d="M381 0h-220v1487h220v-1487z" />
    <glyph glyph-name="J" unicode="J" horiz-adv-x="717" 
d="M375 1389h-295v98h514v-1233q0 -149 -36 -258.5t-106 -187t-174 -126.5t-239 -77l-34 86q60 15 123.5 41t116.5 65.5t89 94.5t41 128v1369z" />
    <glyph glyph-name="K" unicode="K" horiz-adv-x="1310" 
d="M381 944l616 543h152l-555 -488l641 -999h-256l-545 856l-53 -47v-809h-219v1487h219v-543z" />
    <glyph glyph-name="L" unicode="L" horiz-adv-x="993" 
d="M381 98h612v-98h-831v1487h219v-1389z" />
    <glyph glyph-name="M" unicode="M" horiz-adv-x="1737" 
d="M890 889l465 536v62h219v-1487h-219v1272l-525 -606l-522 608v-1274h-102v1393l-80 94h256z" />
    <glyph glyph-name="N" unicode="N" horiz-adv-x="1494" 
d="M1330 0h-168l-824 1155v-1155h-102v1298l-133 189h268l856 -1202v1202h103v-1487z" />
    <glyph glyph-name="O" unicode="O" horiz-adv-x="1782" 
d="M893 -29q-110 0 -211.5 28t-190 78.5t-161 121.5t-124.5 157.5t-80.5 186t-28.5 207.5q0 106 28.5 205t80.5 185t124.5 157t161 121t190 78t211.5 28q109 0 210 -27.5t189 -78t160.5 -121.5t124 -157t80 -185t28.5 -205q0 -108 -28.5 -207.5t-80 -186t-124 -157.5
t-160.5 -121.5t-189 -78.5t-210 -28zM893 68q136 0 240.5 53t175.5 145t107.5 216.5t36.5 267.5q0 142 -36 266t-106.5 215t-175.5 143.5t-242 52.5q-139 0 -243.5 -52.5t-175 -143.5t-106 -215t-35.5 -266q0 -143 36 -267.5t106.5 -216.5t175.5 -145t242 -53z" />
    <glyph glyph-name="P" unicode="P" horiz-adv-x="1246" 
d="M383 391v-391h-219v1487h372q157 0 269 -26.5t188 -70.5t122 -101.5t70 -119t31.5 -123t7.5 -114.5q0 -52 -8.5 -112.5t-34 -120.5t-72 -115.5t-123 -98.5t-187 -68.5t-263.5 -25.5h-153zM383 1389v-900h123q111 0 201 25t153.5 80t97.5 140.5t34 207.5q0 93 -17.5 162.5
t-49.5 119t-76.5 81.5t-98 51t-114.5 26t-126 7h-127z" />
    <glyph glyph-name="Q" unicode="Q" horiz-adv-x="1998" 
d="M863 -29q-110 0 -211.5 28t-190 78.5t-161 121.5t-124.5 157.5t-80.5 186t-28.5 207.5q0 106 28.5 205t80.5 185t124.5 157t161 121t190 78t211.5 28q109 0 210 -27.5t189 -78t160.5 -121.5t124 -157t80 -185t28.5 -205q0 -107 -28 -205.5t-79 -184.5t-122 -157
t-158 -122v-2q55 -5 107.5 -22t105.5 -41t107 -52t113 -56q34 -16 63.5 -20.5t52.5 -4.5q26 0 47 5.5t52 19.5l30 -58q-21 -21 -46 -40.5t-57 -34.5t-72.5 -24t-92.5 -9q-57 0 -116.5 23t-120.5 56.5t-124.5 71t-129.5 66.5q-29 13 -70.5 19.5t-84.5 10.5q-42 -8 -83 -13
t-86 -5zM863 68q136 0 240.5 53t175.5 145t107.5 216.5t36.5 267.5q0 142 -36 266t-106.5 215t-175.5 143.5t-242 52.5q-139 0 -243.5 -52.5t-175 -143.5t-106 -215t-35.5 -266q0 -143 36 -267.5t106.5 -216.5t175.5 -145t242 -53z" />
    <glyph glyph-name="R" unicode="R" horiz-adv-x="1336" 
d="M655 1487q127 0 219.5 -22.5t157 -59.5t104 -85t61 -99t29 -101.5t7.5 -93.5q0 -55 -17.5 -123t-63 -132t-124.5 -115.5t-201 -73.5l430 -582h-268l-420 567h-162v-567h-219v1487h467zM407 1389v-723h125q107 0 193.5 19.5t148 63t94.5 113t33 168.5q0 112 -40 182.5
t-105.5 109.5t-149.5 53t-172 14h-127z" />
    <glyph glyph-name="S" unicode="S" 
d="M504 1518q66 0 115.5 -6t93 -16.5t86.5 -24.5t96 -31l-4 -105q-38 13 -77 25t-81.5 21t-90.5 14.5t-103 5.5q-25 0 -58 -8t-63 -27t-51 -50t-21 -77q0 -43 34 -100.5t114 -143.5l176 -190q58 -60 111.5 -118.5t93.5 -115t64 -112t24 -109.5q0 -105 -38.5 -178.5
t-100 -119t-139.5 -66.5t-156 -21q-68 0 -127 7.5t-112.5 22t-102.5 36t-97 49.5l13 108q39 -18 80 -36.5t83.5 -33t86.5 -23.5t88 -9q147 0 222 60.5t75 175.5q0 35 -15.5 71t-42.5 74.5t-63.5 79.5t-77.5 86l-178 194q-68 83 -114 142t-73.5 105t-39 84.5t-11.5 80.5
q0 81 33 134.5t87 85.5t122 45.5t139 13.5z" />
    <glyph glyph-name="T" unicode="T" horiz-adv-x="971" 
d="M956 1487v-98h-360v-1389h-219v1389h-363v98h942z" />
    <glyph glyph-name="U" unicode="U" horiz-adv-x="1455" 
d="M1071 1487h219v-1487h-219v117l-244 -82q-50 -17 -101 -29t-99 -20t-91 -11.5t-76 -3.5q-71 0 -121 15.5t-83 40t-52 54.5t-28.5 58t-12 51.5t-2.5 34.5v1262h220v-1176q0 -19 4 -53.5t23 -68t59 -58.5t112 -25q59 0 115 6t114.5 18t122.5 30.5t140 44.5v1282z" />
    <glyph glyph-name="V" unicode="V" horiz-adv-x="1419" 
d="M39 1487h230l489 -1213l510 1213h113l-568 -1352l56 -135h-236z" />
    <glyph glyph-name="W" unicode="W" horiz-adv-x="1919" 
d="M78 1487h219l372 -1151l233 557l-193 594h220l371 -1145l434 1145h113l-496 -1303l62 -184h-223l-239 737l-232 -555l59 -182h-221z" />
    <glyph glyph-name="X" unicode="X" horiz-adv-x="1465" 
d="M757 928l370 559h125l-432 -653l553 -834h-270l-428 653l-430 -653h-125l493 750l-481 737h258z" />
    <glyph glyph-name="Y" unicode="Y" horiz-adv-x="1163" 
d="M501 676l-473 811h256l371 -670l348 670h121l-412 -799v-688h-211v676z" />
    <glyph glyph-name="Z" unicode="Z" horiz-adv-x="1201" 
d="M1160 1487l-823 -1389h811v-98h-1114l821 1389h-727v98h1032z" />
    <glyph glyph-name="bracketleft" unicode="[" horiz-adv-x="690" 
d="M688 1536v-92h-318v-1557h318v-92h-521v1741h521z" />
    <glyph glyph-name="backslash" unicode="\" horiz-adv-x="1005" 
d="M1005 -320h-152l-853 1806h151z" />
    <glyph glyph-name="bracketright" unicode="]" horiz-adv-x="692" 
d="M522 1536v-1741h-520v92h317v1557h-317v92h520z" />
    <glyph glyph-name="asciicircum" unicode="^" horiz-adv-x="999" 
d="M499 1225l-292 -592h-160l370 747h164l371 -747h-160z" />
    <glyph glyph-name="underscore" unicode="_" horiz-adv-x="1213" 
d="M167 -248v139h877v-139h-877z" />
    <glyph glyph-name="grave" unicode="`" horiz-adv-x="425" 
d="M361 1024h-96l-262 293h233z" />
    <glyph glyph-name="a" unicode="a" horiz-adv-x="1064" 
d="M483 874q-48 0 -83.5 -3t-64.5 -8t-54 -11.5t-50 -13.5l-24 65q84 31 175.5 44.5t173.5 13.5q105 0 172.5 -11t105.5 -36.5t52.5 -68t14.5 -106.5v-739h-328q-134 0 -228.5 28t-154.5 75.5t-88 109t-28 129.5q0 84 26.5 148t76.5 107.5t122 66t164 22.5q50 0 113.5 -17
t121.5 -51v125q0 23 -5 46.5t-26 42t-64.5 30.5t-119.5 12zM698 82v463q-48 29 -100 43t-115 14q-50 0 -88.5 -18t-64.5 -51t-39.5 -79t-13.5 -102q0 -16 1.5 -42t10 -56t26 -60.5t49.5 -55.5t81 -40.5t120 -15.5h133z" />
    <glyph glyph-name="b" unicode="b" horiz-adv-x="1109" 
d="M369 892q57 35 121 52t115 17q127 0 219.5 -34.5t153 -95t89.5 -144t29 -181.5q0 -99 -26.5 -190.5t-94 -161.5t-183.5 -112t-294 -42h-331v1487h202v-595zM584 877q-64 0 -115.5 -15t-99.5 -44v-736h129q90 0 154 22t108 58.5t70.5 82t40.5 93t18.5 92t4.5 78.5
q0 73 -20.5 139.5t-60 117.5t-97 81.5t-132.5 30.5z" />
    <glyph glyph-name="c" unicode="c" horiz-adv-x="948" 
d="M831 784q-52 42 -105 63t-122 21q-75 0 -132.5 -29t-96.5 -78.5t-59.5 -114.5t-20.5 -138q0 -34 4.5 -78.5t18.5 -92t40.5 -93t70 -82t108 -58.5t153.5 -22h149v-82h-149q-119 0 -209.5 18.5t-157 51.5t-111 79.5t-71.5 103t-38 120.5t-11 133q0 91 32.5 173.5t97 145
t160 99.5t222.5 37q31 0 66 -7t70 -20.5t69.5 -34t64.5 -47.5z" />
    <glyph glyph-name="d" unicode="d" horiz-adv-x="1113" 
d="M612 0q-119 0 -209.5 19t-157 53.5t-111 81.5t-71.5 103.5t-38 119.5t-11 129q0 98 29.5 181.5t90 144t153 95t219.5 34.5q50 0 113.5 -17t121.5 -51v594h203v-1487h-332zM217 508q0 -34 4.5 -78.5t18.5 -92t40.5 -93t70 -82t108 -58.5t153.5 -22h129v737
q-48 29 -100 43.5t-115 14.5q-74 0 -131.5 -30.5t-97 -81.5t-60 -117.5t-20.5 -139.5z" />
    <glyph glyph-name="e" unicode="e" horiz-adv-x="987" 
d="M544 961q102 0 172.5 -37.5t115 -101.5t64 -147.5t19.5 -176.5v-47h-616q0 -56 18 -121t58.5 -120t105 -91.5t158.5 -36.5h208v-82h-211q-140 0 -241.5 32t-167 93t-96.5 149t-31 201q0 94 29.5 182t86 155.5t139 108t189.5 40.5zM534 870q-62 0 -106 -28t-72.5 -74.5
t-42 -108t-14.5 -127.5h423v43q-2 58 -10.5 111t-29.5 94t-56.5 65.5t-91.5 24.5z" />
    <glyph glyph-name="f" unicode="f" horiz-adv-x="534" 
d="M473 852h-125v-1217l-193 -55v1272h-129v90h129v373q3 42 18.5 74t41 54t59.5 33t74 11h170v-90q-57 0 -90.5 -2t-51.5 -11t-23 -26t-5 -47v-369h125v-90z" />
    <glyph glyph-name="g" unicode="g" horiz-adv-x="1155" 
d="M659 0q-119 0 -209.5 19t-157 53.5t-111 81.5t-71.5 103.5t-38 119.5t-11 129q0 98 29.5 181.5t90 144t153 95t219.5 34.5q50 0 113.5 -17t121.5 -51v49h203v-1141q0 -38 -19.5 -74t-62.5 -63.5t-110.5 -44t-163.5 -16.5q-67 0 -118 3t-95 9.5t-87 17t-94 25.5l27 80
q67 -22 134.5 -31.5t150.5 -9.5q123 0 179 42.5t56 119.5v141h-129zM264 508q0 -34 4.5 -78.5t18.5 -92t40.5 -93t70 -82t108 -58.5t153.5 -22h129v737q-48 29 -100 43.5t-115 14.5q-74 0 -131.5 -30.5t-97 -81.5t-60 -117.5t-20.5 -139.5z" />
    <glyph glyph-name="h" unicode="h" horiz-adv-x="984" 
d="M369 864q64 28 118 46.5t101 30t87.5 16t78.5 4.5q94 0 143.5 -49t49.5 -158v-754h-203v723q0 22 -4.5 45t-16 41t-32 29.5t-51.5 11.5q-51 0 -118.5 -12.5t-152.5 -51.5v-786h-202v1487h202v-623z" />
    <glyph glyph-name="i" unicode="i" horiz-adv-x="478" 
d="M337 0h-203v942h203v-942zM337 1100h-203v119h203v-119z" />
    <glyph glyph-name="j" unicode="j" horiz-adv-x="503" 
d="M373 -217q-3 -42 -18.5 -74.5t-41 -54t-59 -32.5t-73.5 -11h-181v90q57 0 90.5 2t51.5 11t23 26t5 47v1155h203v-1159zM373 1100h-203v119h203v-119z" />
    <glyph glyph-name="k" unicode="k" horiz-adv-x="1004" 
d="M370 1487v-873l365 328h137l-287 -258l418 -684h-211l-338 567l-84 -75v-492h-203v1487h203z" />
    <glyph glyph-name="l" unicode="l" horiz-adv-x="545" 
d="M167 1487h203v-1487h-203v1487z" />
    <glyph glyph-name="m" unicode="m" horiz-adv-x="1625" 
d="M370 864q122 53 207 75t143 22q42 0 72.5 -9t51.5 -23t34 -32.5t19 -36.5q128 57 217 79t151 22q48 0 84.5 -11.5t61 -38.5t37 -71t12.5 -109v-731h-203v723q0 28 -5.5 51t-18.5 40t-35 26.5t-56 9.5q-68 0 -122.5 -17.5t-104.5 -37.5v-795h-203v733q0 21 -4 41.5
t-15.5 37.5t-32 27.5t-52.5 10.5q-29 0 -61.5 -6.5t-64.5 -16.5t-61 -21t-51 -20v-786h-203v942h203v-78z" />
    <glyph glyph-name="n" unicode="n" horiz-adv-x="1112" 
d="M369 864q64 28 118 46.5t101 30t87.5 16t78.5 4.5q94 0 143.5 -49t49.5 -158v-754h-203v723q0 22 -4.5 45t-16.5 41t-32.5 29.5t-51.5 11.5q-51 0 -118 -12.5t-152 -51.5v-786h-203v942h203v-78z" />
    <glyph glyph-name="o" unicode="o" horiz-adv-x="1179" 
d="M587 961q103 0 193 -38.5t156.5 -105t104.5 -156t38 -190.5q0 -102 -38 -191.5t-104.5 -156t-156.5 -105t-193 -38.5q-101 0 -189.5 38.5t-154.5 105t-104.5 156t-38.5 191.5q0 101 38.5 190.5t104.5 156t154.5 105t189.5 38.5zM585 870q-78 0 -131.5 -30t-86.5 -84
t-47.5 -128t-14.5 -161q0 -86 15 -159t48 -126.5t86.5 -83.5t130.5 -30t131 30t88.5 83.5t50 126.5t15.5 159q0 87 -15.5 161t-50 128t-88.5 84t-131 30z" />
    <glyph glyph-name="p" unicode="p" horiz-adv-x="1169" 
d="M344 892q57 35 121 52t115 17q127 0 219.5 -34.5t153 -95t89.5 -144t29 -181.5q0 -99 -26.5 -190.5t-94 -161.5t-183.5 -112t-294 -42h-129v-362l-202 -58v1362h202v-50zM559 877q-64 0 -115.5 -15t-99.5 -44v-736h129q90 0 154 22t108 58.5t70.5 82t40.5 93t18.5 92
t4.5 78.5q0 73 -20.5 139.5t-60 117.5t-97 81.5t-132.5 30.5z" />
    <glyph glyph-name="q" unicode="q" horiz-adv-x="1117" 
d="M746 0h-129q-119 0 -209.5 19t-157 53.5t-111 81.5t-71.5 103.5t-38 119.5t-11 129q0 98 29.5 181.5t90 144t153 95t219.5 34.5q25 0 54 -4t60 -12.5t61.5 -21.5t59.5 -31v50h203v-1304l-203 -58v420zM222 508q0 -34 4.5 -78.5t18.5 -92t40.5 -93t70 -82t108 -58.5
t153.5 -22h129v737q-48 29 -100 43.5t-115 14.5q-75 0 -132.5 -30.5t-96.5 -81.5t-59.5 -117.5t-20.5 -139.5z" />
    <glyph glyph-name="r" unicode="r" horiz-adv-x="746" 
d="M369 868q40 28 70.5 46t54.5 28.5t44.5 14.5t40.5 4q78 0 116 -54t45 -153l-175 -52q-10 72 -27 102t-53 30q-21 0 -49.5 -9t-66.5 -30v-795h-203v942h203v-74z" />
    <glyph glyph-name="s" unicode="s" horiz-adv-x="813" 
d="M437 961q42 0 73 -3.5t58.5 -10.5t54.5 -16l60 -20l-2 -88q-47 17 -99.5 30t-123.5 13q-15 0 -36 -4t-40 -13.5t-32 -25.5t-13 -39q0 -26 23.5 -63t74.5 -92l107 -121q34 -39 67.5 -75.5t59.5 -71.5t42.5 -69.5t16.5 -68.5q0 -66 -30 -112t-78 -75.5t-108.5 -42.5
t-121.5 -13q-85 0 -150.5 18.5t-123.5 52.5l8 90q46 -24 100 -44.5t111 -20.5q94 0 141 33t47 96q0 44 -36.5 92t-90.5 106l-106 119q-42 53 -71.5 89t-47.5 64t-26.5 53t-8.5 56q0 51 23.5 85t64 54.5t95.5 29t118 8.5z" />
    <glyph glyph-name="t" unicode="t" horiz-adv-x="497" 
d="M478 852h-135v-852h-192v852h-130v90h130v307l192 58v-365h135v-90z" />
    <glyph glyph-name="u" unicode="u" horiz-adv-x="1111" 
d="M741 78q-65 -28 -119 -46.5t-100.5 -29.5t-87.5 -15.5t-78 -4.5q-94 0 -143.5 48.5t-49.5 157.5v754h203v-723q0 -23 4.5 -45.5t16 -40.5t31.5 -29.5t52 -11.5q51 0 118.5 12.5t152.5 51.5v786h202v-942h-202v78z" />
    <glyph glyph-name="v" unicode="v" horiz-adv-x="1008" 
d="M579 217l277 725h96l-320 -840l47 -102h-211l-434 942h213z" />
    <glyph glyph-name="w" unicode="w" horiz-adv-x="1342" 
d="M934 285l228 657h95l-279 -800l45 -142h-177l-164 519l-150 -396l36 -123h-193l-291 942h191l214 -681l150 399l-84 282h175z" />
    <glyph glyph-name="x" unicode="x" horiz-adv-x="1018" 
d="M585 557l347 -557h-216l-241 387l-244 -387h-107l298 472l-292 470h216l186 -299l189 299h106z" />
    <glyph glyph-name="y" unicode="y" horiz-adv-x="948" 
d="M474 1l-1 -1l-434 942h204l230 -502l85 -218l273 720h97l-496 -1304h-96z" />
    <glyph glyph-name="z" unicode="z" horiz-adv-x="918" 
d="M333 90h506v-90h-779l508 852h-424v90h695z" />
    <glyph glyph-name="braceleft" unicode="{" horiz-adv-x="526" 
d="M174 700v-8q32 -21 60.5 -46.5t50.5 -60t35.5 -82t15.5 -112.5v-391q0 -30 9 -46.5t26 -24.5t41 -9.5t53 -1.5v-90h-99q-40 0 -75 11.5t-61 33.5t-41 54t-15 73v393q0 59 -4 106t-16.5 80t-36 51.5t-62.5 20.5h-51v90h51q39 1 62.5 20t36 52.5t16.5 80.5t4 105v394
q0 40 15 72t41 54.5t61 34t75 11.5h99v-90q-29 0 -53 -1.5t-41 -9.5t-26 -24.5t-9 -46.5v-392q-2 -66 -15.5 -112.5t-35.5 -81t-51 -60t-60 -47.5z" />
    <glyph glyph-name="bar" unicode="|" horiz-adv-x="485" 
d="M167 1573h139v-1610h-139v1610z" />
    <glyph glyph-name="braceright" unicode="}" horiz-adv-x="528" 
d="M354 700q-31 21 -60 46.5t-51 60.5t-36 82t-15 112v392q0 30 -9 46.5t-26 24.5t-41 9.5t-53 1.5v90h98q40 0 75 -11.5t61.5 -34t41.5 -54.5t15 -72v-394q0 -58 4 -105t16 -80.5t35.5 -52.5t62.5 -20h52v-90h-52q-39 -2 -62.5 -20.5t-35.5 -51.5t-16 -80t-4 -106v-393
q0 -41 -15 -73t-41.5 -54t-61.5 -33.5t-75 -11.5h-98v90q29 0 53 1.5t41 9.5t26 24.5t9 46.5v391q1 65 14.5 112.5t36 82.5t51 60t60.5 46v8z" />
    <glyph glyph-name="asciitilde" unicode="~" horiz-adv-x="1130" 
d="M91 477q17 32 39.5 63.5t52 56.5t66.5 40.5t82 15.5q66 0 127.5 -17t124.5 -46q54 -29 106 -50.5t109 -21.5q54 0 92.5 24t73.5 81l73 -64q-23 -32 -47.5 -63.5t-53.5 -56.5t-63 -40.5t-75 -15.5q-66 0 -127.5 17.5t-124.5 48.5q-55 27 -106.5 48t-108.5 21
q-63 0 -102 -24.5t-64 -79.5z" />
    <glyph glyph-name="nonbreakingspace" unicode="&#xa0;" horiz-adv-x="480" 
 />
    <glyph glyph-name="exclamdown" unicode="&#xa1;" horiz-adv-x="382" 
d="M292 797h-203v159h203v-159zM141 682h100l82 -1212h-264z" />
    <glyph glyph-name="cent" unicode="&#xa2;" horiz-adv-x="821" 
d="M762 795q-54 40 -115.5 62t-136.5 22q-71 0 -124.5 -31.5t-89.5 -84.5t-54 -121.5t-18 -141.5q0 -27 5 -68t18.5 -86.5t37.5 -91.5t61.5 -83t90 -60t123.5 -23h208v-88h-200v-246h-119v252q-117 14 -198.5 56.5t-132.5 105.5t-74 143t-23 170q0 92 29 178.5t84.5 153.5
t134.5 107.5t180 40.5v262h119v-271q66 -11 124.5 -36.5t104.5 -71.5z" />
    <glyph glyph-name="sterling" unicode="&#xa3;" horiz-adv-x="1183" 
d="M104 938h106v317q0 76 29.5 126.5t85.5 80.5t136 42t182 12q34 0 76.5 -2.5t90 -9.5t99 -18t104.5 -28l-4 -100q-49 18 -94 31.5t-87.5 22.5t-84.5 13.5t-86 4.5q-122 0 -174.5 -40.5t-52.5 -115.5v-336h307v-90h-307v-758h751v-90h-1077v90h106v758h-106v90z" />
    <glyph glyph-name="currency" unicode="&#xa4;" horiz-adv-x="1318" 
d="M258 381q-51 63 -79 142t-28 167q0 91 28 169.5t79 141.5l-113 113l92 92l115 -114q66 51 143 78.5t164 27.5q88 0 166.5 -27.5t141.5 -78.5l114 114l92 -92l-114 -115q52 -63 80 -142t28 -167t-27.5 -167t-78.5 -142l112 -115l-92 -92l-114 115q-63 -51 -141.5 -79
t-166.5 -28q-87 0 -164 28t-143 79l-115 -115l-92 92zM287 690q0 -78 29 -146t79.5 -118.5t118 -79.5t145.5 -29t146 29t118.5 79.5t79.5 118.5t29 146t-29 146t-79.5 118.5t-118.5 79.5t-146 29t-145.5 -29t-118 -79.5t-79.5 -118.5t-29 -146z" />
    <glyph glyph-name="yen" unicode="&#xa5;" horiz-adv-x="1199" 
d="M519 469v76l-473 811h254l371 -670l348 670h121l-412 -799v-88h221v-90h-221v-139h221v-90h-221v-150h-209v150h-235v90h235v139h-235v90h235z" />
    <glyph glyph-name="brokenbar" unicode="&#xa6;" horiz-adv-x="428" 
d="M167 1573h139v-688h-139v688zM167 651h139v-688h-139v688z" />
    <glyph glyph-name="section" unicode="&#xa7;" horiz-adv-x="890" 
d="M499 244q30 27 59 55.5t52 59.5t37 64t14 69q0 67 -28.5 119t-70.5 95t-89 78.5t-84 69.5q-30 -28 -59.5 -57t-52.5 -59t-37.5 -62.5t-14.5 -67.5q0 -66 29 -119t71 -96.5t89.5 -79.5t84.5 -69zM563 -121q0 36 -21.5 69.5t-57.5 67t-81.5 67.5t-92.5 71t-92.5 78.5
t-81.5 90t-57.5 105t-21.5 123.5q0 59 23.5 108.5t61 94t84 86.5t91.5 86q-27 21 -53.5 45.5t-47.5 55t-34.5 67t-13.5 80.5q0 55 22 99.5t59 75.5t86 47.5t103 16.5q52 0 92 -1.5t75 -5t69 -11t73 -19.5l-4 -121q-18 6 -48.5 14t-67 15.5t-77 13t-77.5 5.5q-30 0 -56.5 -4
t-46.5 -13.5t-31.5 -25t-11.5 -39.5q0 -36 21.5 -69.5t57.5 -67t81.5 -67.5t92.5 -71t92.5 -78.5t81.5 -90t57.5 -105t21.5 -123.5q0 -59 -23.5 -108.5t-61 -94t-84 -86.5t-91.5 -86q27 -21 54 -46t48 -55t34.5 -66.5t13.5 -80.5q0 -56 -22 -100t-59 -75t-86 -47.5
t-104 -16.5q-51 0 -91 1.5t-75.5 5t-69.5 11t-73 19.5l4 120q18 -6 48 -14t67 -15.5t77.5 -12.5t78.5 -5q30 0 56 4t46 13.5t31.5 25t11.5 39.5z" />
    <glyph glyph-name="dieresis" unicode="&#xa8;" horiz-adv-x="859" 
d="M358 1085h-191v139h191v-139zM689 1085h-190v139h190v-139z" />
    <glyph glyph-name="copyright" unicode="&#xa9;" horiz-adv-x="1628" 
d="M99 698q0 99 25.5 190.5t72 171t112 144.5t145 111.5t170.5 72t190 25.5t190 -25.5t170.5 -72t145 -111.5t112 -144.5t72 -171t25.5 -190.5t-25.5 -190t-72 -170.5t-112 -144.5t-145 -111.5t-170.5 -72t-190 -25.5t-190 25.5t-170.5 72t-145 111.5t-112 144.5t-72 170.5
t-25.5 190zM1394 698q0 123 -44.5 231t-122.5 188t-184 126.5t-229 46.5t-228.5 -46.5t-183.5 -126.5t-122.5 -188t-44.5 -231t44.5 -230.5t122.5 -188t183.5 -127t228.5 -46.5t229 46.5t184 127t122.5 188t44.5 230.5zM818 246q-95 0 -178 36t-144.5 97.5t-97.5 144.5
t-36 176t36 175.5t97.5 144t144.5 97.5t178 36q108 0 199 -36.5t160 -102.5l-35 -45q-54 49 -125 67.5t-156 18.5q-77 0 -141.5 -26.5t-111 -73.5t-73 -112t-26.5 -143q0 -77 26.5 -142t73 -112t111 -73.5t141.5 -26.5q38 0 74.5 3t70.5 10.5t64.5 21t57.5 35.5l32 -45
q-66 -57 -154 -91t-188 -34z" />
    <glyph glyph-name="ordfeminine" unicode="&#xaa;" horiz-adv-x="860" 
d="M384 1395q-34 0 -59.5 -2.5t-46 -6t-38.5 -8t-36 -8.5l-19 64q60 19 123.5 27.5t114.5 8.5q76 0 128 -4t83.5 -13.5t45 -24.5t13.5 -37v-547h-246q-95 0 -162.5 18.5t-110.5 50t-63 74.5t-20 92q0 112 73.5 171t205.5 59q48 0 86 -9.5t71 -28.5v70q0 10 -4 20t-19 17.5
t-43.5 12t-76.5 4.5zM527 907v303q-12 7 -23.5 13t-27 10.5t-37.5 7t-55 2.5q-63 0 -96 -44t-33 -114q0 -20 3.5 -50t21.5 -58.5t55.5 -49t105.5 -20.5h86z" />
    <glyph glyph-name="guillemotleft" unicode="&#xab;" horiz-adv-x="931" 
d="M335 860h143l-283 -375l283 -374h-143l-283 374zM662 860h144l-283 -375l283 -374h-144l-282 374z" />
    <glyph glyph-name="logicalnot" unicode="&#xac;" horiz-adv-x="1209" 
d="M1040 314h-153v190h-884v139h1037v-329z" />
    <glyph glyph-name="uni00AD" unicode="&#xad;" horiz-adv-x="870" 
d="M167 481v154h533v-154h-533z" />
    <glyph glyph-name="registered" unicode="&#xae;" horiz-adv-x="1628" 
d="M99 698q0 99 25.5 190.5t72 171t112 144.5t145 111.5t170.5 72t190 25.5t190 -25.5t170.5 -72t145 -111.5t112 -144.5t72 -171t25.5 -190.5t-25.5 -190t-72 -170.5t-112 -144.5t-145 -111.5t-170.5 -72t-190 -25.5t-190 25.5t-170.5 72t-145 111.5t-112 144.5t-72 170.5
t-25.5 190zM1394 698q0 123 -44.5 231t-122.5 188t-184 126.5t-229 46.5t-228.5 -46.5t-183.5 -126.5t-122.5 -188t-44.5 -231t44.5 -230.5t122.5 -188t183.5 -127t228.5 -46.5t229 46.5t184 127t122.5 188t44.5 230.5zM794 1143q75 0 130 -13t93 -35t62 -50.5t37 -59
t17.5 -60.5t4.5 -55q0 -33 -10.5 -73t-38 -77.5t-74.5 -68.5t-119 -45l254 -342h-172l-248 336h-59v-336h-152v879h275zM671 1081v-422h88q40 0 80.5 11.5t72.5 37t52 66.5t20 100q0 66 -24 106.5t-59 63t-74 30t-68 7.5h-88z" />
    <glyph glyph-name="macron" unicode="&#xaf;" horiz-adv-x="941" 
d="M167 1280h604v-102h-604v102z" />
    <glyph glyph-name="degree" unicode="&#xb0;" horiz-adv-x="792" 
d="M207 1186q0 -39 15 -73.5t40.5 -60t60 -40.5t73.5 -15t73 15t59.5 40.5t40.5 60t15 73.5t-15 73t-40.5 59.5t-59.5 40.5t-73 15t-73.5 -15t-60 -40.5t-40.5 -59.5t-15 -73zM99 1186q0 61 23.5 115.5t63.5 94.5t94 63.5t116 23.5q61 0 115 -23.5t94.5 -63.5t64 -94.5
t23.5 -115.5q0 -62 -23.5 -116t-64 -94t-94.5 -63.5t-115 -23.5q-62 0 -116 23.5t-94 63.5t-63.5 94t-23.5 116z" />
    <glyph glyph-name="plusminus" unicode="&#xb1;" horiz-adv-x="1069" 
d="M465 649h-449v139h449v449h139v-449h449v-139h-449v-448h-139v448zM16 2v139h1037v-139h-1037z" />
    <glyph glyph-name="twosuperior" unicode="&#xb2;" horiz-adv-x="731" 
d="M450 1112q0 79 -32.5 126.5t-108.5 47.5q-20 0 -40.5 -1t-43.5 -4.5t-49 -10.5t-58 -19v82q70 25 116.5 31t74.5 6q79 0 141 -15t105 -46.5t65.5 -80.5t22.5 -116q0 -74 -35.5 -140.5t-89.5 -131.5t-118 -131.5t-122 -141.5h352v-92h-549l199 258q51 67 84 124t52 104.5
t26.5 85.5t7.5 65z" />
    <glyph glyph-name="threesuperior" unicode="&#xb3;" horiz-adv-x="650" 
d="M45 1284v72h392q40 0 64.5 -8.5t37.5 -21t17 -26.5t4 -26q0 -29 -14.5 -56.5t-40.5 -53.5l-169 -172q58 0 101.5 -14.5t73 -40t44 -60.5t14.5 -76q0 -60 -22 -107t-60 -83.5t-89 -62.5t-109.5 -44.5t-121 -29t-122.5 -15.5v70q32 2 77 8.5t100 27.5q96 36 137.5 93.5
t41.5 131.5q0 27 -8 49.5t-26 39t-47 25.5t-72 9h-120v42l219 219q17 17 31.5 37t14.5 39q0 20 -14.5 27t-47.5 7h-286z" />
    <glyph glyph-name="acute" unicode="&#xb4;" horiz-adv-x="423" 
d="M187 1317h233l-264 -293h-94z" />
    <glyph glyph-name="mu" unicode="&#xb5;" horiz-adv-x="973" 
d="M167 942h195v-565q0 -36 7 -85.5t29 -95.5t62.5 -78t106.5 -32q26 0 67.5 7t92.5 20v829h202v-942h-202v39q-30 -12 -61 -22.5t-60 -19t-55 -13t-45 -4.5q-86 0 -144 43v-385l-195 -58v1362z" />
    <glyph glyph-name="mu" unicode="&#x3bc;" horiz-adv-x="973" 
d="M167 942h195v-565q0 -36 7 -85.5t29 -95.5t62.5 -78t106.5 -32q26 0 67.5 7t92.5 20v829h202v-942h-202v39q-30 -12 -61 -22.5t-60 -19t-55 -13t-45 -4.5q-86 0 -144 43v-385l-195 -58v1362z" />
    <glyph glyph-name="paragraph" unicode="&#xb6;" horiz-adv-x="955" 
d="M371 700q-30 0 -67 13.5t-75 39.5t-73.5 62.5t-63 83.5t-44.5 102.5t-17 118.5q0 94 35.5 176.5t96.5 144t143 97t175 35.5h305v-1610h-139v1471h-137v-1471h-139v737z" />
    <glyph glyph-name="periodcentered" unicode="&#xb7;" horiz-adv-x="545" 
d="M370 459h-203v205h203v-205z" />
    <glyph glyph-name="cedilla" unicode="&#xb8;" horiz-adv-x="465" 
d="M238 60v-121q52 0 90 -14t63 -37.5t37.5 -53t12.5 -59.5q0 -49 -32.5 -85.5t-82 -61t-109 -36.5t-112.5 -12v53q33 4 67 13t61.5 25.5t44.5 42.5t17 64q0 20 -7 39.5t-24 34.5t-45 24.5t-70 9.5v174h89z" />
    <glyph glyph-name="onesuperior" unicode="&#xb9;" horiz-adv-x="473" 
d="M300 481h-182v788l-89 -16v61l188 48h83v-881z" />
    <glyph glyph-name="ordmasculine" unicode="&#xba;" horiz-adv-x="890" 
d="M445 1473q72 0 135 -25.5t110 -69t74 -101.5t27 -124q0 -67 -27.5 -125.5t-74.5 -102t-109.5 -69t-132.5 -25.5q-71 0 -134.5 25.5t-111 69t-75 102t-27.5 125.5q0 66 28 124t75.5 101.5t110 69t132.5 25.5zM445 909q46 0 78.5 18t52.5 50.5t29.5 76.5t9.5 95q0 52 -9 97
t-29 77.5t-52.5 51t-79.5 18.5t-79.5 -18.5t-52.5 -51t-29 -77.5t-9 -97q0 -51 9.5 -95t29.5 -76.5t52.5 -50.5t78.5 -18z" />
    <glyph glyph-name="guillemotright" unicode="&#xbb;" horiz-adv-x="931" 
d="M551 485l-283 -374h-143l283 374l-283 375h143zM879 485l-283 -374h-143l282 374l-282 375h143z" />
    <glyph glyph-name="onequarter" unicode="&#xbc;" horiz-adv-x="1505" 
d="M358 481h-182v788l-89 -16v61l188 48h83v-881zM1060 1439h118l-801 -1545h-118zM1350 224h86v-88h-86v-135h-182v135h-439v58l488 688h133v-658zM1168 224v449l-312 -449h312z" />
    <glyph glyph-name="onehalf" unicode="&#xbd;" horiz-adv-x="1597" 
d="M363 481h-182v788l-89 -16v61l188 48h83v-881zM1065 1439h118l-801 -1545h-118zM1348 638q0 79 -32.5 126.5t-108.5 47.5q-20 0 -40.5 -1t-43.5 -4.5t-49 -10.5t-58 -19v82q70 25 116.5 31t74.5 6q79 0 141 -15t105 -46.5t65.5 -80.5t22.5 -116q0 -74 -35.5 -140.5
t-89.5 -131.5t-118 -131.5t-122 -141.5h352v-92h-549l199 258q51 67 84 124t52 104.5t26.5 85.5t7.5 65z" />
    <glyph glyph-name="threequarters" unicode="&#xbe;" horiz-adv-x="1601" 
d="M1149 1439h118l-801 -1545h-118zM1439 224h86v-88h-86v-135h-182v135h-439v58l488 688h133v-658zM1257 224v449l-312 -449h312zM46 1284v72h392q40 0 64.5 -8.5t37.5 -21t17 -26.5t4 -26q0 -29 -14.5 -56.5t-40.5 -53.5l-169 -172q58 0 101.5 -14.5t73 -40t44 -60.5
t14.5 -76q0 -60 -22 -107t-60 -83.5t-89 -62.5t-109.5 -44.5t-121 -29t-122.5 -15.5v70q32 2 77 8.5t100 27.5q96 36 137.5 93.5t41.5 131.5q0 27 -8 49.5t-26 39t-47 25.5t-72 9h-120v42l219 219q17 17 31.5 37t14.5 39q0 20 -14.5 27t-47.5 7h-286z" />
    <glyph glyph-name="questiondown" unicode="&#xbf;" horiz-adv-x="782" 
d="M712 530q0 -49 -25 -108t-76 -119l-239 -293q-36 -44 -60.5 -79t-40.5 -65.5t-23 -59.5t-7 -60q0 -30 11 -55t36.5 -42.5t67 -27.5t102.5 -10q31 0 62 1.5t65.5 6.5t74 15t89.5 28l4 -100q-108 -34 -183.5 -46t-126.5 -12q-101 0 -181.5 13t-136 43.5t-85 80t-29.5 123.5
q0 34 13 74t37 83.5t58.5 89t76.5 89.5l215 267q35 45 60.5 84.5t25.5 74.5q0 25 -5.5 42t-23 27.5t-51 14.5t-90.5 4v91h180q94 0 149.5 -45t55.5 -130zM388 1020h203v-160h-203v160z" />
    <glyph glyph-name="Agrave" unicode="&#xc0;" horiz-adv-x="1389" 
d="M1374 0h-231l-82 193h-813l-80 -193h-121l545 1296l-80 191h234zM289 291h731l-369 864zM715 1565h-96l-262 293h233z" />
    <glyph glyph-name="Aacute" unicode="&#xc1;" horiz-adv-x="1381" 
d="M1357 0h-231l-82 193h-813l-80 -193h-121l545 1296l-80 191h234zM272 291h731l-369 864zM880 1860l-280 -293h-74l111 293h243z" />
    <glyph glyph-name="Acircumflex" unicode="&#xc2;" horiz-adv-x="1414" 
d="M1379 0h-231l-82 193h-813l-80 -193h-121l545 1296l-80 191h234zM294 291h731l-369 864zM538 1862h233l182 -293h-100l-199 197l-198 -197h-101z" />
    <glyph glyph-name="Atilde" unicode="&#xc3;" horiz-adv-x="1390" 
d="M1365 0h-231l-82 193h-813l-80 -193h-121l545 1296l-80 191h234zM280 291h731l-369 864zM585 1700q-29 16 -54.5 27.5t-54.5 11.5q-37 0 -55.5 -25t-18.5 -82h-69q0 117 47 174t123 57q18 0 36 -4t35.5 -10.5t33.5 -14t30 -14.5l47 -24q30 -16 55.5 -27.5t50.5 -11.5
q38 0 56 25.5t18 80.5h70q0 -115 -47.5 -173t-122.5 -58q-37 1 -69.5 13t-61.5 28z" />
    <glyph glyph-name="Adieresis" unicode="&#xc4;" horiz-adv-x="1363" 
d="M1347 0h-231l-82 193h-813l-80 -193h-121l545 1296l-80 191h234zM262 291h731l-369 864zM555 1689h-191v139h191v-139zM886 1689h-190v139h190v-139z" />
    <glyph glyph-name="Aring" unicode="&#xc5;" horiz-adv-x="1413" 
d="M1381 0h-231l-82 193h-813l-80 -193h-121l545 1296l-80 191h234zM296 291h731l-369 864zM646 1883q45 0 82.5 -13t63.5 -36t40.5 -54t14.5 -67t-14.5 -66.5t-40.5 -53t-63.5 -35.5t-82.5 -13t-82.5 13t-63.5 35.5t-40.5 53t-14.5 66.5t14.5 67t41 54t63.5 36t82 13z
M646 1827q-20 0 -36.5 -9t-28.5 -24t-18.5 -35.5t-6.5 -43.5t6.5 -44t18.5 -37t28.5 -25t36.5 -9q21 0 37.5 9t28 25t18 37t6.5 44q0 46 -24 79t-66 33z" />
    <glyph glyph-name="AE" unicode="&#xc6;" horiz-adv-x="1988" 
d="M1944 1395h-752v-457h752v-90h-752v-758h752v-90h-971v193h-682l-112 -193h-142l877 1487h1030v-92zM973 285v1065l-626 -1065h626z" />
    <glyph glyph-name="Ccedilla" unicode="&#xc7;" horiz-adv-x="1494" 
d="M841 1518q174 0 322.5 -56.5t263.5 -156.5l-56 -74q-46 39 -102 73t-118 58.5t-129 39t-135 14.5q-146 0 -259 -53t-190 -145t-117 -215t-40 -264q0 -138 39.5 -260t116 -214t189.5 -145.5t259 -53.5q70 0 142 14t139 41t126.5 66t105.5 89l57 -73q-118 -112 -274 -175
t-340 -63v-55q57 0 99.5 -16t70.5 -41.5t41.5 -58t13.5 -66.5q0 -54 -36 -94.5t-91 -67.5t-121 -40t-125 -13v59q37 4 74.5 13.5t68 28t49.5 47t19 70.5q0 22 -7.5 43.5t-26 38.5t-50 27.5t-78.5 10.5v120q-59 7 -114 22q-102 27 -190.5 78t-161 121.5t-124 156.5t-80 184.5
t-28.5 205.5t28.5 207t80 186.5t124 157.5t161 121.5t190.5 78.5t213 28z" />
    <glyph glyph-name="Egrave" unicode="&#xc8;" horiz-adv-x="1028" 
d="M1028 1487v-98h-691v-451h670v-98h-670v-742h691v-98h-910v1487h910zM681 1567h-96l-262 293h233z" />
    <glyph glyph-name="Eacute" unicode="&#xc9;" horiz-adv-x="1013" 
d="M1010 1487v-98h-691v-451h670v-98h-670v-742h691v-98h-910v1487h910zM854 1860l-280 -293h-74l111 293h243z" />
    <glyph glyph-name="Ecircumflex" unicode="&#xca;" horiz-adv-x="1043" 
d="M1034 1487v-98h-691v-451h670v-98h-670v-742h691v-98h-910v1487h910zM494 1860h233l182 -293h-100l-199 197l-198 -197h-101z" />
    <glyph glyph-name="Edieresis" unicode="&#xcb;" horiz-adv-x="1019" 
d="M1019 1487v-98h-691v-451h670v-98h-670v-742h691v-98h-910v1487h910zM507 1691h-191v139h191v-139zM838 1691h-190v139h190v-139z" />
    <glyph glyph-name="Igrave" unicode="&#xcc;" horiz-adv-x="520" 
d="M378 0h-220v1487h220v-1487zM359 1565h-96l-262 293h233z" />
    <glyph glyph-name="Iacute" unicode="&#xcd;" horiz-adv-x="518" 
d="M357 0h-220v1487h220v-1487zM518 1860l-280 -293h-74l111 293h243z" />
    <glyph glyph-name="Icircumflex" unicode="&#xce;" horiz-adv-x="657" 
d="M439 0h-220v1487h220v-1487zM212 1858h233l182 -293h-100l-199 197l-198 -197h-101z" />
    <glyph glyph-name="Idieresis" unicode="&#xcf;" horiz-adv-x="551" 
d="M385 0h-220v1487h220v-1487zM206 1691h-191v139h191v-139zM537 1691h-190v139h190v-139z" />
    <glyph glyph-name="Eth" unicode="&#xd0;" horiz-adv-x="1635" 
d="M1539 745q0 -156 -55.5 -291.5t-164.5 -236.5t-270.5 -159t-373.5 -58h-426v840h-152v98h152v549h426q212 0 373.5 -58t270.5 -158.5t164.5 -236t55.5 -289.5zM1307 741q0 136 -31 237t-84 173t-124 118.5t-150 73t-162.5 36.5t-162.5 10h-125v-451h360v-98h-360v-742
h125q79 0 162.5 10t162.5 36.5t150 72.5t124 117.5t84 171.5t31 235z" />
    <glyph glyph-name="Ntilde" unicode="&#xd1;" horiz-adv-x="1416" 
d="M1290 0h-168l-824 1155v-1155h-102v1298l-133 189h268l856 -1202v1202h103v-1487zM706 1714q-29 16 -54.5 27.5t-54.5 11.5q-37 0 -55.5 -25t-18.5 -82h-69q0 117 47 174t123 57q18 0 36 -4t35.5 -10.5t33.5 -14t30 -14.5l47 -24q30 -16 55.5 -27.5t50.5 -11.5
q38 0 56 25.5t18 80.5h70q0 -115 -47.5 -173t-122.5 -58q-37 1 -69.5 13t-61.5 28z" />
    <glyph glyph-name="Ograve" unicode="&#xd2;" horiz-adv-x="1713" 
d="M864 -29q-110 0 -211.5 28t-190 78.5t-161 121.5t-124.5 157.5t-80.5 186t-28.5 207.5q0 106 28.5 205t80.5 185t124.5 157t161 121t190 78t211.5 28q109 0 210 -27.5t189 -78t160.5 -121.5t124 -157t80 -185t28.5 -205q0 -108 -28.5 -207.5t-80 -186t-124 -157.5
t-160.5 -121.5t-189 -78.5t-210 -28zM864 68q136 0 240.5 53t175.5 145t107.5 216.5t36.5 267.5q0 142 -36 266t-106.5 215t-175.5 143.5t-242 52.5q-139 0 -243.5 -52.5t-175 -143.5t-106 -215t-35.5 -266q0 -143 36 -267.5t106.5 -216.5t175.5 -145t242 -53zM925 1565h-96
l-262 293h233z" />
    <glyph glyph-name="Oacute" unicode="&#xd3;" horiz-adv-x="1713" 
d="M853 -29q-110 0 -211.5 28t-190 78.5t-161 121.5t-124.5 157.5t-80.5 186t-28.5 207.5q0 106 28.5 205t80.5 185t124.5 157t161 121t190 78t211.5 28q109 0 210 -27.5t189 -78t160.5 -121.5t124 -157t80 -185t28.5 -205q0 -108 -28.5 -207.5t-80 -186t-124 -157.5
t-160.5 -121.5t-189 -78.5t-210 -28zM853 68q136 0 240.5 53t175.5 145t107.5 216.5t36.5 267.5q0 142 -36 266t-106.5 215t-175.5 143.5t-242 52.5q-139 0 -243.5 -52.5t-175 -143.5t-106 -215t-35.5 -266q0 -143 36 -267.5t106.5 -216.5t175.5 -145t242 -53zM1158 1860
l-280 -293h-74l111 293h243z" />
    <glyph glyph-name="Ocircumflex" unicode="&#xd4;" horiz-adv-x="1726" 
d="M865 -29q-110 0 -211.5 28t-190 78.5t-161 121.5t-124.5 157.5t-80.5 186t-28.5 207.5q0 106 28.5 205t80.5 185t124.5 157t161 121t190 78t211.5 28q109 0 210 -27.5t189 -78t160.5 -121.5t124 -157t80 -185t28.5 -205q0 -108 -28.5 -207.5t-80 -186t-124 -157.5
t-160.5 -121.5t-189 -78.5t-210 -28zM865 68q136 0 240.5 53t175.5 145t107.5 216.5t36.5 267.5q0 142 -36 266t-106.5 215t-175.5 143.5t-242 52.5q-139 0 -243.5 -52.5t-175 -143.5t-106 -215t-35.5 -266q0 -143 36 -267.5t106.5 -216.5t175.5 -145t242 -53zM743 1862h233
l182 -293h-100l-199 197l-198 -197h-101z" />
    <glyph glyph-name="Otilde" unicode="&#xd5;" horiz-adv-x="1726" 
d="M865 -29q-110 0 -211.5 28t-190 78.5t-161 121.5t-124.5 157.5t-80.5 186t-28.5 207.5q0 106 28.5 205t80.5 185t124.5 157t161 121t190 78t211.5 28q109 0 210 -27.5t189 -78t160.5 -121.5t124 -157t80 -185t28.5 -205q0 -108 -28.5 -207.5t-80 -186t-124 -157.5
t-160.5 -121.5t-189 -78.5t-210 -28zM865 68q136 0 240.5 53t175.5 145t107.5 216.5t36.5 267.5q0 142 -36 266t-106.5 215t-175.5 143.5t-242 52.5q-139 0 -243.5 -52.5t-175 -143.5t-106 -215t-35.5 -266q0 -143 36 -267.5t106.5 -216.5t175.5 -145t242 -53zM814 1694
q-29 16 -54.5 27.5t-54.5 11.5q-37 0 -55.5 -25t-18.5 -82h-69q0 117 47 174t123 57q18 0 36 -4t35.5 -10.5t33.5 -14t30 -14.5l47 -24q30 -16 55.5 -27.5t50.5 -11.5q38 0 56 25.5t18 80.5h70q0 -115 -47.5 -173t-122.5 -58q-37 1 -69.5 13t-61.5 28z" />
    <glyph glyph-name="Odieresis" unicode="&#xd6;" horiz-adv-x="1708" 
d="M856 -29q-110 0 -211.5 28t-190 78.5t-161 121.5t-124.5 157.5t-80.5 186t-28.5 207.5q0 106 28.5 205t80.5 185t124.5 157t161 121t190 78t211.5 28q109 0 210 -27.5t189 -78t160.5 -121.5t124 -157t80 -185t28.5 -205q0 -108 -28.5 -207.5t-80 -186t-124 -157.5
t-160.5 -121.5t-189 -78.5t-210 -28zM856 68q136 0 240.5 53t175.5 145t107.5 216.5t36.5 267.5q0 142 -36 266t-106.5 215t-175.5 143.5t-242 52.5q-139 0 -243.5 -52.5t-175 -143.5t-106 -215t-35.5 -266q0 -143 36 -267.5t106.5 -216.5t175.5 -145t242 -53zM781 1691
h-191v139h191v-139zM1112 1691h-190v139h190v-139z" />
    <glyph glyph-name="multiply" unicode="&#xd7;" horiz-adv-x="1099" 
d="M549 516l-317 -317l-98 98l317 317l-317 318l98 98l317 -317l318 317l98 -98l-317 -318l317 -317l-98 -98z" />
    <glyph glyph-name="Oslash" unicode="&#xd8;" horiz-adv-x="1780" 
d="M445 104q-63 42 -117 95q-72 71 -124 157.5t-80.5 186t-28.5 207.5q0 106 28.5 205t80.5 185t124.5 157t161 121t190 78t211.5 28q109 0 210 -28q63 -17 120 -43l64 113h155l-101 -179q60 -40 111 -90q73 -71 124.5 -157t80 -185t28.5 -205q0 -108 -28.5 -207.5t-80 -186
t-124 -157.5t-160.5 -121.5t-189 -78.5t-210 -28q-110 0 -212 28q-60 16 -116 41l-51 -91h-155zM473 266q20 -26 43 -50l648 1142q-15 8 -31 16q-105 53 -242 53q-139 0 -243.5 -52.5t-175 -143.5t-106 -215t-35.5 -266q0 -143 36 -267.5t106 -216.5zM891 68q136 0 240.5 53
t175.5 145t107.5 216.5t36.5 267.5q0 142 -36 266t-107 215q-17 22 -37 43l-648 -1140q13 -7 26 -13q105 -53 242 -53z" />
    <glyph glyph-name="Ugrave" unicode="&#xd9;" horiz-adv-x="1346" 
d="M1023 1487h219v-1487h-219v117l-244 -82q-50 -17 -101 -29t-99 -20t-91 -11.5t-76 -3.5q-71 0 -121 15.5t-83 40t-52 54.5t-28.5 58t-12 51.5t-2.5 34.5v1262h220v-1176q0 -19 4 -53.5t23 -68t59 -58.5t112 -25q59 0 115 6t114.5 18t122.5 30.5t140 44.5v1282zM781 1567
h-96l-262 293h233z" />
    <glyph glyph-name="Uacute" unicode="&#xda;" horiz-adv-x="1345" 
d="M1013 1487h219v-1487h-219v117l-244 -82q-50 -17 -101 -29t-99 -20t-91 -11.5t-76 -3.5q-71 0 -121 15.5t-83 40t-52 54.5t-28.5 58t-12 51.5t-2.5 34.5v1262h220v-1176q0 -19 4 -53.5t23 -68t59 -58.5t112 -25q59 0 115 6t114.5 18t122.5 30.5t140 44.5v1282zM908 1860
l-280 -293h-74l111 293h243z" />
    <glyph glyph-name="Ucircumflex" unicode="&#xdb;" horiz-adv-x="1370" 
d="M1030 1487h219v-1487h-219v117l-244 -82q-50 -17 -101 -29t-99 -20t-91 -11.5t-76 -3.5q-71 0 -121 15.5t-83 40t-52 54.5t-28.5 58t-12 51.5t-2.5 34.5v1262h220v-1176q0 -19 4 -53.5t23 -68t59 -58.5t112 -25q59 0 115 6t114.5 18t122.5 30.5t140 44.5v1282zM561 1862
h233l182 -293h-100l-199 197l-198 -197h-101z" />
    <glyph glyph-name="Udieresis" unicode="&#xdc;" horiz-adv-x="1338" 
d="M1013 1487h219v-1487h-219v117l-244 -82q-50 -17 -101 -29t-99 -20t-91 -11.5t-76 -3.5q-71 0 -121 15.5t-83 40t-52 54.5t-28.5 58t-12 51.5t-2.5 34.5v1262h220v-1176q0 -19 4 -53.5t23 -68t59 -58.5t112 -25q59 0 115 6t114.5 18t122.5 30.5t140 44.5v1282zM600 1691
h-191v139h191v-139zM931 1691h-190v139h190v-139z" />
    <glyph glyph-name="Yacute" unicode="&#xdd;" horiz-adv-x="1114" 
d="M476 676l-473 811h256l371 -670l348 670h121l-412 -799v-688h-211v676zM866 1860l-280 -293h-74l111 293h243z" />
    <glyph glyph-name="Thorn" unicode="&#xde;" horiz-adv-x="1248" 
d="M386 1321h153q157 0 269 -26.5t188 -70.5t122 -101.5t70 -119t31.5 -123t7.5 -114.5q0 -52 -8.5 -112.5t-34 -120.5t-72 -115.5t-123 -98.5t-187 -68.5t-263.5 -25.5h-153v-225h-219v1487h219v-166zM386 1223v-899h123q111 0 203 25t158 79.5t102 140t36 207.5
q0 93 -18.5 162.5t-52 119t-79.5 81.5t-101 51t-117 26t-127 7h-127z" />
    <glyph glyph-name="germandbls" unicode="&#xdf;" horiz-adv-x="928" 
d="M355 -10v-352l-189 -58v1759q6 85 53.5 128.5t128.5 43.5h177v-90q-57 0 -90.5 -2t-51.5 -11t-23 -26t-5 -47v-393h440q40 0 70 -23.5t30 -72.5q0 -8 -5 -24.5t-25 -37.5q-11 -11 -30 -28.5t-40.5 -37t-44 -39.5t-40.5 -35.5t-29.5 -25.5t-10.5 -10v-4h4q10 0 33 -3.5
t51 -14t58 -29.5t55 -49.5t41 -74.5t16 -105q0 -74 -36.5 -136.5t-97.5 -107.5t-139 -70.5t-162 -25.5h-11zM719 328q0 38 -12.5 71.5t-36 58.5t-57 39.5t-74.5 14.5h-64v53l119 90q60 45 93.5 80t33.5 64q0 19 -13 30t-34 16t-48 6t-54 1h-217v-778h92q45 0 93.5 14
t88 44.5t65 78.5t25.5 117z" />
    <glyph glyph-name="agrave" unicode="&#xe0;" horiz-adv-x="966" 
d="M453 874q-48 0 -83.5 -3t-64.5 -8t-54 -11.5t-50 -13.5l-24 65q84 31 175.5 44.5t173.5 13.5q105 0 172.5 -11t105.5 -36.5t52.5 -68t14.5 -106.5v-739h-328q-134 0 -228.5 28t-154.5 75.5t-88 109t-28 129.5q0 84 26.5 148t76.5 107.5t122 66t164 22.5q50 0 113.5 -17
t121.5 -51v125q0 23 -5 46.5t-26 42t-64.5 30.5t-119.5 12zM668 82v463q-48 29 -100 43t-115 14q-50 0 -88.5 -18t-64.5 -51t-39.5 -79t-13.5 -102q0 -16 1.5 -42t10 -56t26 -60.5t49.5 -55.5t81 -40.5t120 -15.5h133zM640 1085h-96l-262 293h233z" />
    <glyph glyph-name="aacute" unicode="&#xe1;" horiz-adv-x="974" 
d="M435 874q-48 0 -83.5 -3t-64.5 -8t-54 -11.5t-50 -13.5l-24 65q84 31 175.5 44.5t173.5 13.5q105 0 172.5 -11t105.5 -36.5t52.5 -68t14.5 -106.5v-739h-328q-134 0 -228.5 28t-154.5 75.5t-88 109t-28 129.5q0 84 26.5 148t76.5 107.5t122 66t164 22.5q50 0 113.5 -17
t121.5 -51v125q0 23 -5 46.5t-26 42t-64.5 30.5t-119.5 12zM650 82v463q-48 29 -100 43t-115 14q-50 0 -88.5 -18t-64.5 -51t-39.5 -79t-13.5 -102q0 -16 1.5 -42t10 -56t26 -60.5t49.5 -55.5t81 -40.5t120 -15.5h133zM530 1378h233l-264 -293h-94z" />
    <glyph glyph-name="acircumflex" unicode="&#xe2;" horiz-adv-x="1009" 
d="M464 874q-48 0 -83.5 -3t-64.5 -8t-54 -11.5t-50 -13.5l-24 65q84 31 175.5 44.5t173.5 13.5q105 0 172.5 -11t105.5 -36.5t52.5 -68t14.5 -106.5v-739h-328q-134 0 -228.5 28t-154.5 75.5t-88 109t-28 129.5q0 84 26.5 148t76.5 107.5t122 66t164 22.5q50 0 113.5 -17
t121.5 -51v125q0 23 -5 46.5t-26 42t-64.5 30.5t-119.5 12zM679 82v463q-48 29 -100 43t-115 14q-50 0 -88.5 -18t-64.5 -51t-39.5 -79t-13.5 -102q0 -16 1.5 -42t10 -56t26 -60.5t49.5 -55.5t81 -40.5t120 -15.5h133zM409 1378h233l182 -293h-100l-199 197l-198 -197h-101z
" />
    <glyph glyph-name="atilde" unicode="&#xe3;" horiz-adv-x="1044" 
d="M484 874q-48 0 -83.5 -3t-64.5 -8t-54 -11.5t-50 -13.5l-24 65q84 31 175.5 44.5t173.5 13.5q105 0 172.5 -11t105.5 -36.5t52.5 -68t14.5 -106.5v-739h-328q-134 0 -228.5 28t-154.5 75.5t-88 109t-28 129.5q0 84 26.5 148t76.5 107.5t122 66t164 22.5q50 0 113.5 -17
t121.5 -51v125q0 23 -5 46.5t-26 42t-64.5 30.5t-119.5 12zM699 82v463q-48 29 -100 43t-115 14q-50 0 -88.5 -18t-64.5 -51t-39.5 -79t-13.5 -102q0 -16 1.5 -42t10 -56t26 -60.5t49.5 -55.5t81 -40.5t120 -15.5h133zM483 1214q-29 16 -54.5 27.5t-54.5 11.5
q-37 0 -55.5 -25t-18.5 -82h-69q0 117 47 174t123 57q18 0 36 -4t35.5 -10.5t33.5 -14t30 -14.5l47 -24q30 -16 55.5 -27.5t50.5 -11.5q38 0 56 25.5t18 80.5h70q0 -115 -47.5 -173t-122.5 -58q-37 1 -69.5 13t-61.5 28z" />
    <glyph glyph-name="adieresis" unicode="&#xe4;" horiz-adv-x="984" 
d="M453 874q-48 0 -83.5 -3t-64.5 -8t-54 -11.5t-50 -13.5l-24 65q84 31 175.5 44.5t173.5 13.5q105 0 172.5 -11t105.5 -36.5t52.5 -68t14.5 -106.5v-739h-328q-134 0 -228.5 28t-154.5 75.5t-88 109t-28 129.5q0 84 26.5 148t76.5 107.5t122 66t164 22.5q50 0 113.5 -17
t121.5 -51v125q0 23 -5 46.5t-26 42t-64.5 30.5t-119.5 12zM668 82v463q-48 29 -100 43t-115 14q-50 0 -88.5 -18t-64.5 -51t-39.5 -79t-13.5 -102q0 -16 1.5 -42t10 -56t26 -60.5t49.5 -55.5t81 -40.5t120 -15.5h133zM437 1165h-191v139h191v-139zM768 1165h-190v139h190
v-139z" />
    <glyph glyph-name="aring" unicode="&#xe5;" horiz-adv-x="996" 
d="M463 874q-48 0 -83.5 -3t-64.5 -8t-54 -11.5t-50 -13.5l-24 65q84 31 175.5 44.5t173.5 13.5q105 0 172.5 -11t105.5 -36.5t52.5 -68t14.5 -106.5v-739h-328q-134 0 -228.5 28t-154.5 75.5t-88 109t-28 129.5q0 84 26.5 148t76.5 107.5t122 66t164 22.5q50 0 113.5 -17
t121.5 -51v125q0 23 -5 46.5t-26 42t-64.5 30.5t-119.5 12zM678 82v463q-48 29 -100 43t-115 14q-50 0 -88.5 -18t-64.5 -51t-39.5 -79t-13.5 -102q0 -16 1.5 -42t10 -56t26 -60.5t49.5 -55.5t81 -40.5t120 -15.5h133zM504 1401q45 0 82.5 -13t63.5 -36t40.5 -54t14.5 -67
t-14.5 -66.5t-40.5 -53t-63.5 -35.5t-82.5 -13t-82.5 13t-63.5 35.5t-40.5 53t-14.5 66.5t14.5 67t41 54t63.5 36t82 13zM504 1345q-20 0 -36.5 -9t-28.5 -24t-18.5 -35.5t-6.5 -43.5t6.5 -44t18.5 -37t28.5 -25t36.5 -9q21 0 37.5 9t28 25t18 37t6.5 44q0 46 -24 79t-66 33
z" />
    <glyph glyph-name="ae" unicode="&#xe6;" horiz-adv-x="1655" 
d="M1174 961q102 0 172.5 -37.5t114.5 -101.5t63.5 -147.5t19.5 -176.5v-47h-606q0 -56 18 -121t58.5 -120t105 -91.5t158.5 -36.5h209v-82h-211q-118 0 -206 21.5t-154 64.5v-86h-308q-134 0 -228.5 28t-154.5 75.5t-88 109t-28 129.5q0 84 26.5 148t76.5 107.5t122 66
t164 22.5q24 0 53.5 -4.5t60.5 -13.5t62 -22t59 -30v107q0 23 -5 49.5t-26 49t-64.5 37.5t-119.5 15q-48 0 -83.5 -3t-64.5 -8t-54 -11.5t-50 -13.5l-24 65q41 15 85 26t87.5 18t84 10.5t75.5 3.5q70 0 122 -6t89.5 -19t62 -33.5t39.5 -48.5q54 51 125 79t162 28zM733 82
v463q-48 28 -100 42.5t-115 14.5q-50 0 -88.5 -18t-64.5 -51t-39.5 -79t-13.5 -102q0 -16 1.5 -42t10 -56t26 -60.5t49.5 -55.5t81 -40.5t120 -15.5h133zM1163 870q-62 0 -104.5 -28t-69 -74.5t-38.5 -108t-13 -127.5h414v43q-2 58 -11 111t-30 94t-57 65.5t-91 24.5z" />
    <glyph glyph-name="ccedilla" unicode="&#xe7;" horiz-adv-x="878" 
d="M766 784q-52 42 -105 63t-122 21q-75 0 -132.5 -29t-96.5 -78.5t-59.5 -114.5t-20.5 -138q0 -34 4.5 -78.5t18.5 -92t40.5 -93t70 -82t108 -58.5t153.5 -22h149v-82h-149q-44 0 -83 2v-63q46 0 84 -12.5t64 -35t40.5 -52.5t14.5 -66q0 -47 -31.5 -83t-80.5 -60.5
t-108.5 -37t-115.5 -12.5v53q36 4 70 13.5t61 26.5t43 42.5t16 60.5q0 54 -37 82t-109 28v125q-20 4 -38 7q-90 19 -156.5 52t-111 79.5t-71.5 103t-38 120.5t-11 133q0 91 32.5 173.5t97 145t160 99.5t222.5 37q31 0 66 -7t70 -20.5t69.5 -34t64.5 -47.5z" />
    <glyph glyph-name="egrave" unicode="&#xe8;" horiz-adv-x="899" 
d="M504 961q102 0 172.5 -37.5t115 -101.5t64 -147.5t19.5 -176.5v-47h-616q0 -56 18 -121t58.5 -120t105 -91.5t158.5 -36.5h208v-82h-211q-140 0 -241.5 32t-167 93t-96.5 149t-31 201q0 94 29.5 182t86 155.5t139 108t189.5 40.5zM494 870q-62 0 -106 -28t-72.5 -74.5
t-42 -108t-14.5 -127.5h423v43q-2 58 -10.5 111t-29.5 94t-56.5 65.5t-91.5 24.5zM615 1085h-96l-262 293h233z" />
    <glyph glyph-name="eacute" unicode="&#xe9;" horiz-adv-x="896" 
d="M489 961q102 0 172.5 -37.5t115 -101.5t64 -147.5t19.5 -176.5v-47h-616q0 -56 18 -121t58.5 -120t105 -91.5t158.5 -36.5h208v-82h-211q-140 0 -241.5 32t-167 93t-96.5 149t-31 201q0 94 29.5 182t86 155.5t139 108t189.5 40.5zM479 870q-62 0 -106 -28t-72.5 -74.5
t-42 -108t-14.5 -127.5h423v43q-2 58 -10.5 111t-29.5 94t-56.5 65.5t-91.5 24.5zM488 1378h233l-264 -293h-94z" />
    <glyph glyph-name="ecircumflex" unicode="&#xea;" horiz-adv-x="932" 
d="M518 961q102 0 172.5 -37.5t115 -101.5t64 -147.5t19.5 -176.5v-47h-616q0 -56 18 -121t58.5 -120t105 -91.5t158.5 -36.5h208v-82h-211q-140 0 -241.5 32t-167 93t-96.5 149t-31 201q0 94 29.5 182t86 155.5t139 108t189.5 40.5zM508 870q-62 0 -106 -28t-72.5 -74.5
t-42 -108t-14.5 -127.5h423v43q-2 58 -10.5 111t-29.5 94t-56.5 65.5t-91.5 24.5zM375 1378h233l182 -293h-100l-199 197l-198 -197h-101z" />
    <glyph glyph-name="edieresis" unicode="&#xeb;" horiz-adv-x="910" 
d="M506 961q102 0 172.5 -37.5t115 -101.5t64 -147.5t19.5 -176.5v-47h-616q0 -56 18 -121t58.5 -120t105 -91.5t158.5 -36.5h208v-82h-211q-140 0 -241.5 32t-167 93t-96.5 149t-31 201q0 94 29.5 182t86 155.5t139 108t189.5 40.5zM496 870q-62 0 -106 -28t-72.5 -74.5
t-42 -108t-14.5 -127.5h423v43q-2 58 -10.5 111t-29.5 94t-56.5 65.5t-91.5 24.5zM425 1165h-191v139h191v-139zM756 1165h-190v139h190v-139z" />
    <glyph glyph-name="igrave" unicode="&#xec;" horiz-adv-x="507" 
d="M374 0h-203v942h203v-942zM363 1024h-96l-262 293h233z" />
    <glyph glyph-name="iacute" unicode="&#xed;" horiz-adv-x="509" 
d="M330 0h-203v942h203v-942zM272 1317h233l-264 -293h-94z" />
    <glyph glyph-name="icircumflex" unicode="&#xee;" horiz-adv-x="654" 
d="M429 0h-203v942h203v-942zM211 1327h233l182 -293h-100l-199 197l-198 -197h-101z" />
    <glyph glyph-name="idieresis" unicode="&#xef;" horiz-adv-x="557" 
d="M377 0h-203v942h203v-942zM210 1165h-191v139h191v-139zM541 1165h-190v139h190v-139z" />
    <glyph glyph-name="eth" unicode="&#xf0;" horiz-adv-x="1147" 
d="M775 1264q88 -84 140 -180.5t79.5 -194.5t36 -190t8.5 -167q0 -133 -38 -235.5t-104.5 -173t-156.5 -107t-193 -36.5q-101 0 -189.5 38.5t-154.5 105t-104.5 156t-38.5 191.5q0 101 38.5 190.5t104.5 156t154.5 105t189.5 38.5q72 0 134.5 -18t117.5 -52h4
q-13 54 -26 97.5t-30 81t-41 71t-58 68.5l-318 -138l-39 90l273 118q-49 34 -111 63.5t-141 52.5v92q100 -14 197 -55t179 -99l275 119l39 -90zM545 870q-78 0 -131.5 -30t-86.5 -84t-47.5 -128t-14.5 -161q0 -86 15 -159t48 -126.5t86.5 -83.5t130.5 -30t131 30t88.5 83.5
t50 126.5t15.5 159q0 87 -15.5 161t-50 128t-88.5 84t-131 30z" />
    <glyph glyph-name="ntilde" unicode="&#xf1;" horiz-adv-x="1054" 
d="M338 864q64 28 118 46.5t101 30t87.5 16t78.5 4.5q94 0 143.5 -49t49.5 -158v-754h-203v723q0 22 -4.5 45t-16.5 41t-32.5 29.5t-51.5 11.5q-51 0 -118 -12.5t-152 -51.5v-786h-203v942h203v-78zM484 1214q-29 16 -54.5 27.5t-54.5 11.5q-37 0 -55.5 -25t-18.5 -82h-69
q0 117 47 174t123 57q18 0 36 -4t35.5 -10.5t33.5 -14t30 -14.5l47 -24q30 -16 55.5 -27.5t50.5 -11.5q38 0 56 25.5t18 80.5h70q0 -115 -47.5 -173t-122.5 -58q-37 1 -69.5 13t-61.5 28z" />
    <glyph glyph-name="ograve" unicode="&#xf2;" horiz-adv-x="1092" 
d="M559 961q103 0 193 -38.5t156.5 -105t104.5 -156t38 -190.5q0 -102 -38 -191.5t-104.5 -156t-156.5 -105t-193 -38.5q-101 0 -189.5 38.5t-154.5 105t-104.5 156t-38.5 191.5q0 101 38.5 190.5t104.5 156t154.5 105t189.5 38.5zM557 870q-78 0 -131.5 -30t-86.5 -84
t-47.5 -128t-14.5 -161q0 -86 15 -159t48 -126.5t86.5 -83.5t130.5 -30t131 30t88.5 83.5t50 126.5t15.5 159q0 87 -15.5 161t-50 128t-88.5 84t-131 30zM613 1085h-96l-262 293h233z" />
    <glyph glyph-name="oacute" unicode="&#xf3;" horiz-adv-x="1091" 
d="M528 961q103 0 193 -38.5t156.5 -105t104.5 -156t38 -190.5q0 -102 -38 -191.5t-104.5 -156t-156.5 -105t-193 -38.5q-101 0 -189.5 38.5t-154.5 105t-104.5 156t-38.5 191.5q0 101 38.5 190.5t104.5 156t154.5 105t189.5 38.5zM526 870q-78 0 -131.5 -30t-86.5 -84
t-47.5 -128t-14.5 -161q0 -86 15 -159t48 -126.5t86.5 -83.5t130.5 -30t131 30t88.5 83.5t50 126.5t15.5 159q0 87 -15.5 161t-50 128t-88.5 84t-131 30zM600 1378h233l-264 -293h-94z" />
    <glyph glyph-name="ocircumflex" unicode="&#xf4;" horiz-adv-x="1118" 
d="M557 961q103 0 193 -38.5t156.5 -105t104.5 -156t38 -190.5q0 -102 -38 -191.5t-104.5 -156t-156.5 -105t-193 -38.5q-101 0 -189.5 38.5t-154.5 105t-104.5 156t-38.5 191.5q0 101 38.5 190.5t104.5 156t154.5 105t189.5 38.5zM555 870q-78 0 -131.5 -30t-86.5 -84
t-47.5 -128t-14.5 -161q0 -86 15 -159t48 -126.5t86.5 -83.5t130.5 -30t131 30t88.5 83.5t50 126.5t15.5 159q0 87 -15.5 161t-50 128t-88.5 84t-131 30zM439 1378h233l182 -293h-100l-199 197l-198 -197h-101z" />
    <glyph glyph-name="otilde" unicode="&#xf5;" horiz-adv-x="1138" 
d="M566 961q103 0 193 -38.5t156.5 -105t104.5 -156t38 -190.5q0 -102 -38 -191.5t-104.5 -156t-156.5 -105t-193 -38.5q-101 0 -189.5 38.5t-154.5 105t-104.5 156t-38.5 191.5q0 101 38.5 190.5t104.5 156t154.5 105t189.5 38.5zM564 870q-78 0 -131.5 -30t-86.5 -84
t-47.5 -128t-14.5 -161q0 -86 15 -159t48 -126.5t86.5 -83.5t130.5 -30t131 30t88.5 83.5t50 126.5t15.5 159q0 87 -15.5 161t-50 128t-88.5 84t-131 30zM522 1235q-29 16 -54.5 27.5t-54.5 11.5q-37 0 -55.5 -25t-18.5 -82h-69q0 117 47 174t123 57q18 0 36 -4t35.5 -10.5
t33.5 -14t30 -14.5l47 -24q30 -16 55.5 -27.5t50.5 -11.5q38 0 56 25.5t18 80.5h70q0 -115 -47.5 -173t-122.5 -58q-37 1 -69.5 13t-61.5 28z" />
    <glyph glyph-name="odieresis" unicode="&#xf6;" horiz-adv-x="1097" 
d="M546 961q103 0 193 -38.5t156.5 -105t104.5 -156t38 -190.5q0 -102 -38 -191.5t-104.5 -156t-156.5 -105t-193 -38.5q-101 0 -189.5 38.5t-154.5 105t-104.5 156t-38.5 191.5q0 101 38.5 190.5t104.5 156t154.5 105t189.5 38.5zM544 870q-78 0 -131.5 -30t-86.5 -84
t-47.5 -128t-14.5 -161q0 -86 15 -159t48 -126.5t86.5 -83.5t130.5 -30t131 30t88.5 83.5t50 126.5t15.5 159q0 87 -15.5 161t-50 128t-88.5 84t-131 30zM479 1165h-191v139h191v-139zM810 1165h-190v139h190v-139z" />
    <glyph glyph-name="divide" unicode="&#xf7;" horiz-adv-x="1047" 
d="M625 94h-203v160h203v-160zM625 893h-203v160h203v-160zM5 504v139h1037v-139h-1037z" />
    <glyph glyph-name="oslash" unicode="&#xf8;" horiz-adv-x="1195" 
d="M595 961q66 0 127 -16.5t115 -46.5l45 63h131l-88 -126q75 -69 118.5 -162t43.5 -202q0 -102 -38 -191.5t-104.5 -156t-156.5 -105t-193 -38.5q-63 0 -120.5 15t-109.5 43l-40 -58h-131l83 119q-78 69 -123.5 164.5t-45.5 207.5q0 101 38.5 190.5t104.5 156t154.5 105
t189.5 38.5zM593 870q-78 0 -131.5 -30t-86.5 -84t-47.5 -128t-14.5 -161q0 -75 11 -138.5t34 -114.5l414 591q-33 31 -77.5 48t-101.5 17zM878 467q0 70 -10 130.5t-32 111.5l-411 -586q32 -26 73 -40.5t95 -14.5q77 0 131 30t88.5 83.5t50 126.5t15.5 159z" />
    <glyph glyph-name="ugrave" unicode="&#xf9;" horiz-adv-x="972" 
d="M689 78q-65 -28 -119 -46.5t-100.5 -29.5t-87.5 -15.5t-78 -4.5q-94 0 -143.5 48.5t-49.5 157.5v754h203v-723q0 -23 4.5 -45.5t16 -40.5t31.5 -29.5t52 -11.5q51 0 118.5 12.5t152.5 51.5v786h202v-942h-202v78zM594 1085h-96l-262 293h233z" />
    <glyph glyph-name="uacute" unicode="&#xfa;" horiz-adv-x="972" 
d="M653 78q-65 -28 -119 -46.5t-100.5 -29.5t-87.5 -15.5t-78 -4.5q-94 0 -143.5 48.5t-49.5 157.5v754h203v-723q0 -23 4.5 -45.5t16 -40.5t31.5 -29.5t52 -11.5q51 0 118.5 12.5t152.5 51.5v786h202v-942h-202v78zM516 1378h233l-264 -293h-94z" />
    <glyph glyph-name="ucircumflex" unicode="&#xfb;" horiz-adv-x="1017" 
d="M694 78q-65 -28 -119 -46.5t-100.5 -29.5t-87.5 -15.5t-78 -4.5q-94 0 -143.5 48.5t-49.5 157.5v754h203v-723q0 -23 4.5 -45.5t16 -40.5t31.5 -29.5t52 -11.5q51 0 118.5 12.5t152.5 51.5v786h202v-942h-202v78zM393 1378h233l182 -293h-100l-199 197l-198 -197h-101z
" />
    <glyph glyph-name="udieresis" unicode="&#xfc;" horiz-adv-x="993" 
d="M683 78q-65 -28 -119 -46.5t-100.5 -29.5t-87.5 -15.5t-78 -4.5q-94 0 -143.5 48.5t-49.5 157.5v754h203v-723q0 -23 4.5 -45.5t16 -40.5t31.5 -29.5t52 -11.5q51 0 118.5 12.5t152.5 51.5v786h202v-942h-202v78zM428 1164h-191v139h191v-139zM759 1164h-190v139h190
v-139z" />
    <glyph glyph-name="yacute" unicode="&#xfd;" horiz-adv-x="912" 
d="M442 1l-1 -1l-434 942h204l230 -502l85 -218l273 720h97l-496 -1304h-96zM509 1378h233l-264 -293h-94z" />
    <glyph glyph-name="thorn" unicode="&#xfe;" horiz-adv-x="1082" 
d="M167 -420v1907h188v-595q57 35 121 52t115 17q127 0 219.5 -34.5t153 -95t89.5 -144t29 -181.5q0 -99 -26.5 -190.5t-94 -161.5t-183.5 -112t-294 -42h-129v-362zM570 877q-64 0 -115.5 -15t-99.5 -44v-736h129q90 0 154 22t108 58.5t70.5 82t40.5 93t18.5 92t4.5 78.5
q0 73 -20.5 139.5t-60 117.5t-97 81.5t-132.5 30.5z" />
    <glyph glyph-name="ydieresis" unicode="&#xff;" horiz-adv-x="909" 
d="M443 1l-1 -1l-434 942h204l230 -502l85 -218l273 720h97l-496 -1304h-96zM426 1165h-191v139h191v-139zM757 1165h-190v139h190v-139z" />
    <glyph glyph-name="amacron" unicode="&#x101;" horiz-adv-x="963" 
d="M445 874q-48 0 -83.5 -3t-64.5 -8t-54 -11.5t-50 -13.5l-24 65q84 31 175.5 44.5t173.5 13.5q105 0 172.5 -11t105.5 -36.5t52.5 -68t14.5 -106.5v-739h-328q-134 0 -228.5 28t-154.5 75.5t-88 109t-28 129.5q0 84 26.5 148t76.5 107.5t122 66t164 22.5q50 0 113.5 -17
t121.5 -51v125q0 23 -5 46.5t-26 42t-64.5 30.5t-119.5 12zM660 82v463q-48 29 -100 43t-115 14q-50 0 -88.5 -18t-64.5 -51t-39.5 -79t-13.5 -102q0 -16 1.5 -42t10 -56t26 -60.5t49.5 -55.5t81 -40.5t120 -15.5h133zM185 1280h604v-102h-604v102z" />
    <glyph glyph-name="Abreve" unicode="&#x102;" horiz-adv-x="1400" 
d="M1367 0h-231l-82 193h-813l-80 -193h-121l545 1296l-80 191h234zM282 291h731l-369 864zM421 1927h114q27 -139 164 -139q140 0 164 139h115q0 -137 -71 -205.5t-200 -68.5q-143 0 -214.5 66.5t-71.5 207.5z" />
    <glyph glyph-name="abreve" unicode="&#x103;" horiz-adv-x="1064" 
d="M483 874q-48 0 -83.5 -3t-64.5 -8t-54 -11.5t-50 -13.5l-24 65q84 31 175.5 44.5t173.5 13.5q105 0 172.5 -11t105.5 -36.5t52.5 -68t14.5 -106.5v-739h-328q-134 0 -228.5 28t-154.5 75.5t-88 109t-28 129.5q0 84 26.5 148t76.5 107.5t122 66t164 22.5q50 0 113.5 -17
t121.5 -51v125q0 23 -5 46.5t-26 42t-64.5 30.5t-119.5 12zM698 82v463q-48 29 -100 43t-115 14q-50 0 -88.5 -18t-64.5 -51t-39.5 -79t-13.5 -102q0 -16 1.5 -42t10 -56t26 -60.5t49.5 -55.5t81 -40.5t120 -15.5h133zM253 1382h114q27 -139 164 -139q140 0 164 139h115
q0 -137 -71 -205.5t-200 -68.5q-143 0 -214.5 66.5t-71.5 207.5z" />
    <glyph glyph-name="Aogonek" unicode="&#x104;" horiz-adv-x="1400" 
d="M1367 0h-231l-82 193h-813l-80 -193h-121l545 1296l-80 191h234zM282 291h731l-369 864zM1189 2h127q-137 -70 -137 -152q0 -38 28.5 -60.5t73.5 -22.5t86 18v-125q-59 -20 -129 -20q-88 0 -144.5 47t-56.5 125q0 108 152 190z" />
    <glyph glyph-name="aogonek" unicode="&#x105;" horiz-adv-x="1064" 
d="M483 874q-48 0 -83.5 -3t-64.5 -8t-54 -11.5t-50 -13.5l-24 65q84 31 175.5 44.5t173.5 13.5q105 0 172.5 -11t105.5 -36.5t52.5 -68t14.5 -106.5v-739h-328q-134 0 -228.5 28t-154.5 75.5t-88 109t-28 129.5q0 84 26.5 148t76.5 107.5t122 66t164 22.5q50 0 113.5 -17
t121.5 -51v125q0 23 -5 46.5t-26 42t-64.5 30.5t-119.5 12zM698 82v463q-48 29 -100 43t-115 14q-50 0 -88.5 -18t-64.5 -51t-39.5 -79t-13.5 -102q0 -16 1.5 -42t10 -56t26 -60.5t49.5 -55.5t81 -40.5t120 -15.5h133zM723 2h127q-137 -70 -137 -152q0 -38 28.5 -60.5
t73.5 -22.5t86 18v-125q-59 -20 -129 -20q-88 0 -144.5 47t-56.5 125q0 108 152 190z" />
    <glyph glyph-name="Cacute" unicode="&#x106;" horiz-adv-x="1585" 
d="M884 1518q174 0 322.5 -56.5t263.5 -156.5l-56 -74q-46 39 -102 73t-118 58.5t-129 39t-135 14.5q-146 0 -259 -53t-190 -145t-117 -215t-40 -264q0 -138 39.5 -260t116 -214t189.5 -145.5t259 -53.5q70 0 142 14t139 41t126.5 66t105.5 89l57 -73q-118 -112 -274 -175
t-340 -63q-111 0 -213 27.5t-190.5 78.5t-161 121.5t-124 156.5t-80 184.5t-28.5 205.5t28.5 207t80 186.5t124 157.5t161 121.5t190.5 78.5t213 28zM969 1860l-280 -293h-74l111 293h243z" />
    <glyph glyph-name="cacute" unicode="&#x107;" horiz-adv-x="948" 
d="M831 784q-52 42 -105 63t-122 21q-75 0 -132.5 -29t-96.5 -78.5t-59.5 -114.5t-20.5 -138q0 -34 4.5 -78.5t18.5 -92t40.5 -93t70 -82t108 -58.5t153.5 -22h149v-82h-149q-119 0 -209.5 18.5t-157 51.5t-111 79.5t-71.5 103t-38 120.5t-11 133q0 91 32.5 173.5t97 145
t160 99.5t222.5 37q31 0 66 -7t70 -20.5t69.5 -34t64.5 -47.5zM420 1317h233l-264 -293h-94z" />
    <glyph glyph-name="Ccaron" unicode="&#x10c;" horiz-adv-x="1585" 
d="M884 1518q174 0 322.5 -56.5t263.5 -156.5l-56 -74q-46 39 -102 73t-118 58.5t-129 39t-135 14.5q-146 0 -259 -53t-190 -145t-117 -215t-40 -264q0 -138 39.5 -260t116 -214t189.5 -145.5t259 -53.5q70 0 142 14t139 41t126.5 66t105.5 89l57 -73q-118 -112 -274 -175
t-340 -63q-111 0 -213 27.5t-190.5 78.5t-161 121.5t-124 156.5t-80 184.5t-28.5 205.5t28.5 207t80 186.5t124 157.5t161 121.5t190.5 78.5t213 28zM909 1569h-234l-182 293h101l198 -197l199 197h100z" />
    <glyph glyph-name="ccaron" unicode="&#x10d;" horiz-adv-x="908" 
d="M803 784q-52 42 -105 63t-122 21q-75 0 -132.5 -29t-96.5 -78.5t-59.5 -114.5t-20.5 -138q0 -34 4.5 -78.5t18.5 -92t40.5 -93t70 -82t108 -58.5t153.5 -22h149v-82h-149q-119 0 -209.5 18.5t-157 51.5t-111 79.5t-71.5 103t-38 120.5t-11 133q0 91 32.5 173.5t97 145
t160 99.5t222.5 37q31 0 66 -7t70 -20.5t69.5 -34t64.5 -47.5zM674 1024h-234l-182 293h101l198 -197l199 197h100z" />
    <glyph glyph-name="Dcaron" unicode="&#x10e;" horiz-adv-x="1532" 
d="M1216 741q0 136 -31 237t-84 173t-124 118.5t-150 73t-162.5 36.5t-162.5 10h-125v-1291h125q79 0 162.5 10t162.5 36.5t150 72.5t124 117.5t84 171.5t31 235zM1448 745q0 -156 -55.5 -291.5t-164.5 -236.5t-270.5 -159t-373.5 -58h-426v1487h426q212 0 373.5 -58
t270.5 -158.5t164.5 -236t55.5 -289.5zM883 1569h-234l-182 293h101l198 -197l199 197h100z" />
    <glyph glyph-name="dcaron" unicode="&#x10f;" horiz-adv-x="1383" 
d="M635 0q-119 0 -209.5 19t-157 53.5t-111 81.5t-71.5 103.5t-38 119.5t-11 129q0 98 29.5 181.5t90 144t153 95t219.5 34.5q50 0 113.5 -17t121.5 -51v594h203v-1487h-332zM240 508q0 -34 4.5 -78.5t18.5 -92t40.5 -93t70 -82t108 -58.5t153.5 -22h129v737
q-48 29 -100 43.5t-115 14.5q-74 0 -131.5 -30.5t-97 -81.5t-60 -117.5t-20.5 -139.5zM1102 1487h203v-160q0 -41 -15 -72.5t-41 -54t-61 -34t-75 -11.5h-99v90q29 0 46.5 1.5t26.5 9.5t12 24.5t3 46.5v160z" />
    <glyph glyph-name="Dcroat" unicode="&#x110;" horiz-adv-x="1635" 
d="M1539 745q0 -156 -55.5 -291.5t-164.5 -236.5t-270.5 -159t-373.5 -58h-426v840h-152v98h152v549h426q212 0 373.5 -58t270.5 -158.5t164.5 -236t55.5 -289.5zM1307 741q0 136 -31 237t-84 173t-124 118.5t-150 73t-162.5 36.5t-162.5 10h-125v-451h360v-98h-360v-742
h125q79 0 162.5 10t162.5 36.5t150 72.5t124 117.5t84 171.5t31 235z" />
    <glyph glyph-name="dcroat" unicode="&#x111;" horiz-adv-x="1113" 
d="M404 1112v139h337v236h203v-236h66v-139h-66v-1112h-332q-119 0 -209.5 19t-157 53.5t-111 81.5t-71.5 103.5t-38 119.5t-11 129q0 98 29.5 181.5t90 144t153 95t219.5 34.5q50 0 113.5 -17t121.5 -51v219h-337zM217 508q0 -34 4.5 -78.5t18.5 -92t40.5 -93t70 -82
t108 -58.5t153.5 -22h129v737q-48 29 -100 43.5t-115 14.5q-74 0 -131.5 -30.5t-97 -81.5t-60 -117.5t-20.5 -139.5z" />
    <glyph glyph-name="Emacron" unicode="&#x112;" horiz-adv-x="1071" 
d="M1069 1487v-98h-691v-451h670v-98h-670v-742h691v-98h-910v1487h910zM339 1726h604v-102h-604v102z" />
    <glyph glyph-name="emacron" unicode="&#x113;" horiz-adv-x="897" 
d="M502 961q102 0 172.5 -37.5t115 -101.5t64 -147.5t19.5 -176.5v-47h-616q0 -56 18 -121t58.5 -120t105 -91.5t158.5 -36.5h208v-82h-211q-140 0 -241.5 32t-167 93t-96.5 149t-31 201q0 94 29.5 182t86 155.5t139 108t189.5 40.5zM492 870q-62 0 -106 -28t-72.5 -74.5
t-42 -108t-14.5 -127.5h423v43q-2 58 -10.5 111t-29.5 94t-56.5 65.5t-91.5 24.5zM158 1280h604v-102h-604v102z" />
    <glyph glyph-name="Eogonek" unicode="&#x118;" horiz-adv-x="1071" 
d="M1069 1487v-98h-691v-451h670v-98h-670v-742h691v-98h-910v1487h910zM891 2h127q-137 -70 -137 -152q0 -38 28.5 -60.5t73.5 -22.5t86 18v-125q-59 -20 -129 -20q-88 0 -144.5 47t-56.5 125q0 108 152 190z" />
    <glyph glyph-name="eogonek" unicode="&#x119;" horiz-adv-x="987" 
d="M544 961q102 0 172.5 -37.5t115 -101.5t64 -147.5t19.5 -176.5v-47h-616q0 -56 18 -121t58.5 -120t105 -91.5t158.5 -36.5h208v-82h-211q-140 0 -241.5 32t-167 93t-96.5 149t-31 201q0 94 29.5 182t86 155.5t139 108t189.5 40.5zM534 870q-62 0 -106 -28t-72.5 -74.5
t-42 -108t-14.5 -127.5h423v43q-2 58 -10.5 111t-29.5 94t-56.5 65.5t-91.5 24.5zM737 2h127q-137 -70 -137 -152q0 -38 28.5 -60.5t73.5 -22.5t86 18v-125q-59 -20 -129 -20q-88 0 -144.5 47t-56.5 125q0 108 152 190z" />
    <glyph glyph-name="Ecaron" unicode="&#x11a;" horiz-adv-x="1043" 
d="M1034 1487v-98h-691v-451h670v-98h-670v-742h691v-98h-910v1487h910zM732 1569h-234l-182 293h101l198 -197l199 197h100z" />
    <glyph glyph-name="ecaron" unicode="&#x11b;" horiz-adv-x="947" 
d="M523 961q102 0 172.5 -37.5t115 -101.5t64 -147.5t19.5 -176.5v-47h-616q0 -56 18 -121t58.5 -120t105 -91.5t158.5 -36.5h208v-82h-211q-140 0 -241.5 32t-167 93t-96.5 149t-31 201q0 94 29.5 182t86 155.5t139 108t189.5 40.5zM513 870q-62 0 -106 -28t-72.5 -74.5
t-42 -108t-14.5 -127.5h423v43q-2 58 -10.5 111t-29.5 94t-56.5 65.5t-91.5 24.5zM632 1024h-234l-182 293h101l198 -197l199 197h100z" />
    <glyph glyph-name="Gcommaaccent" unicode="&#x122;" horiz-adv-x="1616" 
d="M326 762q0 -151 49.5 -273.5t141.5 -209.5t224.5 -134t297.5 -47h219v865h219v-963h-528q-119 0 -229 21t-206 63t-174 105t-134 148t-86.5 191t-30.5 234q0 107 28.5 205t80 182t124 152t161 116.5t190.5 74.5t213 26q173 0 322 -57t264 -156l-56 -74q-46 39 -101.5 73
t-118 59t-129.5 39t-135 14q-141 -1 -253 -50.5t-190.5 -137t-120.5 -206.5t-42 -260zM666 -59h160v-154q0 -193 -160 -221v76q41 14 58.5 40.5t17.5 86.5h-76v172z" />
    <glyph glyph-name="Imacron" unicode="&#x12a;" horiz-adv-x="549" 
d="M381 0h-220v1487h220v-1487zM-27 1825h604v-102h-604v102z" />
    <glyph glyph-name="Idotaccent" unicode="&#x130;" horiz-adv-x="549" 
d="M381 0h-220v1487h220v-1487zM369 1709h-190v139h190v-139z" />
    <glyph glyph-name="dotlessi" unicode="&#x131;" horiz-adv-x="545" 
d="M370 0h-203v942h203v-942z" />
    <glyph glyph-name="Kcommaaccent" unicode="&#x136;" horiz-adv-x="1310" 
d="M381 944l616 543h152l-555 -488l641 -999h-256l-545 856l-53 -47v-809h-219v1487h219v-543zM513 -59h160v-154q0 -193 -160 -221v76q41 14 58.5 40.5t17.5 86.5h-76v172z" />
    <glyph glyph-name="Lacute" unicode="&#x139;" horiz-adv-x="959" 
d="M347 98h612v-98h-831v1487h219v-1389zM649 1860l-280 -293h-74l111 293h243z" />
    <glyph glyph-name="lacute" unicode="&#x13a;" horiz-adv-x="551" 
d="M126 1487h203v-1487h-203v1487zM318 1855h233l-264 -293h-94z" />
    <glyph glyph-name="Lcommaaccent" unicode="&#x13b;" horiz-adv-x="993" 
d="M381 98h612v-98h-831v1487h219v-1389zM354 -59h160v-154q0 -193 -160 -221v76q41 14 58.5 40.5t17.5 86.5h-76v172z" />
    <glyph glyph-name="Lcaron" unicode="&#x13d;" horiz-adv-x="1009" 
d="M386 98h612v-98h-831v1487h219v-1389zM600 1489h203v-160q0 -41 -15 -72.5t-41 -54t-61 -34t-75 -11.5h-99v90q29 0 46.5 1.5t26.5 9.5t12 24.5t3 46.5v160z" />
    <glyph glyph-name="lcaron" unicode="&#x13e;" horiz-adv-x="717" 
d="M167 1487h203v-1487h-203v1487zM503 1487h203v-160q0 -41 -15 -72.5t-41 -54t-61 -34t-75 -11.5h-99v90q29 0 46.5 1.5t26.5 9.5t12 24.5t3 46.5v160z" />
    <glyph glyph-name="Lslash" unicode="&#x141;" horiz-adv-x="993" 
d="M869 1139v-108l-488 -363v-570h612v-98h-831v505l-119 -88v106l119 88v876h219v-712z" />
    <glyph glyph-name="lslash" unicode="&#x142;" horiz-adv-x="545" 
d="M500 917v-108l-130 -112v-697h-203v523l-124 -106v106l124 107v857h203v-682z" />
    <glyph glyph-name="Nacute" unicode="&#x143;" horiz-adv-x="1494" 
d="M1330 0h-168l-824 1155v-1155h-102v1298l-133 189h268l856 -1202v1202h103v-1487zM924 1860l-280 -293h-74l111 293h243z" />
    <glyph glyph-name="nacute" unicode="&#x144;" horiz-adv-x="1112" 
d="M369 864q64 28 118 46.5t101 30t87.5 16t78.5 4.5q94 0 143.5 -49t49.5 -158v-754h-203v723q0 22 -4.5 45t-16.5 41t-32.5 29.5t-51.5 11.5q-51 0 -118 -12.5t-152 -51.5v-786h-203v942h203v-78zM502 1317h233l-264 -293h-94z" />
    <glyph glyph-name="Ncommaaccent" unicode="&#x145;" horiz-adv-x="1494" 
d="M1330 0h-168l-824 1155v-1155h-102v1298l-133 189h268l856 -1202v1202h103v-1487zM605 -59h160v-154q0 -193 -160 -221v76q41 14 58.5 40.5t17.5 86.5h-76v172z" />
    <glyph glyph-name="Ncaron" unicode="&#x147;" horiz-adv-x="1421" 
d="M1293 0h-168l-824 1155v-1155h-102v1298l-133 189h268l856 -1202v1202h103v-1487zM856 1569h-234l-182 293h101l198 -197l199 197h100z" />
    <glyph glyph-name="ncaron" unicode="&#x148;" horiz-adv-x="1042" 
d="M335 864q64 28 118 46.5t101 30t87.5 16t78.5 4.5q94 0 143.5 -49t49.5 -158v-754h-203v723q0 22 -4.5 45t-16.5 41t-32.5 29.5t-51.5 11.5q-51 0 -118 -12.5t-152 -51.5v-786h-203v942h203v-78zM637 1024h-234l-182 293h101l198 -197l199 197h100z" />
    <glyph glyph-name="omacron" unicode="&#x14d;" horiz-adv-x="1085" 
d="M540 961q103 0 193 -38.5t156.5 -105t104.5 -156t38 -190.5q0 -102 -38 -191.5t-104.5 -156t-156.5 -105t-193 -38.5q-101 0 -189.5 38.5t-154.5 105t-104.5 156t-38.5 191.5q0 101 38.5 190.5t104.5 156t154.5 105t189.5 38.5zM538 870q-78 0 -131.5 -30t-86.5 -84
t-47.5 -128t-14.5 -161q0 -86 15 -159t48 -126.5t86.5 -83.5t130.5 -30t131 30t88.5 83.5t50 126.5t15.5 159q0 87 -15.5 161t-50 128t-88.5 84t-131 30zM240 1280h604v-102h-604v102z" />
    <glyph glyph-name="Ohungarumlaut" unicode="&#x150;" horiz-adv-x="1782" 
d="M893 -29q-110 0 -211.5 28t-190 78.5t-161 121.5t-124.5 157.5t-80.5 186t-28.5 207.5q0 106 28.5 205t80.5 185t124.5 157t161 121t190 78t211.5 28q109 0 210 -27.5t189 -78t160.5 -121.5t124 -157t80 -185t28.5 -205q0 -108 -28.5 -207.5t-80 -186t-124 -157.5
t-160.5 -121.5t-189 -78.5t-210 -28zM893 68q136 0 240.5 53t175.5 145t107.5 216.5t36.5 267.5q0 142 -36 266t-106.5 215t-175.5 143.5t-242 52.5q-139 0 -243.5 -52.5t-175 -143.5t-106 -215t-35.5 -266q0 -143 36 -267.5t106.5 -216.5t175.5 -145t242 -53zM681 1862h233
l-264 -293h-94zM993 1862h233l-264 -293h-94z" />
    <glyph glyph-name="ohungarumlaut" unicode="&#x151;" horiz-adv-x="1179" 
d="M587 961q103 0 193 -38.5t156.5 -105t104.5 -156t38 -190.5q0 -102 -38 -191.5t-104.5 -156t-156.5 -105t-193 -38.5q-101 0 -189.5 38.5t-154.5 105t-104.5 156t-38.5 191.5q0 101 38.5 190.5t104.5 156t154.5 105t189.5 38.5zM585 870q-78 0 -131.5 -30t-86.5 -84
t-47.5 -128t-14.5 -161q0 -86 15 -159t48 -126.5t86.5 -83.5t130.5 -30t131 30t88.5 83.5t50 126.5t15.5 159q0 87 -15.5 161t-50 128t-88.5 84t-131 30zM379 1317h233l-264 -293h-94zM691 1317h233l-264 -293h-94z" />
    <glyph glyph-name="OE" unicode="&#x152;" horiz-adv-x="2331" 
d="M2275 1487v-98h-631v-451h610v-98h-610v-742h631v-98h-840v196q-106 -106 -244 -165.5t-298 -59.5q-161 0 -302 61t-246.5 167t-166.5 247.5t-61 303.5q0 106 28 205t78.5 185t121 157t157 121t185.5 78t206 28q160 0 298 -59.5t244 -165.5v188h840zM893 68
q133 0 234.5 53t170 145t103 216.5t34.5 267.5q0 142 -34 266t-102 215t-169.5 143.5t-236.5 52.5t-236.5 -52.5t-169.5 -143.5t-102 -215t-34 -266q0 -143 34.5 -267.5t103 -216.5t169.5 -145t235 -53z" />
    <glyph glyph-name="oe" unicode="&#x153;" horiz-adv-x="1814" 
d="M1337 961q102 0 172.5 -37.5t115 -101.5t64 -147.5t19.5 -176.5v-47h-606q0 -56 18 -121t58.5 -120t105 -91.5t158.5 -36.5h208v-82h-211q-163 0 -272 41.5t-172 122.5q-69 -85 -168 -134.5t-217 -49.5q-101 0 -189.5 38.5t-154.5 105t-104.5 156t-38.5 191.5
q0 101 38.5 190.5t104.5 156t154.5 105t189.5 38.5q118 0 215.5 -48.5t164.5 -130.5q54 81 140.5 130t206.5 49zM608 870q-78 0 -131.5 -30t-86.5 -84t-47.5 -128t-14.5 -161q0 -86 15 -159t48 -126.5t86.5 -83.5t130.5 -30t131 30t88.5 83.5t50 126.5t15.5 159
q0 87 -15.5 161t-50 128t-88.5 84t-131 30zM1327 870q-62 0 -104.5 -28t-69 -74.5t-38.5 -108t-13 -127.5h413v43q-2 58 -10.5 111t-29.5 94t-56.5 65.5t-91.5 24.5z" />
    <glyph glyph-name="Racute" unicode="&#x154;" horiz-adv-x="1336" 
d="M655 1487q127 0 219.5 -22.5t157 -59.5t104 -85t61 -99t29 -101.5t7.5 -93.5q0 -55 -17.5 -123t-63 -132t-124.5 -115.5t-201 -73.5l430 -582h-268l-420 567h-162v-567h-219v1487h467zM407 1389v-723h125q107 0 193.5 19.5t148 63t94.5 113t33 168.5q0 112 -40 182.5
t-105.5 109.5t-149.5 53t-172 14h-127zM845 1860l-280 -293h-74l111 293h243z" />
    <glyph glyph-name="racute" unicode="&#x155;" horiz-adv-x="677" 
d="M306 868q40 28 70.5 46t54.5 28.5t44.5 14.5t40.5 4q78 0 116 -54t45 -153l-175 -52q-10 72 -27 102t-53 30q-21 0 -49.5 -9t-66.5 -30v-795h-203v942h203v-74zM365 1317h233l-264 -293h-94z" />
    <glyph glyph-name="Rcaron" unicode="&#x158;" horiz-adv-x="1336" 
d="M655 1487q127 0 219.5 -22.5t157 -59.5t104 -85t61 -99t29 -101.5t7.5 -93.5q0 -55 -17.5 -123t-63 -132t-124.5 -115.5t-201 -73.5l430 -582h-268l-420 567h-162v-567h-219v1487h467zM407 1389v-723h125q107 0 193.5 19.5t148 63t94.5 113t33 168.5q0 112 -40 182.5
t-105.5 109.5t-149.5 53t-172 14h-127zM785 1569h-234l-182 293h101l198 -197l199 197h100z" />
    <glyph glyph-name="rcaron" unicode="&#x159;" horiz-adv-x="734" 
d="M354 868q40 28 70.5 46t54.5 28.5t44.5 14.5t40.5 4q78 0 116 -54t45 -153l-175 -52q-10 72 -27 102t-53 30q-21 0 -49.5 -9t-66.5 -30v-795h-203v942h203v-74zM543 1024h-234l-182 293h101l198 -197l199 197h100z" />
    <glyph glyph-name="Sacute" unicode="&#x15a;" 
d="M504 1518q66 0 115.5 -6t93 -16.5t86.5 -24.5t96 -31l-4 -105q-38 13 -77 25t-81.5 21t-90.5 14.5t-103 5.5q-25 0 -58 -8t-63 -27t-51 -50t-21 -77q0 -43 34 -100.5t114 -143.5l176 -190q58 -60 111.5 -118.5t93.5 -115t64 -112t24 -109.5q0 -105 -38.5 -178.5
t-100 -119t-139.5 -66.5t-156 -21q-68 0 -127 7.5t-112.5 22t-102.5 36t-97 49.5l13 108q39 -18 80 -36.5t83.5 -33t86.5 -23.5t88 -9q147 0 222 60.5t75 175.5q0 35 -15.5 71t-42.5 74.5t-63.5 79.5t-77.5 86l-178 194q-68 83 -114 142t-73.5 105t-39 84.5t-11.5 80.5
q0 81 33 134.5t87 85.5t122 45.5t139 13.5zM692 1860l-280 -293h-74l111 293h243z" />
    <glyph glyph-name="sacute" unicode="&#x15b;" horiz-adv-x="813" 
d="M437 961q42 0 73 -3.5t58.5 -10.5t54.5 -16l60 -20l-2 -88q-47 17 -99.5 30t-123.5 13q-15 0 -36 -4t-40 -13.5t-32 -25.5t-13 -39q0 -26 23.5 -63t74.5 -92l107 -121q34 -39 67.5 -75.5t59.5 -71.5t42.5 -69.5t16.5 -68.5q0 -66 -30 -112t-78 -75.5t-108.5 -42.5
t-121.5 -13q-85 0 -150.5 18.5t-123.5 52.5l8 90q46 -24 100 -44.5t111 -20.5q94 0 141 33t47 96q0 44 -36.5 92t-90.5 106l-106 119q-42 53 -71.5 89t-47.5 64t-26.5 53t-8.5 56q0 51 23.5 85t64 54.5t95.5 29t118 8.5zM352 1317h233l-264 -293h-94z" />
    <glyph glyph-name="Scedilla" unicode="&#x15e;" 
d="M504 1518q66 0 115.5 -6t93 -16.5t86.5 -24.5t96 -31l-4 -105q-38 13 -77 25t-81.5 21t-90.5 14.5t-103 5.5q-25 0 -58 -8t-63 -27t-51 -50t-21 -77q0 -43 34 -100.5t114 -143.5l176 -190q58 -60 111.5 -118.5t93.5 -115t64 -112t24 -109.5q0 -105 -38.5 -178.5
t-100 -119t-139.5 -66.5t-156 -21q-68 0 -127 7.5t-112.5 22t-102.5 36t-97 49.5l13 108q39 -18 80 -36.5t83.5 -33t86.5 -23.5t88 -9q147 0 222 60.5t75 175.5q0 35 -15.5 71t-42.5 74.5t-63.5 79.5t-77.5 86l-178 194q-68 83 -114 142t-73.5 105t-39 84.5t-11.5 80.5
q0 81 33 134.5t87 85.5t122 45.5t139 13.5zM480 60v-121q52 0 90 -14t63 -37.5t37.5 -53t12.5 -59.5q0 -49 -32.5 -85.5t-82 -61t-109 -36.5t-112.5 -12v53q33 4 67 13t61.5 25.5t44.5 42.5t17 64q0 20 -7 39.5t-24 34.5t-45 24.5t-70 9.5v174h89z" />
    <glyph glyph-name="scedilla" unicode="&#x15f;" horiz-adv-x="813" 
d="M437 961q42 0 73 -3.5t58.5 -10.5t54.5 -16l60 -20l-2 -88q-47 17 -99.5 30t-123.5 13q-15 0 -36 -4t-40 -13.5t-32 -25.5t-13 -39q0 -26 23.5 -63t74.5 -92l107 -121q34 -39 67.5 -75.5t59.5 -71.5t42.5 -69.5t16.5 -68.5q0 -66 -30 -112t-78 -75.5t-108.5 -42.5
t-121.5 -13q-85 0 -150.5 18.5t-123.5 52.5l8 90q46 -24 100 -44.5t111 -20.5q94 0 141 33t47 96q0 44 -36.5 92t-90.5 106l-106 119q-42 53 -71.5 89t-47.5 64t-26.5 53t-8.5 56q0 51 23.5 85t64 54.5t95.5 29t118 8.5zM371 60v-121q52 0 90 -14t63 -37.5t37.5 -53
t12.5 -59.5q0 -49 -32.5 -85.5t-82 -61t-109 -36.5t-112.5 -12v53q33 4 67 13t61.5 25.5t44.5 42.5t17 64q0 20 -7 39.5t-24 34.5t-45 24.5t-70 9.5v174h89z" />
    <glyph glyph-name="Scaron" unicode="&#x160;" horiz-adv-x="981" 
d="M460 1518q66 0 115.5 -6t93 -16.5t86.5 -24.5t96 -31l-4 -105q-38 13 -77 25t-81.5 21t-90.5 14.5t-103 5.5q-25 0 -58 -8t-63 -27t-51 -50t-21 -77q0 -43 34 -100.5t114 -143.5l176 -190q58 -60 111.5 -118.5t93.5 -115t64 -112t24 -109.5q0 -105 -38.5 -178.5
t-100 -119t-139.5 -66.5t-156 -21q-68 0 -127 7.5t-112.5 22t-102.5 36t-97 49.5l13 108q39 -18 80 -36.5t83.5 -33t86.5 -23.5t88 -9q147 0 222 60.5t75 175.5q0 35 -15.5 71t-42.5 74.5t-63.5 79.5t-77.5 86l-178 194q-68 83 -114 142t-73.5 105t-39 84.5t-11.5 80.5
q0 81 33 134.5t87 85.5t122 45.5t139 13.5zM597 1569h-234l-182 293h101l198 -197l199 197h100z" />
    <glyph glyph-name="scaron" unicode="&#x161;" horiz-adv-x="798" 
d="M395 961q42 0 73 -3.5t58.5 -10.5t54.5 -16l60 -20l-2 -88q-47 17 -99.5 30t-123.5 13q-15 0 -36 -4t-40 -13.5t-32 -25.5t-13 -39q0 -26 23.5 -63t74.5 -92l107 -121q34 -39 67.5 -75.5t59.5 -71.5t42.5 -69.5t16.5 -68.5q0 -66 -30 -112t-78 -75.5t-108.5 -42.5
t-121.5 -13q-85 0 -150.5 18.5t-123.5 52.5l8 90q46 -24 100 -44.5t111 -20.5q94 0 141 33t47 96q0 44 -36.5 92t-90.5 106l-106 119q-42 53 -71.5 89t-47.5 64t-26.5 53t-8.5 56q0 51 23.5 85t64 54.5t95.5 29t118 8.5zM521 1024h-234l-182 293h101l198 -197l199 197h100z
" />
    <glyph glyph-name="Tcommaaccent" unicode="&#x162;" horiz-adv-x="971" 
d="M956 1487v-98h-360v-1389h-219v1389h-363v98h942zM343 -59h160v-154q0 -193 -160 -221v76q41 14 58.5 40.5t17.5 86.5h-76v172z" />
    <glyph glyph-name="tcommaaccent" unicode="&#x163;" horiz-adv-x="497" 
d="M478 852h-135v-852h-192v852h-130v90h130v307l192 58v-365h135v-90zM107 -59h160v-154q0 -193 -160 -221v76q41 14 58.5 40.5t17.5 86.5h-76v172z" />
    <glyph glyph-name="Tcaron" unicode="&#x164;" horiz-adv-x="971" 
d="M956 1487v-98h-360v-1389h-219v1389h-363v98h942zM602 1569h-234l-182 293h101l198 -197l199 197h100z" />
    <glyph glyph-name="tcaron" unicode="&#x165;" horiz-adv-x="732" 
d="M489 852h-135v-852h-192v852h-130v90h130v307l192 58v-365h135v-90zM505 1487h203v-160q0 -41 -15 -72.5t-41 -54t-61 -34t-75 -11.5h-99v90q29 0 46.5 1.5t26.5 9.5t12 24.5t3 46.5v160z" />
    <glyph glyph-name="umacron" unicode="&#x16b;" horiz-adv-x="975" 
d="M674 78q-65 -28 -119 -46.5t-100.5 -29.5t-87.5 -15.5t-78 -4.5q-94 0 -143.5 48.5t-49.5 157.5v754h203v-723q0 -23 4.5 -45.5t16 -40.5t31.5 -29.5t52 -11.5q51 0 118.5 12.5t152.5 51.5v786h202v-942h-202v78zM187 1280h604v-102h-604v102z" />
    <glyph glyph-name="Uring" unicode="&#x16e;" horiz-adv-x="1455" 
d="M1071 1487h219v-1487h-219v117l-244 -82q-50 -17 -101 -29t-99 -20t-91 -11.5t-76 -3.5q-71 0 -121 15.5t-83 40t-52 54.5t-28.5 58t-12 51.5t-2.5 34.5v1262h220v-1176q0 -19 4 -53.5t23 -68t59 -58.5t112 -25q59 0 115 6t114.5 18t122.5 30.5t140 44.5v1282zM727 1891
q45 0 82.5 -13t63.5 -36t40.5 -54t14.5 -67t-14.5 -66.5t-40.5 -53t-63.5 -35.5t-82.5 -13t-82.5 13t-63.5 35.5t-40.5 53t-14.5 66.5t14.5 67t41 54t63.5 36t82 13zM727 1835q-20 0 -36.5 -9t-28.5 -24t-18.5 -35.5t-6.5 -43.5t6.5 -44t18.5 -37t28.5 -25t36.5 -9
q21 0 37.5 9t28 25t18 37t6.5 44q0 46 -24 79t-66 33z" />
    <glyph glyph-name="uring" unicode="&#x16f;" horiz-adv-x="1006" 
d="M689 78q-65 -28 -119 -46.5t-100.5 -29.5t-87.5 -15.5t-78 -4.5q-94 0 -143.5 48.5t-49.5 157.5v754h203v-723q0 -23 4.5 -45.5t16 -40.5t31.5 -29.5t52 -11.5q51 0 118.5 12.5t152.5 51.5v786h202v-942h-202v78zM504 1346q45 0 82.5 -13t63.5 -36t40.5 -54t14.5 -67
t-14.5 -66.5t-40.5 -53t-63.5 -35.5t-82.5 -13t-82.5 13t-63.5 35.5t-40.5 53t-14.5 66.5t14.5 67t41 54t63.5 36t82 13zM504 1290q-20 0 -36.5 -9t-28.5 -24t-18.5 -35.5t-6.5 -43.5t6.5 -44t18.5 -37t28.5 -25t36.5 -9q21 0 37.5 9t28 25t18 37t6.5 44q0 46 -24 79t-66 33
z" />
    <glyph glyph-name="Uhungarumlaut" unicode="&#x170;" horiz-adv-x="1455" 
d="M1071 1487h219v-1487h-219v117l-244 -82q-50 -17 -101 -29t-99 -20t-91 -11.5t-76 -3.5q-71 0 -121 15.5t-83 40t-52 54.5t-28.5 58t-12 51.5t-2.5 34.5v1262h220v-1176q0 -19 4 -53.5t23 -68t59 -58.5t112 -25q59 0 115 6t114.5 18t122.5 30.5t140 44.5v1282zM517 1862
h233l-264 -293h-94zM829 1862h233l-264 -293h-94z" />
    <glyph glyph-name="uhungarumlaut" unicode="&#x171;" horiz-adv-x="1111" 
d="M741 78q-65 -28 -119 -46.5t-100.5 -29.5t-87.5 -15.5t-78 -4.5q-94 0 -143.5 48.5t-49.5 157.5v754h203v-723q0 -23 4.5 -45.5t16 -40.5t31.5 -29.5t52 -11.5q51 0 118.5 12.5t152.5 51.5v786h202v-942h-202v78zM345 1317h233l-264 -293h-94zM657 1317h233l-264 -293
h-94z" />
    <glyph glyph-name="Ydieresis" unicode="&#x178;" horiz-adv-x="1115" 
d="M479 676l-473 811h256l371 -670l348 670h121l-412 -799v-688h-211v676zM491 1630h-191v139h191v-139zM822 1630h-190v139h190v-139z" />
    <glyph glyph-name="Zacute" unicode="&#x179;" horiz-adv-x="1155" 
d="M1142 1487l-823 -1389h811v-98h-1114l821 1389h-727v98h1032zM897 1860l-280 -293h-74l111 293h243z" />
    <glyph glyph-name="zacute" unicode="&#x17a;" horiz-adv-x="918" 
d="M333 90h506v-90h-779l508 852h-424v90h695zM405 1317h233l-264 -293h-94z" />
    <glyph glyph-name="Zdotaccent" unicode="&#x17b;" horiz-adv-x="1201" 
d="M1160 1487l-823 -1389h811v-98h-1114l821 1389h-727v98h1032zM695 1709h-190v139h190v-139z" />
    <glyph glyph-name="zdotaccent" unicode="&#x17c;" horiz-adv-x="918" 
d="M333 90h506v-90h-779l508 852h-424v90h695zM554 1164h-190v139h190v-139z" />
    <glyph glyph-name="Zcaron" unicode="&#x17d;" horiz-adv-x="1186" 
d="M1171 1487l-823 -1389h811v-98h-1114l821 1389h-727v98h1032zM744 1569h-234l-182 293h101l198 -197l199 197h100z" />
    <glyph glyph-name="zcaron" unicode="&#x17e;" horiz-adv-x="894" 
d="M345 90h506v-90h-779l508 852h-424v90h695zM596 1024h-234l-182 293h101l198 -197l199 197h100z" />
    <glyph glyph-name="florin" unicode="&#x192;" horiz-adv-x="580" 
d="M390 -368q-3 -42 -18.5 -74.5t-41 -54t-59 -32.5t-69.5 -11h-181v90q57 0 90.5 2t51.5 11t23 26t5 47l4 1216h-129v90h129v373q3 42 18.5 74t41 54t59.5 33t74 11h170v-90q-57 0 -90.5 -2t-51.5 -11t-23 -26t-5 -47v-369h125v-90h-125z" />
    <glyph glyph-name="uni01B7" unicode="&#x1b7;" horiz-adv-x="1248" 
d="M457 919l339 368h-673v200h1027l-490 -532q20 2 38.5 3t35.5 1q80 0 155 -27.5t133 -79.5t93 -127t35 -170q0 -113 -35.5 -205t-97 -161.5t-144 -115t-176.5 -64.5t-194 -10t-197 48q-58 25 -109.5 59t-98.5 76v191q77 -81 167 -134.5t179.5 -76.5t173 -13.5t147.5 54.5
t102.5 127.5t38.5 205.5q0 66 -22 121t-61 94t-92 60.5t-114 21.5q-47 0 -73 -4t-47 -8z" />
    <glyph glyph-name="AEacute" unicode="&#x1fc;" horiz-adv-x="1988" 
d="M1944 1395h-752v-457h752v-90h-752v-758h752v-90h-971v193h-682l-112 -193h-142l877 1487h1030v-92zM973 285v1065l-626 -1065h626zM1443 1860l-280 -293h-74l111 293h243z" />
    <glyph glyph-name="Scommaaccent" unicode="&#x218;" 
d="M504 1518q66 0 115.5 -6t93 -16.5t86.5 -24.5t96 -31l-4 -105q-38 13 -77 25t-81.5 21t-90.5 14.5t-103 5.5q-25 0 -58 -8t-63 -27t-51 -50t-21 -77q0 -43 34 -100.5t114 -143.5l176 -190q58 -60 111.5 -118.5t93.5 -115t64 -112t24 -109.5q0 -105 -38.5 -178.5
t-100 -119t-139.5 -66.5t-156 -21q-68 0 -127 7.5t-112.5 22t-102.5 36t-97 49.5l13 108q39 -18 80 -36.5t83.5 -33t86.5 -23.5t88 -9q147 0 222 60.5t75 175.5q0 35 -15.5 71t-42.5 74.5t-63.5 79.5t-77.5 86l-178 194q-68 83 -114 142t-73.5 105t-39 84.5t-11.5 80.5
q0 81 33 134.5t87 85.5t122 45.5t139 13.5z" />
    <glyph glyph-name="uni0292" unicode="&#x292;" horiz-adv-x="823" 
d="M208 501l234 287h-366v156h672l-363 -414l25 -12q25 -6 54 -13q63 -11 120.5 -37t100.5 -64.5t68.5 -89t25.5 -111.5q0 -74 -25.5 -138.5t-69.5 -120.5t-104 -104t-129 -89t-144.5 -75.5t-150.5 -62.5l-33 88q98 43 180 96.5t141 116.5t92 135.5t33 153.5
q0 78 -27.5 127.5t-74.5 77.5t-109 38l-13 2z" />
    <glyph glyph-name="uni02BB" unicode="&#x2bb;" horiz-adv-x="489" 
d="M328 1155h-203v160q0 40 15 72t41.5 54.5t61.5 34t75 11.5h98v-90q-29 0 -46.5 -1.5t-26.5 -9.5t-12 -24.5t-3 -46.5v-160z" />
    <glyph glyph-name="uni02BC" unicode="&#x2bc;" horiz-adv-x="491" 
d="M164 1487h203v-160q0 -40 -15 -72t-41.5 -54.5t-61.5 -34t-75 -11.5h-98v90q29 0 46.5 1.5t26.5 9.5t12 24.5t3 46.5v160z" />
    <glyph glyph-name="uni02BD" unicode="&#x2bd;" horiz-adv-x="493" 
d="M326 1327q0 -30 3 -46.5t12 -24.5t26.5 -9.5t46.5 -1.5v-90h-98q-40 0 -75 11.5t-61.5 34t-41.5 54.5t-15 72v160h203v-160z" />
    <glyph glyph-name="circumflex" unicode="&#x2c6;" horiz-adv-x="744" 
d="M256 1317h233l182 -293h-100l-199 197l-198 -197h-101z" />
    <glyph glyph-name="caron" unicode="&#x2c7;" horiz-adv-x="736" 
d="M485 1024h-234l-182 293h101l198 -197l199 197h100z" />
    <glyph glyph-name="uni02C9" unicode="&#x2c9;" horiz-adv-x="941" 
d="M167 1280h604v-102h-604v102z" />
    <glyph glyph-name="breve" unicode="&#x2d8;" horiz-adv-x="614" 
d="M31 1382h114q27 -139 164 -139q140 0 164 139h115q0 -137 -71 -205.5t-200 -68.5q-143 0 -214.5 66.5t-71.5 207.5z" />
    <glyph glyph-name="dotaccent" unicode="&#x2d9;" horiz-adv-x="385" 
d="M296 1164h-190v139h190v-139z" />
    <glyph glyph-name="ring" unicode="&#x2da;" horiz-adv-x="611" 
d="M307 1346q45 0 82.5 -13t63.5 -36t40.5 -54t14.5 -67t-14.5 -66.5t-40.5 -53t-63.5 -35.5t-82.5 -13t-82.5 13t-63.5 35.5t-40.5 53t-14.5 66.5t14.5 67t41 54t63.5 36t82 13zM307 1290q-20 0 -36.5 -9t-28.5 -24t-18.5 -35.5t-6.5 -43.5t6.5 -44t18.5 -37t28.5 -25
t36.5 -9q21 0 37.5 9t28 25t18 37t6.5 44q0 46 -24 79t-66 33z" />
    <glyph glyph-name="ogonek" unicode="&#x2db;" horiz-adv-x="614" 
d="M295 2h127q-137 -70 -137 -152q0 -38 28.5 -60.5t73.5 -22.5t86 18v-125q-59 -20 -129 -20q-88 0 -144.5 47t-56.5 125q0 108 152 190z" />
    <glyph glyph-name="tilde" unicode="&#x2dc;" horiz-adv-x="865" 
d="M385 1114q-29 16 -54.5 27.5t-54.5 11.5q-37 0 -55.5 -25t-18.5 -82h-69q0 117 47 174t123 57q18 0 36 -4t35.5 -10.5t33.5 -14t30 -14.5l47 -24q30 -16 55.5 -27.5t50.5 -11.5q38 0 56 25.5t18 80.5h70q0 -115 -47.5 -173t-122.5 -58q-37 1 -69.5 13t-61.5 28z" />
    <glyph glyph-name="hungarumlaut" unicode="&#x2dd;" horiz-adv-x="846" 
d="M187 1317h233l-264 -293h-94zM499 1317h233l-264 -293h-94z" />
    <glyph glyph-name="uni0401" unicode="&#x401;" horiz-adv-x="1048" 
d="M1046 1487v-98h-691v-451h670v-98h-670v-742h691v-98h-910v1487h910zM534 1585h-191v139h191v-139zM865 1585h-190v139h190v-139z" />
    <glyph glyph-name="afii10051" unicode="&#x402;" horiz-adv-x="1523" 
d="M1231 567q0 101 -15 161.5t-61 88.5q-23 15 -54.5 21.5t-74.5 6.5q-37 0 -85.5 -8.5t-102.5 -23.5t-111.5 -35.5t-111.5 -44.5v-733h-212v1366h-397v121h1002v-121h-393v-527q60 25 125 49t131 43t132 30.5t128 11.5q79 0 137.5 -17.5t97.5 -59t58 -111.5t19 -175v-406
q0 -92 -15.5 -170.5t-56 -144.5t-110.5 -120t-178 -96l-45 87q72 52 111 110t57 115t21.5 110t3.5 94v378z" />
    <glyph glyph-name="afii10052" unicode="&#x403;" horiz-adv-x="1011" 
d="M106 1487h905v-121h-693v-1366h-212v1487zM385 1614l167 281h219l-260 -281h-126z" />
    <glyph glyph-name="uni0404" unicode="&#x404;" horiz-adv-x="1613" 
d="M1189 716h-843q4 -141 54 -255.5t130.5 -195t184.5 -124.5t215 -44q89 0 162 22.5t134.5 61t115 90t103.5 110.5l89 -58q-53 -75 -119.5 -139.5t-148 -112t-178 -74.5t-209.5 -27q-162 0 -304 57t-248.5 159t-168 243t-61.5 310q0 114 26.5 215.5t76 188t119 155.5
t156.5 117.5t189 74.5t215 26q98 0 190.5 -22t176.5 -60t157 -90.5t131 -113.5l-79 -75q-42 46 -100 90t-126 79t-144 56.5t-155 21.5q-119 0 -219 -41.5t-175 -116t-122 -178.5t-61 -229h836v-121z" />
    <glyph glyph-name="uni0405" unicode="&#x405;" 
d="M504 1518q66 0 115.5 -6t93 -16.5t86.5 -24.5t96 -31l-4 -105q-38 13 -77 25t-81.5 21t-90.5 14.5t-103 5.5q-25 0 -58 -8t-63 -27t-51 -50t-21 -77q0 -43 34 -100.5t114 -143.5l176 -190q58 -60 111.5 -118.5t93.5 -115t64 -112t24 -109.5q0 -105 -38.5 -178.5
t-100 -119t-139.5 -66.5t-156 -21q-68 0 -127 7.5t-112.5 22t-102.5 36t-97 49.5l13 108q39 -18 80 -36.5t83.5 -33t86.5 -23.5t88 -9q147 0 222 60.5t75 175.5q0 35 -15.5 71t-42.5 74.5t-63.5 79.5t-77.5 86l-178 194q-68 83 -114 142t-73.5 105t-39 84.5t-11.5 80.5
q0 81 33 134.5t87 85.5t122 45.5t139 13.5z" />
    <glyph glyph-name="uni0406" unicode="&#x406;" horiz-adv-x="561" 
d="M387 0h-220v1487h220v-1487z" />
    <glyph glyph-name="uni0407" unicode="&#x407;" horiz-adv-x="551" 
d="M385 0h-220v1487h220v-1487zM206 1691h-191v139h191v-139zM537 1691h-190v139h190v-139z" />
    <glyph glyph-name="uni0408" unicode="&#x408;" horiz-adv-x="722" 
d="M375 1389h-295v98h514v-1233q0 -149 -36 -258.5t-106 -187t-174 -126.5t-239 -77l-34 86q60 15 123.5 41t116.5 65.5t89 94.5t41 128v1369z" />
    <glyph glyph-name="afii10058" unicode="&#x409;" horiz-adv-x="2075" 
d="M973 0v1374h-481q0 -91 -5 -195.5t-14.5 -214t-24 -221t-33 -216t-42 -199t-50.5 -170.5q-32 -86 -73.5 -122t-102.5 -36h-30v242q29 0 48 5.5t32 15t21 22.5t14 27q45 113 74 252t46.5 292t24 314t6.5 317h802v-533h270q113 0 215 -33.5t179 -95t122 -150t45 -197.5
q0 -119 -43 -208.5t-118.5 -149.5t-178 -90t-221.5 -30h-482zM1185 106h215q182 0 276.5 92.5t94.5 277.5q0 94 -34.5 172t-101.5 130q-41 30 -91.5 44.5t-108.5 20t-121.5 5t-128.5 -0.5v-741z" />
    <glyph glyph-name="afii10059" unicode="&#x40a;" horiz-adv-x="2175" 
d="M1072 0v822h-693v-822h-212v1487h212v-544h693v544h213v-533h269q113 0 214.5 -33.5t178.5 -95t122 -150t45 -197.5q0 -119 -42.5 -208.5t-117.5 -149.5t-177.5 -90t-222.5 -30h-482zM1285 106h213q183 0 278 92.5t95 277.5q0 94 -34.5 172t-101.5 130q-41 30 -92 44.5
t-108.5 20t-121 5t-128.5 -0.5v-741z" />
    <glyph glyph-name="afii10060" unicode="&#x40b;" horiz-adv-x="1565" 
d="M1271 0v567q0 101 -15 161.5t-61 88.5q-23 15 -54.5 21.5t-74.5 6.5q-37 0 -85.5 -8.5t-102.5 -23.5t-111.5 -35.5t-111.5 -44.5v-733h-212v1366h-397v121h1002v-121h-393v-527q60 25 125 49t131 43t132 30.5t128 11.5q79 0 137.5 -17.5t97.5 -59t58 -111.5t19 -175v-610
h-212z" />
    <glyph glyph-name="afii10061" unicode="&#x40c;" horiz-adv-x="1198" 
d="M323 1487v-542h203l435 542h157l-414 -529l467 -958h-234l-407 824h-207v-824h-212v1487h212zM411 1614l167 281h219l-259 -281h-127z" />
    <glyph glyph-name="afii10062" unicode="&#x40e;" horiz-adv-x="1217" 
d="M287 1487l439 -765l331 765h140l-671 -1487h-140l221 482l-590 1005h270zM448 1890q0 -40 13 -73.5t40.5 -57.5t69.5 -37.5t100 -13.5t100 13.5t69.5 37.5t40.5 57.5t13 73.5h165q0 -66 -30 -117.5t-82.5 -86.5t-123 -53.5t-152.5 -18.5q-118 0 -211 37t-139 108
q-38 56 -38 131h165z" />
    <glyph glyph-name="afii10145" unicode="&#x40f;" horiz-adv-x="1381" 
d="M343 1487v-1366h693v1366h213v-1487h-492v-237h-134v237h-492v1487h212z" />
    <glyph glyph-name="uni0410" unicode="&#x410;" horiz-adv-x="1404" 
d="M1370 0h-231l-82 193h-813l-80 -193h-121l545 1296l-80 191h234zM285 291h731l-369 864z" />
    <glyph glyph-name="afii10018" unicode="&#x411;" horiz-adv-x="1262" 
d="M167 0v1487h905v-121h-693v-412h270q113 0 215 -33.5t179 -95t122 -150t45 -197.5q0 -119 -43 -208.5t-118.5 -149.5t-178 -90t-221.5 -30h-482zM965 476q0 32 -6 76q-9 54 -31.5 101.5t-57.5 85.5q-45 49 -101.5 72t-120 31t-132 6.5t-137.5 -1.5v-741q72 0 142.5 -1
t134 6.5t118.5 27t96 61.5q11 11 22 23.5t20 27.5q28 43 40.5 99.5t12.5 125.5z" />
    <glyph glyph-name="uni0412" unicode="&#x412;" horiz-adv-x="1303" 
d="M167 0v1487h465q120 0 206.5 -22t142 -63t82 -99t26.5 -129q0 -47 -17 -92t-56 -82.5t-104 -65t-161 -39.5v-2q236 -34 348.5 -148.5t112.5 -300.5q0 -93 -30 -174t-97.5 -141t-176.5 -94.5t-268 -34.5h-473zM386 840v-742h197q93 0 165 24t120.5 70t74 112t25.5 149
q0 100 -36.5 173.5t-104 120.5t-163.5 70t-214 23h-64zM386 1389v-451h150q69 0 128 12.5t102.5 40t68.5 72.5t25 111q0 61 -22.5 102.5t-64.5 66.5t-102 35.5t-135 10.5h-150z" />
    <glyph glyph-name="afii10020" unicode="&#x413;" horiz-adv-x="1072" 
d="M167 1487h905v-121h-693v-1366h-212v1487z" />
    <glyph glyph-name="afii10021" unicode="&#x414;" horiz-adv-x="1512" 
d="M89 -237v339h105q54 123 92 284t62 342.5t35.5 375t11.5 383.5h823v-1385h174v-339h-134v237h-1033v-237h-136zM1005 102v1272h-500q0 -104 -6.5 -220t-18.5 -234.5t-28.5 -236t-37 -224t-44 -198t-48.5 -159.5h683z" />
    <glyph glyph-name="uni0415" unicode="&#x415;" horiz-adv-x="1080" 
d="M1077 1487v-98h-691v-451h670v-98h-670v-742h691v-98h-910v1487h910z" />
    <glyph glyph-name="afii10024" unicode="&#x416;" horiz-adv-x="1951" 
d="M1082 824v-824h-213v824h-185l-323 -824h-233l395 960l-341 527h156l351 -542h180v542h213v-542h180l351 542h154l-340 -525l395 -962h-233l-323 824h-184z" />
    <glyph glyph-name="afii10025" unicode="&#x417;" horiz-adv-x="1305" 
d="M892 1189q0 37 -11 71.5t-38 66.5q-42 42 -96 55.5t-115 13.5q-106 0 -205.5 -37.5t-182.5 -101.5l-66 91q45 35 100.5 66t118.5 53.5t132.5 35.5t143.5 13q52 0 103 -7t98 -21.5t88 -37.5t73 -54q38 -39 58.5 -87t20.5 -103t-19 -101.5t-52.5 -84t-80 -66.5t-100.5 -48
l-44 -12q23 -5 44.5 -11t42.5 -14q146 -57 224.5 -161.5t78.5 -249.5q0 -75 -19.5 -139t-54.5 -117q-39 -57 -95 -100.5t-125 -73t-148.5 -44t-166.5 -14.5q-81 0 -157 20.5t-144 57t-126.5 88.5t-103.5 115l76 80q35 -39 80.5 -80.5t101.5 -75.5t123.5 -56t147.5 -22
q63 0 122 14.5t101 40.5q68 47 106 120t38 184q0 85 -19 147t-53 105.5t-82 70.5t-106 42t-125 20.5t-138 5.5v107q112 0 197 8.5t141 34t84.5 71.5t28.5 121z" />
    <glyph glyph-name="afii10026" unicode="&#x418;" horiz-adv-x="1537" 
d="M167 1487h212v-1092l778 912v180h212v-1487h-212v1109l-778 -912v-197h-212v1487z" />
    <glyph glyph-name="afii10027" unicode="&#x419;" horiz-adv-x="1460" 
d="M341 395l778 912v180h212v-1487h-212v1109l-778 -912v-197h-212v1487h212v-1092zM507 1890q0 -40 13 -73.5t40.5 -57.5t69.5 -37.5t100 -13.5t100 13.5t69.5 37.5t40.5 57.5t13 73.5h166q0 -66 -30 -117.5t-82.5 -86.5t-123.5 -53.5t-153 -18.5q-118 0 -211 37t-139 108
q-39 57 -39 131h166z" />
    <glyph glyph-name="afii10028" unicode="&#x41a;" horiz-adv-x="1330" 
d="M380 1487v-541h202l436 541h157l-414 -528l467 -959h-234l-408 825h-206v-825h-213v1487h213z" />
    <glyph glyph-name="afii10029" unicode="&#x41b;" horiz-adv-x="1321" 
d="M84 0v242q29 0 48 5.5t32 15t21 22.5t14 27q45 113 74 252t46.5 292t24 314t6.5 317h802v-1487h-212v1374h-481q0 -91 -5 -195.5t-14.5 -214t-24 -221t-33 -216t-42 -199t-50.5 -170.5q-32 -86 -73.5 -122t-102.5 -36h-30z" />
    <glyph glyph-name="uni041C" unicode="&#x41c;" horiz-adv-x="1746" 
d="M894 889l465 536v62h219v-1487h-219v1272l-525 -606l-522 608v-1274h-102v1393l-80 94h256z" />
    <glyph glyph-name="uni041D" unicode="&#x41d;" horiz-adv-x="1444" 
d="M1276 0h-219v840h-671v-840h-219v1487h219v-549h671v549h219v-1487z" />
    <glyph glyph-name="uni041E" unicode="&#x41e;" horiz-adv-x="1786" 
d="M895 -29q-110 0 -211.5 28t-190 78.5t-161 121.5t-124.5 157.5t-80.5 186t-28.5 207.5q0 106 28.5 205t80.5 185t124.5 157t161 121t190 78t211.5 28q109 0 210 -27.5t189 -78t160.5 -121.5t124 -157t80 -185t28.5 -205q0 -108 -28.5 -207.5t-80 -186t-124 -157.5
t-160.5 -121.5t-189 -78.5t-210 -28zM895 68q136 0 240.5 53t175.5 145t107.5 216.5t36.5 267.5q0 142 -36 266t-106.5 215t-175.5 143.5t-242 52.5q-139 0 -243.5 -52.5t-175 -143.5t-106 -215t-35.5 -266q0 -143 36 -267.5t106.5 -216.5t175.5 -145t242 -53z" />
    <glyph glyph-name="afii10033" unicode="&#x41f;" horiz-adv-x="1453" 
d="M167 0v1487h1118v-1487h-213v1366h-693v-1366h-212z" />
    <glyph glyph-name="uni0420" unicode="&#x420;" horiz-adv-x="1249" 
d="M386 391v-391h-219v1487h372q157 0 269 -26.5t188 -70.5t122 -101.5t70 -119t31.5 -123t7.5 -114.5q0 -52 -8.5 -112.5t-34 -120.5t-72 -115.5t-123 -98.5t-187 -68.5t-263.5 -25.5h-153zM386 1389v-900h123q111 0 201 25t153.5 80t97.5 140.5t34 207.5q0 93 -17.5 162.5
t-49.5 119t-76.5 81.5t-98 51t-114.5 26t-126 7h-127z" />
    <glyph glyph-name="uni0421" unicode="&#x421;" horiz-adv-x="1595" 
d="M889 1518q174 0 322.5 -56.5t263.5 -156.5l-56 -74q-46 39 -102 73t-118 58.5t-129 39t-135 14.5q-146 0 -259 -53t-190 -145t-117 -215t-40 -264q0 -138 39.5 -260t116 -214t189.5 -145.5t259 -53.5q70 0 142 14t139 41t126.5 66t105.5 89l57 -73q-118 -112 -274 -175
t-340 -63q-111 0 -213 27.5t-190.5 78.5t-161 121.5t-124 156.5t-80 184.5t-28.5 205.5t28.5 207t80 186.5t124 157.5t161 121.5t190.5 78.5t213 28z" />
    <glyph glyph-name="uni0422" unicode="&#x422;" horiz-adv-x="971" 
d="M956 1487v-98h-360v-1389h-219v1389h-363v98h942z" />
    <glyph glyph-name="afii10037" unicode="&#x423;" horiz-adv-x="1241" 
d="M312 1487l439 -765l331 765h140l-671 -1487h-140l221 482l-590 1005h270z" />
    <glyph glyph-name="afii10038" unicode="&#x424;" horiz-adv-x="1735" 
d="M975 1311h110q121 0 226.5 -40.5t184.5 -114t124.5 -177t45.5 -229.5q0 -135 -43 -239.5t-120 -176.5t-184 -109.5t-234 -37.5h-110v-187h-213v187h-111q-127 0 -234 37.5t-184 109.5t-120.5 176.5t-43.5 239.5q0 126 45.5 229.5t124.5 177t185 114t227 40.5h111v176h213
v-176zM975 1204v-911h55q99 0 172.5 30.5t122.5 89t73.5 143t24.5 192.5q0 94 -24.5 177t-73.5 145t-122.5 98t-172.5 36h-55zM314 748q0 -108 24.5 -192.5t73.5 -143t122.5 -89t172.5 -30.5h55v911h-55q-99 0 -172.5 -36t-122.5 -98t-73.5 -145t-24.5 -177z" />
    <glyph glyph-name="uni0425" unicode="&#x425;" horiz-adv-x="1465" 
d="M757 928l370 559h125l-432 -653l553 -834h-270l-428 653l-430 -653h-125l493 750l-481 737h258z" />
    <glyph glyph-name="afii10040" unicode="&#x426;" horiz-adv-x="1487" 
d="M98 1487h212v-1385h671v1385h213v-1385h174v-339h-134v237h-1136v1487z" />
    <glyph glyph-name="afii10041" unicode="&#x427;" horiz-adv-x="1239" 
d="M242 1487v-567q0 -101 15 -161.5t61 -89.5q46 -28 130 -28q37 0 85.5 9t102.5 24t111 35.5t111 44.5v733h212v-1487h-212v648q-60 -26 -124.5 -50t-131 -42.5t-132.5 -30t-128 -11.5q-79 0 -137.5 17t-97.5 59t-58 112t-19 175v610h212z" />
    <glyph glyph-name="afii10042" unicode="&#x428;" horiz-adv-x="2059" 
d="M1135 1487v-1385h544v1385h212v-1487h-1724v1487h212v-1385h544v1385h212z" />
    <glyph glyph-name="afii10043" unicode="&#x429;" horiz-adv-x="2129" 
d="M308 102h544v1385h212v-1385h544v1385h212v-1385h175v-339h-134v237h-1765v1487h212v-1385z" />
    <glyph glyph-name="afii10044" unicode="&#x42a;" horiz-adv-x="1491" 
d="M413 0v454v912h-361v121h574v-533h270q113 0 214.5 -33.5t178.5 -95t122.5 -150t45.5 -197.5q0 -119 -43 -208.5t-118.5 -149.5t-178 -90t-221.5 -30h-483zM1212 476q0 69 -22 137.5t-74 125.5q-45 49 -101.5 72t-119.5 31t-131.5 6.5t-137.5 -1.5v-371v-370
q72 0 142.5 -1t134 6.5t118 27t95.5 61.5q11 11 22.5 23.5t20.5 27.5q27 43 40 99.5t13 125.5z" />
    <glyph glyph-name="afii10045" unicode="&#x42b;" horiz-adv-x="1680" 
d="M379 954h207q113 0 215 -33.5t178.5 -95t121.5 -150t45 -197.5q0 -119 -43 -208.5t-118 -149.5t-177.5 -90t-221.5 -30h-419v1487h212v-533zM379 847v-741h152q182 0 276.5 92.5t94.5 277.5q0 78 -24 145.5t-71 117.5t-116.5 79t-159.5 29h-152zM1512 0h-213v1487h213
v-1487z" />
    <glyph glyph-name="afii10046" unicode="&#x42c;" horiz-adv-x="1221" 
d="M167 0v1487h212v-533h270q113 0 215 -33.5t179 -95t122 -150t45 -197.5q0 -119 -43 -208.5t-118.5 -149.5t-178 -90t-221.5 -30h-482zM379 106h215q183 0 277 92.5t94 277.5q0 94 -34 172t-102 130q-40 30 -91 44.5t-108.5 20t-121 5t-129.5 -0.5v-741z" />
    <glyph glyph-name="afii10047" unicode="&#x42d;" horiz-adv-x="1613" 
d="M424 837h836q-14 125 -61 229t-122 178.5t-175 116t-219 41.5q-79 0 -155 -21.5t-144 -56.5t-126 -79t-100 -90l-79 75q58 61 131 113.5t157 90.5t176.5 60t190.5 22q113 0 215 -26t189 -74.5t156.5 -117.5t119 -155.5t76 -188t26.5 -215.5q0 -169 -61.5 -310t-168 -243
t-248.5 -159t-304 -57q-113 0 -209.5 27t-178 74.5t-148 112t-119.5 139.5l89 58q50 -59 103.5 -110.5t115 -90t134.5 -61t162 -22.5q111 0 215 44t184.5 124.5t130.5 195t54 255.5h-843v121z" />
    <glyph glyph-name="afii10048" unicode="&#x42e;" horiz-adv-x="2037" 
d="M377 837h185q9 95 35.5 182t69.5 162.5t101 137.5t130 105.5t157.5 67.5t182.5 24q106 0 198 -28t167.5 -79t135 -122t100 -157.5t61.5 -185.5t21 -205q0 -158 -47 -298t-135.5 -244.5t-215 -165.5t-285.5 -61q-156 0 -280.5 59t-212 160.5t-136 237t-51.5 289.5h-181
v-716h-212v1487h212v-650zM807 739q0 -131 21 -251t71 -211.5t132.5 -145.5t206.5 -54q123 0 206.5 54t134.5 145.5t72.5 211.5t21.5 251q0 82 -9.5 164t-30.5 156.5t-54.5 138.5t-81.5 111t-112.5 74t-146.5 27q-124 0 -206.5 -55.5t-132.5 -148.5t-71 -214t-21 -253z" />
    <glyph glyph-name="afii10049" unicode="&#x42f;" horiz-adv-x="1344" 
d="M1175 0h-213v533h-202l-408 -533h-255l432 550q-84 20 -157 60.5t-126.5 99t-84 134t-30.5 165.5q0 118 43 207.5t118.5 149.5t178 90.5t221.5 30.5h483v-1487zM376 1011q0 -78 24 -146t71 -118t116.5 -79t159.5 -29h215v741h-215q-182 0 -276.5 -92.5t-94.5 -276.5z" />
    <glyph glyph-name="uni0430" unicode="&#x430;" horiz-adv-x="1064" 
d="M483 874q-48 0 -83.5 -3t-64.5 -8t-54 -11.5t-50 -13.5l-24 65q84 31 175.5 44.5t173.5 13.5q105 0 172.5 -11t105.5 -36.5t52.5 -68t14.5 -106.5v-739h-328q-134 0 -228.5 28t-154.5 75.5t-88 109t-28 129.5q0 84 26.5 148t76.5 107.5t122 66t164 22.5q50 0 113.5 -17
t121.5 -51v125q0 23 -5 46.5t-26 42t-64.5 30.5t-119.5 12zM698 82v463q-48 29 -100 43t-115 14q-50 0 -88.5 -18t-64.5 -51t-39.5 -79t-13.5 -102q0 -16 1.5 -42t10 -56t26 -60.5t49.5 -55.5t81 -40.5t120 -15.5h133z" />
    <glyph glyph-name="afii10066" unicode="&#x431;" horiz-adv-x="1150" 
d="M100 579q1 176 36.5 323t117.5 252.5t215.5 164.5t329.5 59h226l-42 -158h-246q-112 0 -202.5 -23t-158.5 -79t-113 -149.5t-65 -233.5q30 55 73 97.5t93.5 71t107 43t113.5 14.5q106 0 193 -38.5t148.5 -104.5t95.5 -155.5t34 -191.5q0 -101 -34 -189.5t-95.5 -154
t-148.5 -103.5t-193 -38q-104 0 -193 38t-154 112t-101.5 183t-36.5 250v10zM309 471q0 -80 16 -152.5t50 -128t86 -88.5t124 -33t122 33t81 88.5t45 128t14 152.5q0 74 -14 147t-45 130.5t-81 93t-122 35.5t-124 -33.5t-86 -90t-50 -130t-16 -152.5z" />
    <glyph glyph-name="afii10067" unicode="&#x432;" horiz-adv-x="1116" 
d="M167 942h455q70 0 132.5 -11.5t108.5 -38.5t73 -71.5t27 -111.5q0 -74 -54 -128t-155 -74q54 -8 100 -28.5t79.5 -51t52.5 -70.5t19 -87q0 -72 -29.5 -123t-79.5 -84t-118 -48t-144 -15h-467v942zM356 459v-375h205q115 0 175 46t60 140q0 58 -19 95t-52.5 58t-79.5 28.5
t-101 7.5h-188zM356 854v-307h236q40 0 73 8.5t55.5 28t35 50.5t12.5 75q0 80 -53 112.5t-169 32.5h-190z" />
    <glyph glyph-name="afii10068" unicode="&#x433;" horiz-adv-x="768" 
d="M167 942h601v-88h-412v-854h-189v942z" />
    <glyph glyph-name="afii10069" unicode="&#x434;" horiz-adv-x="1136" 
d="M91 -194v278h74q33 76 59 171t44.5 204.5t28.5 231.5t12 251h579v-858h128v-278h-110v194h-703v-194h-112zM700 84v770h-305q-6 -105 -16.5 -212.5t-26 -208.5t-37 -190.5t-50.5 -158.5h435z" />
    <glyph glyph-name="uni0435" unicode="&#x435;" horiz-adv-x="987" 
d="M544 961q102 0 172.5 -37.5t115 -101.5t64 -147.5t19.5 -176.5v-47h-616q0 -56 18 -121t58.5 -120t105 -91.5t158.5 -36.5h208v-82h-211q-140 0 -241.5 32t-167 93t-96.5 149t-31 201q0 94 29.5 182t86 155.5t139 108t189.5 40.5zM534 870q-62 0 -106 -28t-72.5 -74.5
t-42 -108t-14.5 -127.5h423v43q-2 58 -10.5 111t-29.5 94t-56.5 65.5t-91.5 24.5z" />
    <glyph glyph-name="afii10072" unicode="&#x436;" horiz-adv-x="1494" 
d="M653 942h188v-387h166l215 387h101l-232 -423l271 -519h-196l-241 467h-84v-467h-188v467h-84l-241 -467h-196l272 519l-232 423h100l216 -387h165v387z" />
    <glyph glyph-name="afii10073" unicode="&#x437;" horiz-adv-x="820" 
d="M509 733q0 32 -14 58t-37.5 44t-54 28t-64.5 10q-35 0 -68.5 -7t-64.5 -18.5t-60 -25.5t-56 -27l-42 59q29 21 65 40.5t78 34.5t90.5 23.5t103.5 8.5q66 0 124 -15.5t101.5 -44t69 -69t25.5 -89.5q0 -38 -18 -75t-51 -69t-80 -56.5t-106 -37.5q63 -11 120.5 -37
t100.5 -64.5t68.5 -89t25.5 -111.5q0 -74 -25.5 -138.5t-69.5 -120.5t-104 -104t-129 -89t-144.5 -75.5t-150.5 -62.5l-33 88q98 43 180 96.5t141 116.5t92 135.5t33 153.5q0 78 -27.5 127.5t-74.5 77.5t-109 38t-130 10v88q68 3 122.5 15t93 35.5t59 57.5t20.5 81z" />
    <glyph glyph-name="afii10074" unicode="&#x438;" horiz-adv-x="1153" 
d="M356 314l440 513v115h188v-942h-188v693l-440 -515v-178h-189v942h189v-628z" />
    <glyph glyph-name="afii10075" unicode="&#x439;" horiz-adv-x="1092" 
d="M322 314l440 513v115h188v-942h-188v693l-440 -515v-178h-189v942h189v-628zM395 1308q0 -63 37 -99.5t128 -36.5q93 0 129.5 36.5t36.5 99.5h150q0 -54 -25 -96t-68 -70.5t-100.5 -43t-122.5 -14.5q-62 0 -118 12.5t-99 39.5t-69 69.5t-27 102.5h148z" />
    <glyph glyph-name="afii10076" unicode="&#x43a;" horiz-adv-x="1048" 
d="M356 942v-387h201l241 387h100l-256 -423l296 -519h-196l-269 467h-117v-467h-189v942h189z" />
    <glyph glyph-name="afii10077" unicode="&#x43b;" horiz-adv-x="1015" 
d="M83 0v199q74 0 103 56q39 81 63.5 253t32.5 434h564v-942h-190v854h-292q-6 -95 -14.5 -198t-21.5 -200t-30.5 -181.5t-40.5 -142.5q-15 -38 -33.5 -63t-39 -40.5t-41.5 -22t-40 -6.5h-20z" />
    <glyph glyph-name="afii10078" unicode="&#x43c;" horiz-adv-x="1341" 
d="M167 0v942h216l285 -439l337 439h167v-942h-188v764l-388 -513l-341 542v-793h-88z" />
    <glyph glyph-name="afii10079" unicode="&#x43d;" horiz-adv-x="1132" 
d="M356 582h418v360h189v-942h-189v494h-418v-494h-189v942h189v-360z" />
    <glyph glyph-name="uni043E" unicode="&#x43e;" horiz-adv-x="1179" 
d="M587 961q103 0 193 -38.5t156.5 -105t104.5 -156t38 -190.5q0 -102 -38 -191.5t-104.5 -156t-156.5 -105t-193 -38.5q-101 0 -189.5 38.5t-154.5 105t-104.5 156t-38.5 191.5q0 101 38.5 190.5t104.5 156t154.5 105t189.5 38.5zM585 870q-78 0 -131.5 -30t-86.5 -84
t-47.5 -128t-14.5 -161q0 -86 15 -159t48 -126.5t86.5 -83.5t130.5 -30t131 30t88.5 83.5t50 126.5t15.5 159q0 87 -15.5 161t-50 128t-88.5 84t-131 30z" />
    <glyph glyph-name="afii10081" unicode="&#x43f;" horiz-adv-x="1132" 
d="M167 0v942h796v-942h-189v823h-418v-823h-189z" />
    <glyph glyph-name="uni0440" unicode="&#x440;" horiz-adv-x="1169" 
d="M344 892q57 35 121 52t115 17q127 0 219.5 -34.5t153 -95t89.5 -144t29 -181.5q0 -99 -26.5 -190.5t-94 -161.5t-183.5 -112t-294 -42h-129v-362l-202 -58v1362h202v-50zM559 877q-64 0 -115.5 -15t-99.5 -44v-736h129q90 0 154 22t108 58.5t70.5 82t40.5 93t18.5 92
t4.5 78.5q0 73 -20.5 139.5t-60 117.5t-97 81.5t-132.5 30.5z" />
    <glyph glyph-name="uni0441" unicode="&#x441;" horiz-adv-x="948" 
d="M831 784q-52 42 -105 63t-122 21q-75 0 -132.5 -29t-96.5 -78.5t-59.5 -114.5t-20.5 -138q0 -34 4.5 -78.5t18.5 -92t40.5 -93t70 -82t108 -58.5t153.5 -22h149v-82h-149q-119 0 -209.5 18.5t-157 51.5t-111 79.5t-71.5 103t-38 120.5t-11 133q0 91 32.5 173.5t97 145
t160 99.5t222.5 37q31 0 66 -7t70 -20.5t69.5 -34t64.5 -47.5z" />
    <glyph glyph-name="afii10084" unicode="&#x442;" horiz-adv-x="864" 
d="M23 942h817v-88h-312v-854h-189v854h-316v88z" />
    <glyph glyph-name="uni0443" unicode="&#x443;" horiz-adv-x="948" 
d="M474 1l-1 -1l-434 942h204l230 -502l85 -218l273 720h97l-496 -1304h-96z" />
    <glyph glyph-name="afii10086" unicode="&#x444;" horiz-adv-x="1280" 
d="M546 0h-42q-105 0 -192.5 35.5t-150.5 98.5t-98.5 149.5t-35.5 187.5q0 102 35.5 188.5t98.5 149t150.5 98t192.5 35.5h42v524h188v-524h42q104 0 191.5 -35.5t151 -98t99 -149t35.5 -188.5q0 -101 -35.5 -187.5t-99 -149.5t-151 -98.5t-191.5 -35.5h-42v-345l-188 -42
v387zM236 471q0 -80 14.5 -150.5t47 -123t83.5 -83t123 -30.5h42v774h-42q-72 0 -123 -30.5t-83.5 -83.5t-47 -123.5t-14.5 -149.5zM734 858v-774h42q72 0 123 30.5t83.5 83t47 123t14.5 150.5q0 79 -14.5 149.5t-47 123.5t-83.5 83.5t-123 30.5h-42z" />
    <glyph glyph-name="uni0445" unicode="&#x445;" horiz-adv-x="1018" 
d="M585 557l347 -557h-216l-241 387l-244 -387h-107l298 472l-292 470h216l186 -299l189 299h106z" />
    <glyph glyph-name="afii10088" unicode="&#x446;" horiz-adv-x="1118" 
d="M74 942h189v-822h418v822h189v-858h128v-278h-111v194h-813v942z" />
    <glyph glyph-name="afii10089" unicode="&#x447;" horiz-adv-x="972" 
d="M615 383q-57 -21 -101.5 -36.5t-83 -25.5t-74.5 -15t-76 -5q-45 0 -88 10.5t-77.5 36.5t-55.5 70.5t-21 112.5v411h188v-377q0 -43 8.5 -72t24.5 -46t40 -24.5t54 -7.5q28 0 55 2t58 7.5t67 15.5t82 27v475h188v-942h-188v383z" />
    <glyph glyph-name="afii10090" unicode="&#x448;" horiz-adv-x="1487" 
d="M167 942h189v-822h293v822h189v-822h292v822h189v-942h-1152v942z" />
    <glyph glyph-name="afii10091" unicode="&#x449;" horiz-adv-x="1483" 
d="M71 942h189v-822h293v822h189v-822h292v822h189v-858h128v-278h-112v194h-1168v942z" />
    <glyph glyph-name="afii10092" unicode="&#x44a;" horiz-adv-x="1240" 
d="M546 942v-404q84 57 175 86t168 29q57 0 111.5 -18t97 -55t69 -93t26.5 -131q0 -80 -33.5 -145.5t-93 -112t-140 -72.5t-173.5 -26h-398v854h-301v88h492zM791 533q-22 0 -51 -4.5t-62 -14t-67 -25t-65 -37.5v-368h145q153 0 222.5 64t69.5 189q0 42 -12.5 77.5t-36.5 62
t-60 41.5t-83 15z" />
    <glyph glyph-name="afii10093" unicode="&#x44b;" horiz-adv-x="1410" 
d="M358 942l-2 -411q78 63 158.5 92.5t151.5 29.5q56 0 108.5 -18t93 -55t64.5 -93t24 -131q0 -80 -31.5 -145.5t-88.5 -112t-135 -72.5t-171 -26h-363v942h191zM1053 942h188v-942h-188v942zM574 533q-45 0 -102.5 -21t-115.5 -70v-358h111q77 0 130.5 16t87 48t48.5 79
t15 110q0 42 -10.5 77.5t-32 62t-54.5 41.5t-77 15z" />
    <glyph glyph-name="afii10094" unicode="&#x44c;" horiz-adv-x="1026" 
d="M358 942v-404q42 28 86 49.5t88.5 36t87.5 22t82 7.5q56 0 110.5 -18t97 -55t69 -93t26.5 -131q0 -80 -33.5 -145.5t-93 -112t-140 -72.5t-173.5 -26h-398v942h191zM603 533q-22 0 -51.5 -4.5t-62 -14t-66.5 -25t-65 -37.5v-368h144q155 0 224.5 63.5t69.5 189.5
q0 42 -12.5 77.5t-37 62t-60.5 41.5t-83 15z" />
    <glyph glyph-name="afii10095" unicode="&#x44d;" horiz-adv-x="959" 
d="M190 529h469q-5 81 -28.5 145t-62 108t-89 67.5t-109.5 23.5q-38 0 -73.5 -10t-67 -28t-57.5 -42.5t-45 -53.5h-37v113q41 48 120.5 78.5t188.5 30.5q94 0 179.5 -36.5t150.5 -100.5t103 -149.5t38 -184.5q0 -95 -26.5 -183.5t-90 -156.5t-168.5 -109t-261 -41h-234v84
h179q99 0 170 24t118 69.5t71.5 112t30.5 152.5h-469v87z" />
    <glyph glyph-name="afii10096" unicode="&#x44e;" horiz-adv-x="1524" 
d="M355 527h159q9 92 46 171.5t95 138t135.5 91.5t167.5 33q98 0 180.5 -38.5t142 -104.5t92.5 -155.5t33 -191.5q0 -101 -33 -189.5t-92.5 -154t-142 -103.5t-180.5 -38q-93 0 -172 35t-138 96t-94.5 143.5t-41.5 178.5h-157v-439h-189v942h189v-415zM721 471
q0 -80 13 -152.5t41 -128t73 -88.5t110 -33q64 0 109.5 33t74 88.5t41.5 128t13 152.5q0 74 -13 147t-41.5 130.5t-74 93t-109.5 35.5q-65 0 -110 -33.5t-73 -90t-41 -130t-13 -152.5z" />
    <glyph glyph-name="afii10097" unicode="&#x44f;" horiz-adv-x="1067" 
d="M898 0h-188v337h-102l-283 -337h-242l330 373q-53 9 -100.5 30.5t-84 55t-58 78.5t-21.5 102q0 150 108 226.5t303 76.5h338v-942zM359 641q0 -50 17 -89.5t48 -68t74.5 -43.5t96.5 -15h115v429h-115q-53 0 -96.5 -11.5t-74.5 -37t-48 -66t-17 -98.5z" />
    <glyph glyph-name="uni0451" unicode="&#x451;" horiz-adv-x="910" 
d="M506 961q102 0 172.5 -37.5t115 -101.5t64 -147.5t19.5 -176.5v-47h-616q0 -56 18 -121t58.5 -120t105 -91.5t158.5 -36.5h208v-82h-211q-140 0 -241.5 32t-167 93t-96.5 149t-31 201q0 94 29.5 182t86 155.5t139 108t189.5 40.5zM496 870q-62 0 -106 -28t-72.5 -74.5
t-42 -108t-14.5 -127.5h423v43q-2 58 -10.5 111t-29.5 94t-56.5 65.5t-91.5 24.5zM425 1165h-191v139h191v-139zM756 1165h-190v139h190v-139z" />
    <glyph glyph-name="afii10099" unicode="&#x452;" horiz-adv-x="1032" 
d="M18 942h181v524h188v-524h348v-105h-348v-218q57 22 105 37.5t90.5 25.5t81.5 14.5t79 4.5q47 0 92 -10.5t80.5 -36.5t57 -70.5t21.5 -112.5v-425q0 -110 -23.5 -182.5t-63.5 -120.5t-93.5 -77t-114.5 -53l-46 83q44 26 73.5 54t47 63.5t25 80t7.5 104.5v427
q0 47 -10 78.5t-28.5 50t-45 26.5t-59.5 8q-50 0 -118.5 -12t-157.5 -40v-536h-188v837h-181v105z" />
    <glyph glyph-name="afii10100" unicode="&#x453;" horiz-adv-x="701" 
d="M100 942h601v-88h-412v-854h-189v942zM243 1032l165 276h215l-254 -276h-126z" />
    <glyph glyph-name="afii10101" unicode="&#x454;" horiz-adv-x="960" 
d="M870 0h-235q-156 0 -261 41t-168 109t-90 156.5t-27 183.5q0 99 38.5 184.5t103 149.5t150 100.5t179.5 36.5q109 0 188.5 -30.5t121.5 -78.5v-113h-38q-19 29 -45 53.5t-57.5 42.5t-67 28t-73.5 10q-60 0 -111 -23.5t-89.5 -67.5t-62 -108t-28.5 -145h471v-87h-469
q5 -86 29 -152.5t71 -112t118.5 -69.5t171.5 -24h180v-84z" />
    <glyph glyph-name="uni0455" unicode="&#x455;" horiz-adv-x="813" 
d="M437 961q42 0 73 -3.5t58.5 -10.5t54.5 -16l60 -20l-2 -88q-47 17 -99.5 30t-123.5 13q-15 0 -36 -4t-40 -13.5t-32 -25.5t-13 -39q0 -26 23.5 -63t74.5 -92l107 -121q34 -39 67.5 -75.5t59.5 -71.5t42.5 -69.5t16.5 -68.5q0 -66 -30 -112t-78 -75.5t-108.5 -42.5
t-121.5 -13q-85 0 -150.5 18.5t-123.5 52.5l8 90q46 -24 100 -44.5t111 -20.5q94 0 141 33t47 96q0 44 -36.5 92t-90.5 106l-106 119q-42 53 -71.5 89t-47.5 64t-26.5 53t-8.5 56q0 51 23.5 85t64 54.5t95.5 29t118 8.5z" />
    <glyph glyph-name="uni0456" unicode="&#x456;" horiz-adv-x="477" 
d="M336 0h-203v942h203v-942zM336 1100h-203v119h203v-119z" />
    <glyph glyph-name="uni0457" unicode="&#x457;" horiz-adv-x="557" 
d="M377 0h-203v942h203v-942zM210 1165h-191v139h191v-139zM541 1165h-190v139h190v-139z" />
    <glyph glyph-name="uni0458" unicode="&#x458;" horiz-adv-x="503" 
d="M373 -217q-3 -42 -18.5 -74.5t-41 -54t-59 -32.5t-73.5 -11h-181v90q57 0 90.5 2t51.5 11t23 26t5 47v1155h203v-1159zM373 1100h-203v119h203v-119z" />
    <glyph glyph-name="afii10106" unicode="&#x459;" horiz-adv-x="1594" 
d="M118 0v199q36 0 61.5 12.5t34.5 31.5q88 177 103 699h564v-404q41 27 85.5 48.5t89.5 36.5t88 22.5t82 7.5q56 0 110.5 -18t97.5 -55t69.5 -93t26.5 -131q0 -80 -34 -145.5t-93 -112t-140 -72.5t-174 -26h-398v854h-292q-6 -95 -14.5 -198t-21.5 -200t-30.5 -181.5
t-40.5 -142.5q-15 -38 -33.5 -63t-39 -40.5t-41.5 -22t-40 -6.5h-20zM1127 533q-22 0 -51.5 -4.5t-62.5 -14.5t-67 -26t-65 -38v-366h146q154 0 223.5 64t69.5 189q0 42 -12.5 77.5t-37 62t-60.5 41.5t-83 15z" />
    <glyph glyph-name="afii10107" unicode="&#x45a;" horiz-adv-x="1677" 
d="M356 582h418v360h189v-404q42 27 86.5 48.5t89 36.5t88 22.5t82.5 7.5q56 0 110.5 -18t97 -55t68.5 -93t26 -131q0 -80 -33.5 -145.5t-92.5 -112t-139.5 -72.5t-173.5 -26h-398v494h-418v-494h-189v942h189v-360zM1210 533q-22 0 -51.5 -4.5t-62.5 -14.5t-67.5 -26
t-65.5 -38v-366h146q155 0 224.5 63.5t69.5 189.5q0 42 -12.5 77.5t-37 62t-60.5 41.5t-83 15z" />
    <glyph glyph-name="afii10108" unicode="&#x45b;" horiz-adv-x="1063" 
d="M57 942h181v524h188v-524h348v-105h-348v-218q57 22 105 37.5t90.5 25.5t81.5 14.5t79 4.5q47 0 92 -10.5t80.5 -36.5t57 -70.5t21.5 -112.5v-471h-188v425q0 47 -10 78.5t-28.5 50t-45 26.5t-59.5 8q-50 0 -118.5 -12t-157.5 -40v-536h-188v837h-181v105z" />
    <glyph glyph-name="afii10109" unicode="&#x45c;" horiz-adv-x="919" 
d="M287 942v-387h201l241 387h100l-256 -423l296 -519h-196l-269 467h-117v-467h-189v942h189zM314 1032l165 276h216l-256 -276h-125z" />
    <glyph glyph-name="afii10110" unicode="&#x45e;" horiz-adv-x="1023" 
d="M908 942h103l-620 -1329h-102l178 385l-446 944h210l343 -718zM387 1308q0 -63 37 -99.5t128 -36.5q93 0 129.5 36.5t36.5 99.5h150q0 -54 -25 -96t-68 -70.5t-100.5 -43t-122.5 -14.5q-62 0 -118 12.5t-99 39.5t-69 69.5t-27 102.5h148z" />
    <glyph glyph-name="afii10193" unicode="&#x45f;" horiz-adv-x="1031" 
d="M461 0h-344v942h189v-822h418v822h189v-942h-341v-194h-111v194z" />
    <glyph glyph-name="afii10146" unicode="&#x462;" horiz-adv-x="1401" 
d="M64 1304h254v183h212v-183h393v-119h-393v-231h270q113 0 215 -33.5t179 -95t122 -150t45 -197.5q0 -119 -43 -208.5t-118.5 -149.5t-178 -90t-221.5 -30h-482v1185h-254v119zM530 106h215q183 0 277 92.5t94 277.5q0 94 -34 172t-102 130q-40 30 -91 44.5t-108.5 20
t-121 5t-129.5 -0.5v-741z" />
    <glyph glyph-name="afii10194" unicode="&#x463;" horiz-adv-x="1094" 
d="M61 942h180v524h191v-524h346v-105h-346v-299q42 28 86 49.5t88.5 36t87.5 22t82 7.5q56 0 110.5 -18t97 -55t69 -93t26.5 -131q0 -80 -33.5 -145.5t-93 -112t-140 -72.5t-173.5 -26h-398v837h-180v105zM677 533q-22 0 -51.5 -4.5t-62 -14t-66.5 -25t-65 -37.5v-368h144
q155 0 224.5 63.5t69.5 189.5q0 42 -12.5 77.5t-37 62t-60.5 41.5t-83 15z" />
    <glyph glyph-name="afii10147" unicode="&#x472;" horiz-adv-x="1692" 
d="M101 739q0 106 24.5 205t70 185.5t111 157.5t148 122t180.5 79t209 28q112 0 210.5 -28t181.5 -79t149 -122t111.5 -157.5t70 -185.5t24.5 -205q0 -105 -24.5 -203t-70 -183.5t-111.5 -156t-149 -121t-181.5 -78t-210.5 -27.5q-110 0 -208.5 27.5t-181 78t-148 121
t-111 156t-70 183.5t-24.5 203zM844 77q127 0 219 50.5t153 136.5t92 200t36 241h-995q3 -127 33 -241t90.5 -200t152.5 -136.5t219 -50.5zM844 1410q-121 0 -210 -47.5t-149 -127.5t-92.5 -186.5t-41.5 -224.5h988q-9 112 -42 217.5t-93.5 187.5t-150 131.5t-209.5 49.5z
" />
    <glyph glyph-name="afii10195" unicode="&#x473;" horiz-adv-x="1159" 
d="M102 471q0 102 35.5 191.5t98.5 155.5t150.5 104.5t192.5 38.5q106 0 194 -38.5t151.5 -104.5t98.5 -155.5t35 -191.5q0 -101 -35 -189.5t-98.5 -154t-151.5 -103.5t-194 -38q-105 0 -192.5 38t-150.5 103.5t-98.5 154t-35.5 189.5zM579 69q67 0 115.5 28t81.5 76.5
t50 113t21 136.5h-536q4 -72 21.5 -136.5t50 -113t81 -76.5t115.5 -28zM579 877q-66 0 -114 -28.5t-80 -76.5t-49.5 -111.5t-22.5 -133.5h534q-5 67 -23 130.5t-51 112t-81 78t-113 29.5z" />
    <glyph glyph-name="afii10148" unicode="&#x474;" horiz-adv-x="1530" 
d="M659 0l-616 1487h243l480 -1158l155 332l304 654q18 39 42.5 70.5t57.5 54t76 35t99 12.5v-111q-64 0 -104 -27t-66 -83l-501 -1079l81 -187h-251z" />
    <glyph glyph-name="afii10196" unicode="&#x475;" horiz-adv-x="1142" 
d="M462 0l-412 942h205l324 -743l264 570q24 52 50 86t57.5 53t69.5 26.5t87 7.5v-97q-25 0 -47 -3t-41.5 -13.5t-36.5 -30t-32 -51.5l-312 -667l35 -80h-211z" />
    <glyph glyph-name="afii10050" unicode="&#x490;" horiz-adv-x="1024" 
d="M117 1487h794v197h111v-318h-693v-1366h-212v1487z" />
    <glyph glyph-name="afii10098" unicode="&#x491;" horiz-adv-x="703" 
d="M696 1109v-255h-412v-854h-189v942h501v167h100z" />
    <glyph glyph-name="uni0492" unicode="&#x492;" horiz-adv-x="1076" 
d="M1076 1487v-98h-690v-451h669v-98h-669v-840h-219v1487h909z" />
    <glyph glyph-name="uni0493" unicode="&#x493;" horiz-adv-x="768" 
d="M167 942h601v-88h-412v-308h313v-102h-313v-444h-189v942z" />
    <glyph glyph-name="afii10073.ss01" unicode="&#x499;" horiz-adv-x="798" 
d="M506 753q0 32 -14 55t-37.5 37.5t-54 21t-64.5 6.5q-35 0 -68.5 -7t-64.5 -18.5t-60 -25.5t-56 -27l-42 59q58 43 142.5 75t194.5 32q66 0 124 -12t101.5 -37t69 -62t25.5 -86q0 -39 -18 -72.5t-51 -61.5t-80 -49t-106 -34q60 -8 116 -28t100 -52.5t70.5 -78.5t26.5 -106
q0 -73 -31 -126t-87.5 -87.5t-134.5 -51.5t-171 -17h-78v-61q52 0 90 -14t63 -37.5t37.5 -53t12.5 -59.5q0 -49 -32.5 -85.5t-82 -61t-109 -36.5t-112.5 -12v53q33 4 67 13t61.5 25.5t44.5 42.5t17 64q0 20 -7 39.5t-24 34.5t-45 24.5t-70 9.5v114h-130v88h286
q50 0 91.5 11.5t71.5 36t47 62t17 89.5q0 67 -28 108t-75 64t-109 31t-130 8v88q68 3 123 12t93.5 28t59 50t20.5 77z" />
    <glyph glyph-name="uni049A" unicode="&#x49a;" horiz-adv-x="1374" 
d="M926 0l-408 825h-206v-825h-213v1487h213v-541h202l436 541h157l-414 -528l419 -857h174v-339h-134v237h-226z" />
    <glyph glyph-name="uni04A1" unicode="&#x4a1;" horiz-adv-x="1253" 
d="M85 942h462v-387h201l241 387h100l-256 -423l296 -519h-196l-269 467h-117v-467h-189v867h-179v-209h-94v284z" />
    <glyph glyph-name="uni04A3" unicode="&#x4a3;" horiz-adv-x="1118" 
d="M681 494h-418v-494h-189v942h189v-360h418v360h189v-858h128v-278h-111v194h-206v494z" />
    <glyph glyph-name="uni04AB" unicode="&#x4ab;" horiz-adv-x="878" 
d="M766 784q-52 42 -105 63t-122 21q-75 0 -132.5 -29t-96.5 -78.5t-59.5 -114.5t-20.5 -138q0 -34 4.5 -78.5t18.5 -92t40.5 -93t70 -82t108 -58.5t153.5 -22h149v-82h-149q-44 0 -83 2v-63q46 0 84 -12.5t64 -35t40.5 -52.5t14.5 -66q0 -47 -31.5 -83t-80.5 -60.5
t-108.5 -37t-115.5 -12.5v53q36 4 70 13.5t61 26.5t43 42.5t16 60.5q0 54 -37 82t-109 28v125q-20 4 -38 7q-90 19 -156.5 52t-111 79.5t-71.5 103t-38 120.5t-11 133q0 91 32.5 173.5t97 145t160 99.5t222.5 37q31 0 66 -7t70 -20.5t69.5 -34t64.5 -47.5z" />
    <glyph glyph-name="uni04BB" unicode="&#x4bb;" horiz-adv-x="984" 
d="M369 864q64 28 118 46.5t101 30t87.5 16t78.5 4.5q94 0 143.5 -49t49.5 -158v-754h-203v723q0 22 -4.5 45t-16 41t-32 29.5t-51.5 11.5q-51 0 -118.5 -12.5t-152.5 -51.5v-786h-202v1487h202v-623z" />
    <glyph glyph-name="uni04CC" unicode="&#x4cc;" horiz-adv-x="941" 
d="M620 0v-194h-111v278h104v299q-57 -21 -101.5 -36.5t-83 -25.5t-74.5 -15t-76 -5q-45 0 -88 10.5t-77.5 36.5t-55.5 70.5t-21 112.5v411h188v-377q0 -43 8.5 -72t24.5 -46t40 -24.5t54 -7.5q28 0 55 2t58 7.5t67 15.5t82 27v475h188v-942h-181z" />
    <glyph glyph-name="uni04D9" unicode="&#x4d9;" horiz-adv-x="986" 
d="M443 0q-102 0 -172.5 37.5t-115 101.5t-64 147.5t-19.5 176.5v47h616q0 56 -18 121t-58.5 120t-105 91.5t-158.5 36.5h-208v82h211q140 0 241.5 -32t167 -93t96.5 -149t31 -201q0 -94 -29.5 -182t-86 -155.5t-139 -108t-189.5 -40.5zM453 91q62 0 106 28t72.5 74.5
t42 108t14.5 127.5h-423v-43q2 -58 10.5 -111t29.5 -94t56.5 -65.5t91.5 -24.5z" />
    <glyph glyph-name="uni04E7" unicode="&#x4e7;" horiz-adv-x="1097" 
d="M546 961q103 0 193 -38.5t156.5 -105t104.5 -156t38 -190.5q0 -102 -38 -191.5t-104.5 -156t-156.5 -105t-193 -38.5q-101 0 -189.5 38.5t-154.5 105t-104.5 156t-38.5 191.5q0 101 38.5 190.5t104.5 156t154.5 105t189.5 38.5zM544 870q-78 0 -131.5 -30t-86.5 -84
t-47.5 -128t-14.5 -161q0 -86 15 -159t48 -126.5t86.5 -83.5t130.5 -30t131 30t88.5 83.5t50 126.5t15.5 159q0 87 -15.5 161t-50 128t-88.5 84t-131 30zM479 1165h-191v139h191v-139zM810 1165h-190v139h190v-139z" />
    <glyph glyph-name="uni04F1" unicode="&#x4f1;" horiz-adv-x="909" 
d="M443 1l-1 -1l-434 942h204l230 -502l85 -218l273 720h97l-496 -1304h-96zM426 1165h-191v139h191v-139zM757 1165h-190v139h190v-139z" />
    <glyph glyph-name="uni05B0" unicode="&#x5b0;" horiz-adv-x="395" 
d="M118 -505q0 35 23.5 58.5t58.5 23.5t58.5 -23.5t23.5 -58.5t-23.5 -58.5t-58.5 -23.5t-58.5 23.5t-23.5 58.5zM118 -251q0 35 23.5 58.5t58.5 23.5t58.5 -23.5t23.5 -58.5t-23.5 -58.5t-58.5 -23.5t-58.5 23.5t-23.5 58.5z" />
    <glyph glyph-name="uni05B1" unicode="&#x5b1;" horiz-adv-x="961" 
d="M643 -505q0 35 23.5 58.5t58.5 23.5t58.5 -23.5t23.5 -58.5t-23.5 -58.5t-58.5 -23.5t-58.5 23.5t-23.5 58.5zM643 -251q0 35 23.5 58.5t58.5 23.5t58.5 -23.5t23.5 -58.5t-23.5 -58.5t-58.5 -23.5t-58.5 23.5t-23.5 58.5zM534 -251q0 -35 -23.5 -58.5t-58.5 -23.5
t-58.5 23.5t-23.5 58.5t23.5 58.5t58.5 23.5t58.5 -23.5t23.5 -58.5zM395 -505q0 -35 -23.5 -58.5t-58.5 -23.5t-58.5 23.5t-23.5 58.5t23.5 58.5t58.5 23.5t58.5 -23.5t23.5 -58.5zM256 -251q0 -35 -23.5 -58.5t-58.5 -23.5t-58.5 23.5t-23.5 58.5t23.5 58.5t58.5 23.5
t58.5 -23.5t23.5 -58.5z" />
    <glyph glyph-name="uni05B2" unicode="&#x5b2;" horiz-adv-x="788" 
d="M472 -505q0 35 23.5 58.5t58.5 23.5t58.5 -23.5t23.5 -58.5t-23.5 -58.5t-58.5 -23.5t-58.5 23.5t-23.5 58.5zM472 -251q0 35 23.5 58.5t58.5 23.5t58.5 -23.5t23.5 -58.5t-23.5 -58.5t-58.5 -23.5t-58.5 23.5t-23.5 58.5zM357 -288h-357l9 94h357z" />
    <glyph glyph-name="uni05B3" unicode="&#x5b3;" horiz-adv-x="850" 
d="M271 -288q-2 -10 -2 -16v-13q0 -26 3 -45.5t8 -34.5t11 -26t12 -20q9 -14 16 -28t7 -35q0 -32 -20.5 -56.5t-60.5 -24.5t-60.5 24.5t-20.5 56.5q0 21 7 35t16 28q6 9 12 20t11 26t8 34.5t3 45.5v13t-2 16h-157l9 94h357l-9 -94h-148zM534 -505q0 35 23.5 58.5t58.5 23.5
t58.5 -23.5t23.5 -58.5t-23.5 -58.5t-58.5 -23.5t-58.5 23.5t-23.5 58.5zM534 -251q0 35 23.5 58.5t58.5 23.5t58.5 -23.5t23.5 -58.5t-23.5 -58.5t-58.5 -23.5t-58.5 23.5t-23.5 58.5z" />
    <glyph glyph-name="uni05B4" unicode="&#x5b4;" horiz-adv-x="369" 
d="M102 -251q0 35 23.5 58.5t58.5 23.5t58.5 -23.5t23.5 -58.5t-23.5 -58.5t-58.5 -23.5t-58.5 23.5t-23.5 58.5z" />
    <glyph glyph-name="uni05B5" unicode="&#x5b5;" horiz-adv-x="700" 
d="M478 -333q-35 0 -58.5 23.5t-23.5 58.5t23.5 58.5t58.5 23.5t58.5 -23.5t23.5 -58.5t-23.5 -58.5t-58.5 -23.5zM224 -333q-35 0 -58.5 23.5t-23.5 58.5t23.5 58.5t58.5 23.5t58.5 -23.5t23.5 -58.5t-23.5 -58.5t-58.5 -23.5z" />
    <glyph glyph-name="uni05B6" unicode="&#x5b6;" horiz-adv-x="556" 
d="M500 -251q0 -35 -23.5 -58.5t-58.5 -23.5t-58.5 23.5t-23.5 58.5t23.5 58.5t58.5 23.5t58.5 -23.5t23.5 -58.5zM361 -495q0 -35 -23.5 -58.5t-58.5 -23.5t-58.5 23.5t-23.5 58.5t23.5 58.5t58.5 23.5t58.5 -23.5t23.5 -58.5zM222 -251q0 -35 -23.5 -58.5t-58.5 -23.5
t-58.5 23.5t-23.5 58.5t23.5 58.5t58.5 23.5t58.5 -23.5t23.5 -58.5z" />
    <glyph glyph-name="uni05B7" unicode="&#x5b7;" horiz-adv-x="685" 
d="M518 -288h-357l9 94h357z" />
    <glyph glyph-name="uni05B8" unicode="&#x5b8;" horiz-adv-x="490" 
d="M270 -288q-2 -10 -2 -16v-13q0 -26 3 -45.5t8 -34.5t11 -26t12 -20q9 -14 16 -28t7 -35q0 -32 -20.5 -56.5t-60.5 -24.5t-60.5 24.5t-20.5 56.5q0 21 7 35t16 28q6 9 12 20t11 26t8 34.5t3 45.5v13t-2 16h-157l9 94h357l-9 -94h-148z" />
    <glyph glyph-name="uni05B9" unicode="&#x5b9;" horiz-adv-x="374" 
d="M105 1304q0 35 23.5 58.5t58.5 23.5t58.5 -23.5t23.5 -58.5t-23.5 -58.5t-58.5 -23.5t-58.5 23.5t-23.5 58.5z" />
    <glyph glyph-name="uni05BB" unicode="&#x5bb;" horiz-adv-x="561" 
d="M8 -244q0 34 22.5 57t56.5 23t57 -23t23 -57t-23 -56.5t-57 -22.5t-56.5 22.5t-22.5 56.5zM393 -513q0 34 22.5 57t56.5 23t57 -23t23 -57t-23 -56.5t-57 -22.5t-56.5 22.5t-22.5 56.5zM201 -378q0 34 22.5 57t56.5 23t57 -23t23 -57t-23 -56.5t-57 -22.5t-56.5 22.5
t-22.5 56.5z" />
    <glyph glyph-name="uni05BC" unicode="&#x5bc;" horiz-adv-x="370" 
d="M103 519q0 35 23.5 58.5t58.5 23.5t58.5 -23.5t23.5 -58.5t-23.5 -58.5t-58.5 -23.5t-58.5 23.5t-23.5 58.5z" />
    <glyph glyph-name="uni05BD" unicode="&#x5bd;" horiz-adv-x="436" 
d="M251 -572l-85 -10v398l85 10v-398z" />
    <glyph glyph-name="uni05BE" unicode="&#x5be;" horiz-adv-x="839" 
d="M137 830q-6 0 -5 7q14 54 29 104.5t32 104.5q3 7 9 7h505q6 0 5 -7q-17 -54 -32 -104.5t-29 -104.5q-1 -7 -9 -7h-505z" />
    <glyph glyph-name="uni05BF" unicode="&#x5bf;" horiz-adv-x="793" 
d="M623 1224h-463l10 94h463z" />
    <glyph glyph-name="uni05C0" unicode="&#x5c0;" horiz-adv-x="450" 
d="M266 -164l-99 -11v1393l99 11v-1393z" />
    <glyph glyph-name="uni05C1" unicode="&#x5c1;" horiz-adv-x="374" 
d="M105 1304q0 35 23.5 58.5t58.5 23.5t58.5 -23.5t23.5 -58.5t-23.5 -58.5t-58.5 -23.5t-58.5 23.5t-23.5 58.5z" />
    <glyph glyph-name="uni05C2" unicode="&#x5c2;" horiz-adv-x="374" 
d="M105 1304q0 35 23.5 58.5t58.5 23.5t58.5 -23.5t23.5 -58.5t-23.5 -58.5t-58.5 -23.5t-58.5 23.5t-23.5 58.5z" />
    <glyph glyph-name="uni05C3" unicode="&#x5c3;" horiz-adv-x="425" 
d="M370 854q5 -2 6 -9.5t-3 -12.5q-30 -40 -58 -81t-55 -83q-5 -9 -18 -4q-54 23 -98 53.5t-80 65.5q-9 9 -2 19q26 42 55.5 84.5t61.5 83.5q3 4 10 5t12 -2q39 -35 80 -64t89 -55zM370 173q5 -2 6 -9.5t-3 -12.5q-30 -40 -58 -81t-55 -83q-5 -9 -18 -4q-54 23 -98 53.5
t-80 65.5q-9 9 -2 19q26 42 55.5 84.5t61.5 83.5q3 4 10 5t12 -2q39 -35 80 -64t89 -55z" />
    <glyph glyph-name="uni05D0" unicode="&#x5d0;" horiz-adv-x="1231" 
d="M416 -7q-23 17 -44.5 26.5t-51.5 9.5q-32 0 -74.5 -11.5t-108.5 -34.5q-7 7 -14.5 19t-10.5 25q31 24 69.5 51t83.5 55q-35 38 -59 70t-39 59.5t-21.5 53.5t-6.5 52q0 32 9.5 66.5t30 75t52.5 88t77 106.5q-28 30 -52.5 55t-43 48t-29 44.5t-10.5 45.5q0 29 13 56
q23 48 48.5 91.5t51.5 88.5q11 3 25 1.5t25 -6.5q-1 -8 -1 -17v-16q0 -21 3 -40.5t11 -39.5t22 -42t37 -48q42 -45 89.5 -92.5t96.5 -94t98 -91t94 -85.5q32 34 54.5 60.5t37 46.5t21 36t6.5 31q0 23 -15.5 43.5t-52.5 52.5q-30 26 -49 44t-29.5 32.5t-14 26.5t-3.5 26
q0 24 29.5 67.5t101.5 109.5q8 2 21 -2t23 -9q-1 -10 -1.5 -17t-0.5 -13q0 -11 3 -20t12 -19.5t25 -25.5t42 -38q58 -52 81 -82.5t23 -55.5q0 -19 -8.5 -47t-35.5 -69.5t-76.5 -99.5t-131.5 -137q43 -39 73.5 -67.5t52.5 -49.5t37.5 -36t28.5 -27q39 -36 60 -65t21 -52
q0 -18 -8 -37q-20 -46 -38 -90t-37 -93q-25 -2 -44 3q-15 40 -35.5 74t-44 64t-49.5 57t-52 53q-53 52 -114.5 110t-121.5 113t-113.5 103t-91.5 81q-44 -58 -58.5 -99.5t-14.5 -78.5q0 -30 13.5 -61t43 -68t76.5 -82t115 -105q2 -5 0 -10z" />
    <glyph glyph-name="uni05D1" unicode="&#x5d1;" horiz-adv-x="1158" 
d="M281 1137q13 -29 27.5 -45.5t33.5 -25t44 -11t59 -2.5h286q64 0 106.5 -14.5t67 -40t34.5 -60.5t10 -75q0 -35 -2 -65t-4.5 -61t-4.5 -64t-2 -73q0 -11 0.5 -38t2 -61.5t4.5 -73.5t9 -75.5t14.5 -66t21.5 -45.5q16 -20 40.5 -26.5t62.5 -6.5q4 0 3 -6q-16 -51 -29 -97
t-25 -97q-1 -4 -4 -5.5t-6 -1.5h-655q-36 0 -63.5 -0.5t-51.5 -3t-45.5 -8.5t-45.5 -17q-11 2 -22 6t-18 12q8 34 22.5 77.5t32.5 88.5q11 28 43 46t97 18h512q-8 54 -11 102t-3 95q0 37 1.5 77t4 78t4 71.5t1.5 57.5q0 29 -6.5 53t-24 41t-46.5 26.5t-74 9.5h-309
q-36 0 -70 3t-60.5 14t-42.5 32t-16 56q0 9 3.5 28t10.5 44.5t16.5 57t21.5 64.5q10 5 22 7t23 1z" />
    <glyph glyph-name="uni05D2" unicode="&#x5d2;" horiz-adv-x="780" 
d="M379 1144q4 -25 12 -41t23 -28t39.5 -22t61.5 -24q40 -14 65.5 -27.5t40.5 -26.5t21 -26t6 -28q0 -21 -7.5 -41.5t-22.5 -53.5t-25.5 -57t-16.5 -47t-9 -48.5t-3 -60.5q0 -56 17 -117.5t41 -119.5t48.5 -107.5t39.5 -80.5q4 -8 5 -13t1 -10q0 -7 -6 -19
q-25 -45 -45 -85.5t-37 -80.5q-29 -3 -57 0q-17 113 -34.5 187.5t-36.5 133.5q-14 -24 -26 -48t-23 -51t-22 -58t-23 -69q-5 -15 -14 -20t-24 -10q-34 -9 -74 -20.5t-78 -23t-70.5 -22t-52.5 -18.5q-11 -2 -24 2t-21 10q11 38 21.5 79.5t24.5 86.5q8 29 19 46t38 25
q70 21 122 34.5t89.5 31t64 43.5t45.5 71q-9 39 -13 79t-4 91q0 32 4.5 64.5t9.5 60.5q5 23 8 42t3 31q0 22 -20.5 33t-53.5 23q-38 14 -68 26.5t-51 27t-32 32.5t-9 43q1 13 9.5 38.5t21 54.5t27.5 57.5t29 48.5q7 4 21 4q7 0 13.5 -0.5t11.5 -1.5z" />
    <glyph glyph-name="uni05D3" unicode="&#x5d3;" horiz-adv-x="972" 
d="M858 842q-72 0 -101 -36t-29 -109q0 -51 2.5 -104.5t7 -106.5t10.5 -104.5t13 -97.5q6 -41 11.5 -80.5t5.5 -56.5q0 -28 -18 -50q-22 -28 -43.5 -58t-40.5 -59q-28 -3 -55 0q-7 64 -9.5 145.5t-2.5 171.5q0 78 1.5 157t4 150t5.5 129.5t6 96.5h-430q-36 0 -70 3t-60.5 14
t-42.5 32t-16 56q0 9 3.5 28t10.5 44.5t16.5 57t21.5 64.5q10 5 22 7t23 1q13 -29 27.5 -45.5t33.5 -25t44 -11t59 -2.5h641q6 0 5 -7q-15 -55 -26 -100t-22 -97q-1 -7 -8 -7z" />
    <glyph glyph-name="uni05D4" unicode="&#x5d4;" horiz-adv-x="1180" 
d="M368 564q-7 -25 -12 -44t-8 -36t-4.5 -34t-2.5 -37l-8 -308q0 -9 -1.5 -17t-8.5 -13q-16 -12 -33 -25.5t-32.5 -26t-29 -24t-22.5 -19.5q-25 -3 -49 0l31 380q4 51 20.5 93.5t38.5 65.5q11 12 31.5 29.5t43.5 31.5q10 -2 24 -6t22 -10zM247 1137q13 -29 27.5 -45.5
t33.5 -25t44 -11t59 -2.5h411q63 0 105.5 -9t68 -26.5t36 -44t10.5 -61.5q0 -34 -10.5 -74.5t-22.5 -88.5q0 -148 13 -263.5t25 -203.5l11 -77t5 -55q0 -19 -4 -30t-13 -23q-21 -29 -40 -58t-36 -59q-28 -3 -55 0q-3 19 -6.5 55t-6.5 77.5t-5 82.5t-2 71q0 87 0.5 150
t1.5 107.5t2 74.5t2 52q1 27 1.5 48t0.5 48q0 24 -3 40t-13.5 26t-31.5 14t-56 4h-460q-36 0 -70 3t-60.5 14t-42.5 32t-16 56q0 9 3.5 28t10.5 44.5t16.5 57t21.5 64.5q10 5 22 7t23 1z" />
    <glyph glyph-name="uni05D5" unicode="&#x5d5;" horiz-adv-x="505" 
d="M259 -20q-2 20 -4 56.5t-4 78t-3 83.5t-1 72q0 103 3 176.5t7 128.5t7 97t3 82q0 15 -7 24.5t-19 16t-27.5 10.5t-31.5 9q-39 11 -70.5 20.5t-54.5 22t-35.5 29.5t-12.5 42q0 14 6.5 40.5t17 57t23.5 60.5t25 51q8 5 21.5 5.5t24.5 -1.5q6 -24 16.5 -39.5t28.5 -26.5
t44 -19t64 -18q34 -9 56 -17t34 -16.5t16.5 -18.5t4.5 -22q0 -8 -3 -26.5t-6 -39.5q-5 -34 -10.5 -82.5t-5.5 -123.5q0 -105 9.5 -208.5t23.5 -197.5q6 -42 11 -79t5 -57q0 -19 -4 -30t-13 -23q-22 -29 -44.5 -60t-39.5 -57q-28 -3 -55 0z" />
    <glyph glyph-name="uni05D6" unicode="&#x5d6;" horiz-adv-x="551" 
d="M165 1145q4 -24 16.5 -40.5t31.5 -28.5t43.5 -20.5t53.5 -16.5q27 -8 57.5 -17t60.5 -20t58 -25t51 -32q7 -4 4 -13q-9 -21 -19 -47t-20 -53t-19 -53t-16 -47q-2 -5 -7 -1q-29 20 -56.5 33t-65.5 24q-18 -108 -18 -219q0 -104 16.5 -205.5t51.5 -197.5q3 -8 5.5 -15
t2.5 -15q0 -14 -18 -38q-23 -29 -45.5 -60.5t-39.5 -57.5q-14 -2 -23 -2t-23 2q-26 91 -36 174.5t-10 158.5q0 61 4 118.5t9.5 108.5t9.5 95.5t4 80.5q0 47 -9 75.5t-44 38.5q-64 17 -96 39.5t-32 65.5q0 14 6.5 40t17 56t23.5 59.5t25 50.5q8 5 21.5 5.5t24.5 -1.5z" />
    <glyph glyph-name="uni05D7" unicode="&#x5d7;" horiz-adv-x="1227" 
d="M232 1137q13 -29 27.5 -45.5t33.5 -25t44 -11t59 -2.5h471q63 0 105.5 -9t68 -26.5t36 -44t10.5 -61.5q0 -34 -10.5 -74.5t-22.5 -88.5q0 -148 13 -263.5t25 -203.5l11 -77t5 -55q0 -19 -4 -30t-13 -23q-21 -29 -40 -58t-36 -59q-28 -3 -55 0q-3 19 -6.5 55t-6.5 77.5
t-5 82.5t-2 71q0 87 0.5 150t1.5 107.5t2 74.5t2 52q1 27 1.5 48t0.5 48q0 24 -3 40t-13.5 26t-31.5 14t-56 4h-474q-5 -78 -6.5 -156.5t-1.5 -156.5q0 -103 2 -205t4 -207q0 -9 -1.5 -17t-8.5 -13q-15 -12 -32 -25.5t-32.5 -26t-29 -24t-22.5 -19.5q-25 -3 -49 0
q10 215 24 427.5t48 423.5q-29 2 -53.5 6.5t-42.5 15t-28 28.5t-10 47q0 9 4 29t11.5 47t18 59.5t22.5 65.5q10 5 22 7t23 1z" />
    <glyph glyph-name="uni05D8" unicode="&#x5d8;" horiz-adv-x="1205" 
d="M512 737q7 26 18.5 65t25 80t27 80t24.5 65q16 24 38.5 40.5t47 27.5t49.5 16t48 5q58 0 104 -19t81.5 -51t60 -75.5t40.5 -92t23 -100t7 -100.5q0 -50 -7 -107.5t-21 -116t-36 -115.5t-51 -106t-66.5 -88t-82.5 -61q-38 -18 -85 -34t-99 -30t-107 -27t-108 -25
q-20 3 -34 7.5t-29 14.5q-41 62 -75 143.5t-59 164t-38.5 155t-11.5 116.5q0 23 5.5 50.5t13.5 55t17 53.5t16 46q4 8 4 17q0 12 -12.5 21t-44.5 27q-25 14 -46 26t-36 24t-23 26t-7 32q0 16 9.5 40.5t24.5 51.5t32.5 53.5t33.5 47.5q8 2 20 2q7 0 13 -0.5t9 -2.5
q2 -16 6 -27t16 -21.5t34.5 -23t61.5 -31.5q43 -21 66 -41.5t22 -40.5q0 -16 -10.5 -38.5t-24.5 -50.5q-10 -20 -23.5 -47.5t-25.5 -58t-20.5 -63.5t-8.5 -65q0 -28 8 -66.5t21 -82t30 -88t35 -83.5t36 -69.5t33 -45.5q40 7 95.5 18.5t111 26.5t103.5 32t72 36
q63 51 96.5 130t33.5 164q0 56 -15 107.5t-45.5 90.5t-76 62.5t-105.5 23.5q-21 0 -46.5 -6.5t-51 -25t-49.5 -51.5t-42 -85q-14 3 -26.5 7t-23.5 11z" />
    <glyph glyph-name="uni05D9" unicode="&#x5d9;" horiz-adv-x="485" 
d="M134 1153q4 -27 13 -44t26.5 -29t44.5 -22t66 -22q38 -12 67 -22.5t49 -24t30 -31t10 -42.5q0 -60 -31.5 -172t-99.5 -274q-38 8 -68 24q10 36 18 72t14 68t9 58.5t3 43.5q0 16 -4.5 27.5t-14.5 20.5t-26.5 17t-40.5 16q-42 14 -75 25.5t-55.5 25t-34 31t-11.5 43.5
q0 17 6 43.5t15.5 55.5t21 57t22.5 49q8 5 21.5 5.5t24.5 0.5z" />
    <glyph glyph-name="uni05DA" unicode="&#x5da;" horiz-adv-x="953" 
d="M838 842q-71 0 -99.5 -36t-28.5 -109q0 -116 4 -228.5t10.5 -213.5t14 -187t14.5 -150q6 -57 10 -92t4 -44q0 -19 -4 -30.5t-13 -22.5q-22 -28 -47 -61t-44 -62q-28 -3 -55 0q-3 46 -5.5 122t-4.5 170t-3 199.5t-1 209.5q0 83 1 162t3.5 147.5t5 123.5t5.5 90h-410
q-36 0 -70 3t-60.5 14t-42.5 32t-16 56q0 9 3.5 28t10.5 44.5t16.5 57t21.5 64.5q10 5 22 7t23 1q13 -29 27.5 -45.5t33.5 -25t44 -11t59 -2.5h624q4 0 3 -6q-15 -55 -26 -100.5t-22 -97.5q-1 -7 -8 -7z" />
    <glyph glyph-name="uni05DB" unicode="&#x5db;" horiz-adv-x="1097" 
d="M272 1137q13 -29 27.5 -45.5t33.5 -25t44 -11t59 -2.5h237q73 0 132 -29t101 -90.5t64.5 -157.5t22.5 -229q0 -66 -9.5 -141t-24.5 -147.5t-34 -137.5t-38 -111q-3 -7 -7.5 -8.5t-12.5 -1.5h-488q-38 0 -66.5 -0.5t-52.5 -3t-45.5 -8.5t-45.5 -17q-11 2 -22 6t-18 12
q8 34 22.5 77.5t32.5 88.5q11 28 43.5 46t100.5 18h480q12 0 16 7q8 18 16 46.5t14.5 63.5t10.5 75.5t4 82.5q0 72 -14.5 133.5t-42.5 106.5t-69 70.5t-93 25.5h-286q-36 0 -70 3t-60.5 14t-42.5 32t-16 56q0 9 3.5 28t10.5 44.5t16.5 57t21.5 64.5q10 5 22 7t23 1z" />
    <glyph glyph-name="uni05DC" unicode="&#x5dc;" horiz-adv-x="906" 
d="M436 233q105 51 169 110.5t99.5 120.5t47.5 119.5t12 108.5q0 78 -34.5 108t-100.5 30h-359q-56 0 -93.5 11t-60 32t-32 51t-9.5 68q0 77 3.5 124.5t14 82t29 65t49.5 72.5q5 6 6 9.5t1 5.5q0 10 -11.5 19.5t-33.5 26.5q-38 30 -63 56t-25 53q0 15 11 35t28.5 42.5
t40 46.5t45.5 47q9 0 21 -4t20 -9q-4 -19 -3 -31.5t8.5 -24t23 -24t41.5 -32.5q42 -32 59 -51t17 -38q0 -15 -9 -32.5t-23 -35.5t-31.5 -37t-34.5 -37t-27 -34.5t-16 -35t-8 -41t-2 -51.5q0 -32 4 -52.5t16.5 -32.5t36 -16.5t61.5 -4.5h343q62 0 106 -19t72 -51.5t41 -75
t13 -90.5q0 -93 -30.5 -203.5t-90.5 -222.5t-147.5 -217.5t-201.5 -189.5q-23 3 -41 11q9 57 21.5 119t26.5 119z" />
    <glyph glyph-name="uni05DD" unicode="&#x5dd;" horiz-adv-x="1189" 
d="M259 833q-74 2 -101.5 26.5t-27.5 68.5q0 9 4 29t11.5 47t18 59.5t22.5 65.5q10 5 22 7t23 1q13 -29 27.5 -45.5t33.5 -25t44 -11t59 -2.5h419q89 0 139.5 -29.5t75 -85.5t30 -138.5t5.5 -187.5q0 -75 -4 -157t-12 -162t-21.5 -153t-31.5 -130q-3 -10 -15 -10h-728
q-23 0 -29 20q-17 69 -27.5 146t-10.5 156q0 142 22.5 268.5t51.5 242.5zM351 830q-29 -150 -37 -252.5t-8 -171.5q0 -64 6 -101t20 -56t35.5 -24.5t53.5 -5.5h431q37 0 56.5 19.5t28.5 51.5t10 74.5t1 89.5q0 106 -4 178t-20.5 116t-49.5 63t-92 19h-431z" />
    <glyph glyph-name="uni05DE" unicode="&#x5de;" horiz-adv-x="1233" 
d="M142 -20v33q0 67 4.5 134t11.5 129t15.5 117.5t17 99t15.5 73t11 40.5q16 42 42 80.5t52 76.5q11 17 11 32q0 14 -10.5 26.5t-36.5 27.5q-52 28 -82 51.5t-30 56.5q0 15 11 39.5t26.5 51.5t34 53.5t33.5 44.5q7 3 18.5 1t20.5 -6q1 -23 5.5 -37.5t15.5 -26.5t29.5 -23.5
t48.5 -28.5q32 -19 52.5 -37t26.5 -36q30 25 55.5 47.5t48.5 44t44 42.5t43 44q11 2 19.5 3.5t19.5 -0.5q127 -63 207 -104t99 -63q21 -24 36.5 -79.5t26.5 -130t16.5 -162t5.5 -175.5q0 -125 -15.5 -231.5t-35.5 -177.5q-2 -6 -8 -8t-13 -2h-359q-38 0 -67 -0.5t-53.5 -3.5
t-46.5 -9.5t-45 -17.5q-24 3 -36 20q16 34 37.5 75t49.5 86q9 13 21.5 25t30.5 20t43 13t59 5h211q42 0 64.5 16t33 44t12.5 64.5t2 78.5q0 68 -7 128t-20 108.5t-33 84t-45 53.5q-27 19 -64 39t-72.5 36t-65.5 26.5t-43 10.5q-35 0 -67.5 -12.5t-62 -32.5t-54 -45
t-43.5 -51q-29 -40 -46.5 -78t-27 -93.5t-14.5 -140t-9 -217.5q-1 -19 -2.5 -36t-9.5 -29q-14 -23 -29.5 -48.5t-30 -50t-27 -47.5t-21.5 -41q-28 -3 -55 0z" />
    <glyph glyph-name="uni05DF" unicode="&#x5df;" horiz-adv-x="470" 
d="M242 -394q-28 -3 -55 0q-3 48 -7 108.5t-7 128t-5 138t-2 137.5q0 95 1 163t4.5 119.5t11 91.5t19.5 78.5t29.5 81t42.5 99.5q4 9 4.5 13t0.5 8q0 15 -15 24.5t-61 22.5q-36 10 -65 19.5t-49 21.5t-30.5 28t-10.5 40q0 14 6.5 40.5t17 57t23.5 60.5t25 51q8 5 21.5 5.5
t24.5 -1.5q7 -25 15.5 -40t23.5 -25t39.5 -18t62.5 -19q40 -12 66.5 -23.5t42 -24t21.5 -26t6 -28.5q0 -29 -14 -67.5t-37 -89.5q-26 -55 -44.5 -101.5t-30.5 -91t-17.5 -90t-5.5 -97.5q0 -51 4 -117t11 -142.5t16 -161t19 -171.5q2 -12 3.5 -25t1.5 -22q0 -19 -4 -29.5
t-14 -21.5l-46 -52t-43 -52z" />
    <glyph glyph-name="uni05E0" unicode="&#x5e0;" horiz-adv-x="727" 
d="M331 1142q6 -25 15 -40t25 -25.5t41 -19t63 -19.5q42 -12 68.5 -24t41.5 -24.5t20.5 -26t5.5 -29.5q0 -19 -5.5 -38.5t-15.5 -52.5q-13 -45 -21.5 -102.5t-8.5 -127.5q0 -74 11 -147.5t24 -133.5t24 -100t11 -46q0 -1 -2 -7q-8 -24 -14.5 -45t-11.5 -41t-10 -40.5
t-11 -45.5q-1 -4 -4 -5.5t-6 -1.5h-290q-36 0 -62.5 -0.5t-48.5 -3t-41 -8.5t-39 -17q-11 2 -22 6t-18 12q9 34 25.5 77.5t36.5 88.5q12 28 41.5 45t94.5 17h214q-6 51 -11 104t-5 107q0 79 3.5 137t8 97.5t8.5 63t4 33.5q0 13 -6.5 21t-18.5 14t-27.5 10.5t-33.5 9.5
q-39 11 -70.5 20.5t-54 22t-34.5 29.5t-12 42q0 14 6.5 40.5t17 57.5t23.5 61t25 51q8 5 21.5 5.5t24.5 -1.5z" />
    <glyph glyph-name="uni05E1" unicode="&#x5e1;" horiz-adv-x="1138" 
d="M336 -23q-33 39 -65 104.5t-57.5 139t-41.5 144t-16 118.5q0 36 9 79.5t23.5 89.5t32.5 92.5t35 88.5q-79 4 -112 27t-33 68q0 9 4 29t11.5 47t18 59.5t22.5 65.5q10 5 22 7t23 1q13 -29 27.5 -45.5t33.5 -25t44 -11t59 -2.5h396q81 0 135.5 -31t87.5 -81.5t46.5 -115.5
t13.5 -134q0 -79 -14 -168.5t-45.5 -173.5t-81.5 -154t-121 -110q-25 -14 -62 -28t-79.5 -27t-86 -24t-81.5 -19.5t-66.5 -14t-40.5 -6.5q-23 3 -41 11zM358 830q-12 -29 -25 -64.5t-24.5 -73.5t-18.5 -76.5t-7 -73.5q0 -40 12 -86t31.5 -92.5t43.5 -90.5t48 -79
q14 1 43.5 6t67 13t79.5 19t80.5 23t69.5 25t47 26q32 26 57 61.5t42 76t26 84.5t9 86q0 46 -11.5 86t-35.5 68.5t-61.5 45t-89.5 16.5h-383z" />
    <glyph glyph-name="uni05E2" unicode="&#x5e2;" horiz-adv-x="1088" 
d="M804 1141q3 -22 8.5 -36t18 -25t35 -21t59.5 -24q32 -12 57.5 -22.5t43.5 -22.5t27.5 -27t9.5 -36q0 -20 -9 -67.5t-24 -109.5t-35 -133.5t-41 -139.5t-42.5 -127.5t-39.5 -97.5q-15 -30 -32 -54.5t-39 -47t-51 -44t-69 -45.5q-30 -18 -66 -37.5t-80.5 -43t-97 -52
t-115.5 -64.5q-32 -18 -53 -32.5t-36 -28.5t-27 -29.5t-24 -34.5q-23 -3 -43 8q1 22 2.5 41.5t3.5 38.5t5 39.5t7 44.5q3 14 9 31t18 35t31 35.5t49 32.5q48 25 88.5 47.5t78.5 42.5q-38 81 -64.5 140t-43 100.5t-25.5 69.5t-13.5 48t-5 35.5t-0.5 32.5q0 28 14 78t45 123
q4 9 4 16q0 11 -15.5 21t-57.5 31q-34 18 -55 31.5t-33 25.5t-16 24.5t-4 27.5q0 16 9.5 42t24.5 55t32.5 58t33.5 50q2 1 8.5 1.5t14 -0.5t14 -2t9.5 -3q2 -14 4.5 -26.5t12.5 -25.5t29 -27t54 -30q51 -24 77 -41.5t26 -46.5q0 -26 -16.5 -64.5t-36 -81t-36 -84
t-16.5 -71.5q0 -15 1.5 -28.5t7 -32.5t16.5 -47t30.5 -70.5t49 -103t71.5 -144.5q35 19 61.5 33.5t47 28t36.5 26t30 27.5q26 28 51.5 75t45.5 102.5t32.5 115t12.5 113.5q0 21 -4 34.5t-13 23.5t-24.5 18t-37.5 17q-36 15 -61 26.5t-41 23.5t-23 26.5t-7 34.5q0 19 7.5 45
t18.5 54t24 55t24 48q10 2 21 1t22 -3z" />
    <glyph glyph-name="uni05E3" unicode="&#x5e3;" horiz-adv-x="920" 
d="M287 391q-90 18 -145.5 36.5t-86.5 41t-41.5 49.5t-10.5 62q0 25 11 59.5t29 73t41.5 79.5t48.5 80q-36 14 -54.5 33.5t-18.5 51.5q0 14 6 38t15.5 51.5t22 56t25.5 50.5q8 5 21.5 5.5t24.5 -1.5q8 -23 18.5 -39t31 -27.5t54 -20.5t86.5 -18q22 -4 52.5 -9t63.5 -10
t64.5 -9.5t54.5 -7.5q39 -5 69.5 -22t52 -49.5t33 -82.5t11.5 -121q0 -32 -1 -91.5t-1 -131.5q0 -87 4 -173.5t10 -165.5t12.5 -146t11.5 -115q6 -57 10 -92t4 -44q0 -19 -4 -30.5t-13 -22.5q-22 -28 -47 -61t-44 -62q-28 -3 -55 0q-3 43 -5.5 114.5t-4.5 159t-3 186.5
t-1 198q0 48 1.5 99t3 98t3 85.5t1.5 60.5q0 60 -9.5 96.5t-27.5 57.5t-44 30t-59 14q-47 7 -94.5 14.5t-87.5 13.5t-69 9.5t-38 3.5q-4 -4 -13 -19t-18 -35t-15.5 -41.5t-6.5 -38.5q0 -30 11.5 -48.5t34 -30.5t56.5 -21t78 -19z" />
    <glyph glyph-name="uni05E4" unicode="&#x5e4;" horiz-adv-x="1117" 
d="M485 409q-91 17 -148 36t-89.5 42t-44 50.5t-11.5 62.5q0 25 10 56.5t26.5 66t39 72.5t47.5 77q-36 14 -54.5 33.5t-18.5 51.5q0 14 6 38t15.5 51.5t22 56t25.5 50.5q8 5 21.5 5.5t24.5 -1.5q8 -23 18.5 -39t31 -27.5t54 -20.5t86.5 -18q63 -11 138.5 -21.5t165.5 -21.5
q43 -5 73 -40.5t49 -98.5t28 -152t9 -201q0 -37 -2.5 -81.5t-8 -92.5t-12.5 -96t-16.5 -92t-20.5 -81.5t-24 -63.5q-4 -10 -16 -10h-573q-38 0 -67 -0.5t-53.5 -3.5t-46.5 -9.5t-45 -17.5q-11 2 -22 7t-16 13q14 34 33 74.5t45 85.5q17 28 50.5 46t101.5 18h447
q40 0 65 23.5t39 62.5t19 89.5t5 105.5q0 139 -36 215t-105 87q-59 9 -118.5 18t-108.5 16t-82.5 11.5t-40.5 4.5q-4 -4 -11.5 -15.5t-15 -27t-13 -33.5t-5.5 -34q0 -34 12.5 -54t36.5 -32.5t59 -20.5t79 -18z" />
    <glyph glyph-name="uni05E5" unicode="&#x5e5;" horiz-adv-x="970" 
d="M344 -394q-28 -3 -55 0q-8 102 -17 208.5t-16.5 206.5t-12.5 186t-5 146q0 84 3.5 136.5t10 91.5t17.5 75t26 87q4 15 4 27q0 17 -16.5 26.5t-53.5 23.5q-36 12 -63.5 22.5t-47 23t-29.5 28.5t-10 40q0 14 6.5 39.5t17 55t23 58.5t24.5 50q8 5 21.5 5.5t24.5 -1.5
q7 -25 15 -40t22 -25.5t37.5 -19.5t61.5 -22q37 -13 62 -24t40 -22t21.5 -22.5t6.5 -26.5q0 -17 -8 -37.5t-20 -49.5q-23 -53 -37.5 -90.5t-23 -73t-12 -75.5t-3.5 -97v-21q0 -8 1 -15q78 15 138 39.5t104.5 52.5t75 58t49.5 57.5t27 50.5t8 37q0 23 -13.5 40t-42.5 40
l-47.5 38t-26.5 24.5t-11.5 21t-2.5 27.5q0 18 12 41t30.5 47t39.5 48t39 44q7 2 19.5 -0.5t22.5 -6.5q-3 -22 -1 -37.5t12 -29.5t29.5 -30.5t51.5 -40.5q25 -19 42 -32t27.5 -25t15.5 -23.5t5 -27.5q0 -20 -14.5 -58t-45 -87t-77.5 -105t-113 -111t-151.5 -105.5
t-191.5 -87.5q6 -64 14 -132t18 -136t21.5 -135t23.5 -128q2 -12 4 -23.5t2 -20.5q0 -32 -19 -54l-46 -52t-43 -52z" />
    <glyph glyph-name="uni05E6" unicode="&#x5e6;" horiz-adv-x="1091" 
d="M284 1140q2 -14 4.5 -26.5t12.5 -25.5t29 -27t54 -30q51 -24 76.5 -41.5t25.5 -46.5q0 -19 -15 -52.5t-32 -78.5q-11 -27 -15.5 -49t-4.5 -45q0 -24 14.5 -52.5t40 -61t60 -67.5t73.5 -71q38 31 74.5 72t64.5 82t45 77t17 57q0 23 -14 40t-43 40q-30 24 -49 40t-30 29.5
t-15.5 26t-4.5 29.5q0 18 13 42t32 49.5t41 50.5t40 45q7 2 19.5 -0.5t22.5 -6.5q-3 -22 -1 -37.5t12 -29.5t29.5 -30.5t51.5 -40.5q51 -38 76 -64t25 -58q0 -20 -14 -52.5t-38 -73t-56.5 -86.5t-69.5 -92.5t-77 -91t-79 -82.5q38 -34 76.5 -64.5t73 -56.5t64 -46.5
t50.5 -34.5q4 -3 2 -8q-6 -16 -14.5 -40t-17.5 -50.5t-17 -52.5t-13 -46q-1 -4 -4 -5.5t-6 -1.5q-45 0 -107 1t-127 1.5t-126.5 1.5t-107.5 1h-58q-29 0 -51.5 -1t-42 -4.5t-37.5 -9t-39 -14.5q-11 2 -22 6t-18 12q10 34 26.5 73t37.5 84q12 27 44.5 47t92.5 20q9 0 38 -0.5
t67 -1t79 -1.5t73 -2q7 0 20.5 -0.5t28.5 -1.5t29 -2t23 -2q-7 6 -17 14t-21 17t-21 17t-17 14q-83 75 -141.5 132.5t-95.5 103.5t-54 83.5t-17 73.5q0 29 2.5 55t10.5 61q2 11 -14.5 21.5t-64.5 35.5q-34 18 -55 31.5t-33 25.5t-16 24.5t-4 27.5q0 16 9.5 42t24.5 55
t32.5 58t33.5 50q2 1 8.5 1.5t14 -0.5t14 -2t9.5 -3z" />
    <glyph glyph-name="uni05E7" unicode="&#x5e7;" horiz-adv-x="1086" 
d="M227 1137q13 -29 27.5 -45.5t33.5 -25t44 -11t59 -2.5h428q69 0 117 -24.5t77 -66.5t42 -98.5t13 -120.5q0 -86 -16.5 -168.5t-42 -155.5t-57.5 -131.5t-63 -95.5q-42 -51 -125.5 -99t-209.5 -109q-23 3 -41 11q22 111 57 220q121 48 190 84.5t99 68.5q22 24 38.5 56.5
t27.5 69.5t16.5 76.5t5.5 77.5q0 37 -8 70t-25.5 58t-44.5 39.5t-66 14.5h-484q-36 0 -70 3t-60.5 14t-42.5 32t-16 56q0 9 3.5 28t10.5 44.5t16.5 57t21.5 64.5q10 5 22 7t23 1zM348 627q-11 -51 -14.5 -99t-3.5 -99q0 -112 6.5 -269t24.5 -346q2 -14 3 -27t1 -26
q0 -14 -3.5 -27t-14.5 -24q-49 -52 -89 -104q-27 -3 -53 0q-1 9 -1.5 32.5t-1 56.5t-0.5 75v88q0 61 0.5 143.5t2 170t3.5 172t4 150.5q1 24 14 43q21 30 39.5 53t44.5 50q20 -3 38 -13z" />
    <glyph glyph-name="uni05E8" unicode="&#x5e8;" horiz-adv-x="997" 
d="M99 1137q13 -29 27.5 -45.5t33.5 -25t44 -11t59 -2.5h296q63 0 116 -13t91.5 -43t59.5 -78t21 -118q0 -29 -3 -59q-2 -23 -3.5 -50.5t-1.5 -69.5q0 -88 10.5 -173.5t22.5 -166.5q6 -42 12.5 -78t6.5 -56q0 -19 -4 -29t-14 -22q-22 -27 -45 -58.5t-41 -58.5q-28 -3 -55 0
q-2 19 -4 55t-4 77.5t-3 82.5t-1 71q0 94 1 152.5t2.5 98t3.5 68.5t3 65q2 87 -44 133.5t-152 46.5h-349q-36 0 -69.5 2.5t-59 12.5t-41 30.5t-15.5 55.5q0 9 4 28.5t11 46t17 58.5t22 65q10 5 22 7t23 1z" />
    <glyph glyph-name="uni05E9" unicode="&#x5e9;" horiz-adv-x="1467" 
d="M733 786q0 9 -3.5 16t-12 13t-22 12.5t-34.5 15.5q-20 9 -37.5 17t-31 18.5t-21 24t-7.5 32.5q0 16 7 41.5t18.5 54t25.5 57t28 50.5q6 2 22 2q8 0 14.5 -1t9.5 -2q3 -17 6.5 -29t15 -23.5t33.5 -23.5t62 -28q45 -17 66 -31.5t22 -37.5q0 -40 -14 -95.5t-38.5 -120.5
t-58.5 -137t-73 -144.5t-82.5 -142t-87.5 -129.5q51 7 113 18.5t122.5 26t112.5 31t84 31.5q33 16 66 54.5t62.5 87.5t55 102.5t44 100.5t29 81.5t10.5 44.5q0 17 -15 30.5t-60 30.5q-23 8 -43 16t-35 18.5t-23.5 24.5t-8.5 34q0 22 6.5 49t17 55t22.5 55t23 49q3 1 9 2
t13 1t14 -0.5t10 -1.5q4 -22 11.5 -35t21.5 -23t35.5 -18t53.5 -19q51 -18 77.5 -38.5t26.5 -47.5q0 -34 -19 -105t-51 -160t-74 -185.5t-87 -180.5t-91 -145t-86 -80q-36 -17 -86 -33.5t-106.5 -31t-114.5 -27t-109 -21.5t-91 -14t-60 -5q-13 2 -27 6t-24 10
q-35 107 -60 196.5t-41 166t-23.5 141t-7.5 121.5q0 46 9.5 87t23.5 83q4 11 3 18.5t-8 14.5t-21 15l-35 20q-25 13 -46 24.5t-36 23.5t-23.5 26t-8.5 32q0 16 9 40t23 51t30.5 54t32.5 48q2 1 8.5 1.5t14 -0.5t14 -2t9.5 -3q2 -16 6 -26.5t15.5 -20t33.5 -21t61 -29.5
q86 -41 86 -78q0 -16 -9.5 -38.5t-23.5 -51.5q-9 -20 -20 -45t-20 -53.5t-15.5 -59t-6.5 -62.5q0 -45 11.5 -97t29 -107t38.5 -110t41 -106q33 44 66 95t63 104t55.5 105t44.5 98.5t30 85t11 62.5z" />
    <glyph glyph-name="uni05EA" unicode="&#x5ea;" horiz-adv-x="1301" 
d="M877 830h-397q-22 -50 -36 -88.5t-22.5 -69.5t-11.5 -57t-3 -51q0 -31 6.5 -68.5t21 -83t36.5 -101t52 -123.5q1 -4 0 -8q-8 -24 -14.5 -45.5t-12 -42t-10.5 -41.5t-11 -46q-1 -4 -4 -5.5t-6 -1.5q-27 1 -70 3.5t-88 2.5q-49 0 -92 -5.5t-59 -22.5q-11 2 -22 6t-18 12
q18 69 58 157q6 14 16.5 25t28.5 18.5t45.5 12.5t66.5 7q-20 62 -31.5 105.5t-17.5 75t-7.5 53.5t-1.5 41q0 24 5 54t16.5 70t31.5 93t50 124q-31 1 -59.5 5.5t-50.5 16t-35.5 31.5t-13.5 52q0 9 3.5 28t10.5 44.5t16.5 57t21.5 64.5q10 5 22 7t23 1q13 -29 27.5 -45.5
t33.5 -25t44 -11t59 -2.5h424q55 0 100 -11.5t77 -38t49 -69t17 -103.5q0 -46 -5.5 -90t-5.5 -92q0 -94 10.5 -188t22.5 -179l11 -77t5 -55q0 -19 -4 -30.5t-13 -23.5q-22 -29 -40.5 -57.5t-35.5 -58.5q-28 -3 -55 0q-3 19 -6.5 55t-6.5 77.5t-5 82.5t-2 71q0 102 1 165
t2 106t2.5 75t2.5 71q1 35 -5 62.5t-23 46t-45.5 28.5t-72.5 10z" />
    <glyph glyph-name="uni05F0" unicode="&#x5f0;" horiz-adv-x="1125" 
d="M322 -20q-2 20 -4 56.5t-4 78t-3 83.5t-1 72q0 103 3 176.5t7 128.5t7 97t3 82q0 15 -7 24.5t-19 16t-27.5 10.5t-31.5 9q-39 11 -70.5 20.5t-54.5 22t-35.5 29.5t-12.5 42q0 14 6.5 40.5t17 57t23.5 60.5t25 51q8 5 21.5 5.5t24.5 -1.5q6 -24 16.5 -39.5t28.5 -26.5
t44 -19t64 -18q34 -9 56 -17t34 -16.5t16.5 -18.5t4.5 -22q0 -8 -3 -26.5t-6 -39.5q-5 -34 -10.5 -82.5t-5.5 -123.5q0 -105 9.5 -208.5t23.5 -197.5q6 -42 11 -79t5 -57q0 -19 -4 -30t-13 -23q-22 -29 -44.5 -60t-39.5 -57q-28 -3 -55 0zM840 -20q-2 20 -4 56.5t-4 78
t-3 83.5t-1 72q0 103 3 176.5t7 128.5t7 97t3 82q0 15 -7 24.5t-19 16t-27.5 10.5t-31.5 9q-39 11 -70.5 20.5t-54.5 22t-35.5 29.5t-12.5 42q0 14 6.5 40.5t17 57t23.5 60.5t25 51q8 5 21.5 5.5t24.5 -1.5q6 -24 16.5 -39.5t28.5 -26.5t44 -19t64 -18q34 -9 56 -17
t34 -16.5t16.5 -18.5t4.5 -22q0 -8 -3 -26.5t-6 -39.5q-5 -34 -10.5 -82.5t-5.5 -123.5q0 -105 9.5 -208.5t23.5 -197.5q6 -42 11 -79t5 -57q0 -19 -4 -30t-13 -23q-22 -29 -44.5 -60t-39.5 -57q-28 -3 -55 0z" />
    <glyph glyph-name="uni05F1" unicode="&#x5f1;" horiz-adv-x="1067" 
d="M784 -20q-2 20 -4 56.5t-4 78t-3 83.5t-1 72q0 103 3 176.5t7 128.5t7 97t3 82q0 15 -7 24.5t-19 16t-27.5 10.5t-31.5 9q-39 11 -70.5 20.5t-54.5 22t-35.5 29.5t-12.5 42q0 14 6.5 40.5t17 57t23.5 60.5t25 51q8 5 21.5 5.5t24.5 -1.5q6 -24 16.5 -39.5t28.5 -26.5
t44 -19t64 -18q34 -9 56 -17t34 -16.5t16.5 -18.5t4.5 -22q0 -8 -3 -26.5t-6 -39.5q-5 -34 -10.5 -82.5t-5.5 -123.5q0 -105 9.5 -208.5t23.5 -197.5q6 -42 11 -79t5 -57q0 -19 -4 -30t-13 -23q-22 -29 -44.5 -60t-39.5 -57q-28 -3 -55 0zM113 1153q4 -27 13 -44t26.5 -29
t44.5 -22t66 -22q38 -12 67 -22.5t49 -24t30 -31t10 -42.5q0 -60 -31.5 -172t-99.5 -274q-38 8 -68 24q10 36 18 72t14 68t9 58.5t3 43.5q0 16 -4.5 27.5t-14.5 20.5t-26.5 17t-40.5 16q-42 14 -75 25.5t-55.5 25t-34 31t-11.5 43.5q0 17 6 43.5t15.5 55.5t21 57t22.5 49
q8 5 21.5 5.5t24.5 0.5z" />
    <glyph glyph-name="uni05F2" unicode="&#x5f2;" horiz-adv-x="1118" 
d="M197 1153q4 -27 13 -44t26.5 -29t44.5 -22t66 -22q38 -12 67 -22.5t49 -24t30 -31t10 -42.5q0 -60 -31.5 -172t-99.5 -274q-38 8 -68 24q10 36 18 72t14 68t9 58.5t3 43.5q0 16 -4.5 27.5t-14.5 20.5t-26.5 17t-40.5 16q-42 14 -75 25.5t-55.5 25t-34 31t-11.5 43.5
q0 17 6 43.5t15.5 55.5t21 57t22.5 49q8 5 21.5 5.5t24.5 0.5zM709 1153q4 -27 13 -44t26.5 -29t44.5 -22t66 -22q38 -12 67 -22.5t49 -24t30 -31t10 -42.5q0 -60 -31.5 -172t-99.5 -274q-38 8 -68 24q10 36 18 72t14 68t9 58.5t3 43.5q0 16 -4.5 27.5t-14.5 20.5t-26.5 17
t-40.5 16q-42 14 -75 25.5t-55.5 25t-34 31t-11.5 43.5q0 17 6 43.5t15.5 55.5t21 57t22.5 49q8 5 21.5 5.5t24.5 0.5z" />
    <glyph glyph-name="uni05F3" unicode="&#x5f3;" horiz-adv-x="369" 
d="M364 1100q2 -11 2.5 -20t0.5 -20q-67 -91 -132 -186.5t-125 -188.5q-26 2 -49 13q24 105 50.5 208t56.5 206q8 25 33 25q8 0 22 -3z" />
    <glyph glyph-name="uni05F4" unicode="&#x5f4;" horiz-adv-x="762" 
d="M409 1100q2 -11 2.5 -20t0.5 -20q-67 -91 -132 -186.5t-125 -188.5q-26 2 -49 13q24 105 50.5 208t56.5 206q8 25 33 25q8 0 22 -3zM709 1091q2 -11 2.5 -20t0.5 -20q-67 -91 -132 -186.5t-125 -188.5q-26 2 -49 13q24 105 50.5 208t56.5 206q8 25 33 25q8 0 22 -3z" />
    <glyph glyph-name="uni1E9E" unicode="&#x1e9e;" horiz-adv-x="1317" 
d="M563 932l354 434h-225q-96 0 -159.5 -36.5t-101.5 -101t-53.5 -152.5t-15.5 -192l-2 -884h-212v879q0 144 24.5 257t86.5 191t167 119t266 41h509l-437 -514h15q81 0 160 -28.5t141 -83.5t100.5 -136t38.5 -186q0 -122 -44 -221.5t-134.5 -170t-230 -109t-330.5 -38.5
v110q118 0 209.5 28.5t154 83t94.5 134.5t32 183q0 73 -20.5 130t-56 96t-84.5 59.5t-106 20.5q-32 0 -56 -3.5t-44 -8.5z" />
    <glyph glyph-name="endash" unicode="&#x2013;" horiz-adv-x="1431" 
d="M167 504v139h1096v-139h-1096z" />
    <glyph glyph-name="emdash" unicode="&#x2014;" horiz-adv-x="1703" 
d="M167 504v139h1368v-139h-1368z" />
    <glyph glyph-name="quoteleft" unicode="&#x2018;" horiz-adv-x="489" 
d="M328 1155h-203v160q0 40 15 72t41.5 54.5t61.5 34t75 11.5h98v-90q-29 0 -46.5 -1.5t-26.5 -9.5t-12 -24.5t-3 -46.5v-160z" />
    <glyph glyph-name="quoteright" unicode="&#x2019;" horiz-adv-x="491" 
d="M164 1487h203v-160q0 -41 -15 -72.5t-41 -54t-61 -34t-75 -11.5h-99v90q29 0 46.5 1.5t26.5 9.5t12 24.5t3 46.5v160z" />
    <glyph glyph-name="quotesinglbase" unicode="&#x201a;" horiz-adv-x="492" 
d="M164 160h203v-160q0 -41 -15 -73t-41 -54t-61 -33.5t-75 -11.5h-99v90q29 0 46.5 1.5t26.5 9.5t12 24.5t3 46.5v160z" />
    <glyph glyph-name="quotedblleft" unicode="&#x201c;" horiz-adv-x="908" 
d="M350 1155h-203v160q0 40 15 72t41.5 54.5t61.5 34t75 11.5h98v-90q-29 0 -46.5 -1.5t-26.5 -9.5t-12 -24.5t-3 -46.5v-160zM700 1155h-202v160q0 40 15 72t41 54.5t61 34t75 11.5h98v-90q-29 0 -46.5 -1.5t-26.5 -9.5t-12 -24.5t-3 -46.5v-160z" />
    <glyph glyph-name="quotedblright" unicode="&#x201d;" horiz-adv-x="910" 
d="M210 1487h203v-160q0 -41 -15 -72.5t-41 -54t-61 -34t-75 -11.5h-99v90q29 0 46.5 1.5t26.5 9.5t12 24.5t3 46.5v160zM561 1487h202v-160q0 -41 -15 -72.5t-41 -54t-61 -34t-75 -11.5h-98v90q29 0 46.5 1.5t26.5 9.5t12 24.5t3 46.5v160z" />
    <glyph glyph-name="quotedblbase" unicode="&#x201e;" horiz-adv-x="872" 
d="M207 160h203v-160q0 -41 -15 -73t-41 -54t-61 -33.5t-75 -11.5h-99v90q29 0 46.5 1.5t26.5 9.5t12 24.5t3 46.5v160zM523 160h203v-160q0 -41 -15 -73t-41.5 -54t-61.5 -33.5t-75 -11.5h-98v90q29 0 46.5 1.5t26.5 9.5t12 24.5t3 46.5v160z" />
    <glyph glyph-name="dagger" unicode="&#x2020;" horiz-adv-x="1024" 
d="M975 805h-379v-1088h-166v1088h-377v149h377v414h166v-414h379v-149z" />
    <glyph glyph-name="daggerdbl" unicode="&#x2021;" horiz-adv-x="1024" 
d="M975 90h-377v-373h-166v373h-377v146h377v616h-377v147h377v369h166v-369h377v-147h-377v-616h377v-146z" />
    <glyph glyph-name="bullet" unicode="&#x2022;" horiz-adv-x="741" 
d="M371 852q57 0 106 -21t85.5 -58t57.5 -86t21 -105q0 -57 -21 -107t-57.5 -86.5t-85.5 -58t-106 -21.5q-56 0 -105.5 21.5t-86.5 58t-58 86.5t-21 107q0 56 21 105t58 86t86.5 58t105.5 21z" />
    <glyph glyph-name="ellipsis" unicode="&#x2026;" horiz-adv-x="1419" 
d="M370 0h-203v160h203v-160zM810 0h-203v160h203v-160zM1250 0h-203v160h203v-160z" />
    <glyph glyph-name="perthousand" unicode="&#x2030;" horiz-adv-x="2482" 
d="M1141 1384h131l-641 -1415h-131zM1350 717q71 0 134 -28t110 -77t74.5 -115t27.5 -141q0 -76 -27.5 -142t-74.5 -115t-109.5 -77t-132.5 -28q-72 0 -135 28t-110.5 77t-75 115t-27.5 142q0 75 28 141t75.5 115t110 77t132.5 28zM1350 72q46 0 78.5 21t52.5 58.5
t29.5 88.5t9.5 112q0 62 -9 114.5t-29 90.5t-52.5 59t-79.5 21t-79.5 -21t-52.5 -59t-29 -90.5t-9 -114.5q0 -61 9.5 -112t29.5 -88.5t52.5 -58.5t78.5 -21zM445 1362q71 0 134 -28t110 -77t74.5 -115t27.5 -141q0 -76 -27.5 -142t-74.5 -115t-109.5 -77t-132.5 -28
q-72 0 -135 28t-110.5 77t-75 115t-27.5 142q0 75 28 141t75 115t110 77t133 28zM445 717q46 0 78.5 21t52.5 58.5t29.5 89t9.5 111.5q0 62 -9 114.5t-29 90.5t-52.5 59t-79.5 21t-79.5 -21t-52.5 -59t-29 -90.5t-9 -114.5q0 -60 9.5 -111.5t29.5 -89t52.5 -58.5t78.5 -21z
M2100 717q71 0 134 -28t110 -77t74.5 -115t27.5 -141q0 -76 -27.5 -142t-74.5 -115t-109.5 -77t-132.5 -28q-72 0 -135 28t-110.5 77t-75 115t-27.5 142q0 75 28 141t75.5 115t110 77t132.5 28zM2100 72q46 0 78.5 21t52.5 58.5t29.5 88.5t9.5 112q0 62 -9 114.5t-29 90.5
t-52.5 59t-79.5 21t-79.5 -21t-52.5 -59t-29 -90.5t-9 -114.5q0 -61 9.5 -112t29.5 -88.5t52.5 -58.5t78.5 -21z" />
    <glyph glyph-name="guilsinglleft" unicode="&#x2039;" horiz-adv-x="530" 
d="M291 860h143l-283 -375l283 -374h-143l-283 374z" />
    <glyph glyph-name="guilsinglright" unicode="&#x203a;" horiz-adv-x="530" 
d="M239 111h-143l283 374l-283 375h143l283 -375z" />
    <glyph glyph-name="fraction" unicode="&#x2044;" horiz-adv-x="919" 
d="M801 1439h118l-801 -1545h-118z" />
    <glyph glyph-name="foursuperior" unicode="&#x2074;" horiz-adv-x="804" 
d="M624 696h86v-88h-86v-135h-182v135h-439v58l488 688h133v-658zM442 696v449l-312 -449h312z" />
    <glyph glyph-name="uni20AA" unicode="&#x20aa;" horiz-adv-x="1465" 
d="M291 830q-3 -28 -5 -61.5t-2 -76.5q0 -77 3.5 -155t8.5 -155.5t10 -154t8 -150.5q1 -19 -2 -25.5t-14 -14.5q-20 -13 -36.5 -25t-40.5 -32q-26 -3 -50 0q-2 20 -4 56.5t-3.5 78t-2.5 83.5t-1 72q0 158 10 313.5t10 298.5q0 42 -1.5 81.5t-6.5 77.5q-2 12 10 12h549
q62 0 106 -13t72 -43t41 -78t13 -118v-106q0 -54 1.5 -112.5t8.5 -123.5q1 -14 -7 -17q-22 -8 -45 -18t-46 -21q-9 0 -16 2t-15 5q3 52 4.5 86t2.5 61.5t1.5 54.5t0.5 65q0 37 -5 65.5t-20 48t-44 29.5t-77 10h-416zM639 219h393q49 0 80.5 13t50 38t25.5 61t7 82
q0 49 -6 109.5t-13 130.5t-13.5 149t-6.5 165q0 19 2.5 25.5t13.5 14.5q20 13 36.5 25t40.5 32q26 3 50 0q5 -176 9.5 -319.5t4.5 -258.5q0 -125 -10 -216.5t-37.5 -151.5t-77 -89t-128.5 -29h-536q-12 0 -10 12q5 38 6.5 77.5t1.5 81.5v110t-1 106t-3.5 108.5t-6.5 115.5
q-1 14 7 17q21 8 46.5 18t49.5 21q8 0 15.5 -2t15.5 -5q-4 -53 -6.5 -89.5t-4 -66.5t-2 -58.5t-0.5 -65.5q0 -44 1.5 -87.5t5.5 -73.5z" />
    <glyph glyph-name="Euro" unicode="&#x20ac;" horiz-adv-x="1317" 
d="M38 741l39 90h129q27 120 92.5 220t161.5 173t219 113.5t264 40.5q24 0 62.5 -4t82.5 -13t88.5 -24t80.5 -37l-31 -73q-28 10 -54.5 19t-56 15.5t-65 10.5t-80.5 4q-108 0 -198.5 -32t-160.5 -90t-118 -140.5t-70 -182.5h613l-31 -90h-595q-3 -35 -3 -71q0 -17 0.5 -34
t1.5 -34h549l-33 -90h-503q19 -98 63 -179.5t112 -140.5t160.5 -91.5t208.5 -32.5q79 0 143.5 13t130.5 42l2 -84q-84 -43 -170.5 -58.5t-171.5 -15.5q-134 0 -250.5 38t-208 109t-153.5 172t-86 228h-164l39 90h113q-1 17 -1.5 34t-0.5 34q0 35 3 71h-153z" />
    <glyph glyph-name="afii61352" unicode="&#x2116;" horiz-adv-x="2245" 
d="M1864 1268q-43 0 -78.5 -16.5t-60.5 -44t-38.5 -64.5t-13.5 -79t14 -79t39 -65t60.5 -44t77.5 -16t77 16t60.5 44t39.5 65t14 79t-14 79.5t-39.5 65t-60.5 43.5t-77 16zM223 1374l-83 113h271l843 -1213v1213h128v-1487h-191l-841 1202v-1202h-127v1374zM2189 1064
q0 -67 -24 -126t-67 -103.5t-102.5 -70t-131.5 -25.5t-131.5 25.5t-102 70t-66.5 103.5t-24 126t24 126t66.5 103t102 70t131.5 26t131.5 -26t102.5 -70t67 -103t24 -126zM1584 646h556v-121h-556v121z" />
    <glyph glyph-name="trademark" unicode="&#x2122;" horiz-adv-x="1278" 
d="M468 1374v-39h-144v-554h-87v554h-145v39h376zM836 1136l185 213v25h88v-593h-88v507l-209 -241l-208 242v-508h-41v556l-32 37h102z" />
    <glyph glyph-name="minus" unicode="&#x2212;" horiz-adv-x="1373" 
d="M167 504v139h1037v-139h-1037z" />
    <glyph glyph-name="commaaccent" unicode="&#xf6c3;" horiz-adv-x="420" 
d="M167 -59h160v-154q0 -193 -160 -221v76q41 14 58.5 40.5t17.5 86.5h-76v172z" />
    <glyph glyph-name="uniFB1D" unicode="&#xfb1d;" horiz-adv-x="445" 
d="M131 1153q4 -27 13 -44t26.5 -29t44.5 -22t66 -22q38 -12 67 -22.5t49 -24t30 -31t10 -42.5q0 -60 -31.5 -172t-99.5 -274q-38 8 -68 24q10 36 18 72t14 68t9 58.5t3 43.5q0 16 -4.5 27.5t-14.5 20.5t-26.5 17t-40.5 16q-42 14 -75 25.5t-55.5 25t-34 31t-11.5 43.5
q0 17 6 43.5t15.5 55.5t21 57t22.5 49q8 5 21.5 5.5t24.5 0.5zM143 -251q0 35 23.5 58.5t58.5 23.5t58.5 -23.5t23.5 -58.5t-23.5 -58.5t-58.5 -23.5t-58.5 23.5t-23.5 58.5z" />
    <glyph glyph-name="uniFB1E" unicode="&#xfb1e;" horiz-adv-x="729" 
d="M365 1280q37 16 83.5 32.5t90.5 30.5t81.5 24.5t58.5 15.5q6 -5 8.5 -13.5t4.5 -15.5q-106 -48 -188 -89.5t-139 -76.5q-57 35 -138.5 76.5t-187.5 89.5q2 7 4.5 15.5t8.5 13.5q21 -5 58.5 -15.5t81.5 -24.5t90 -30.5t83 -32.5z" />
    <glyph glyph-name="uniFB1F" unicode="&#xfb1f;" horiz-adv-x="1094" 
d="M973 287h-860l9 94h860zM184 1153q4 -27 13 -44t26.5 -29t44.5 -22t66 -22q38 -12 67 -22.5t49 -24t30 -31t10 -42.5q0 -60 -31.5 -172t-99.5 -274q-38 8 -68 24q10 36 18 72t14 68t9 58.5t3 43.5q0 16 -4.5 27.5t-14.5 20.5t-26.5 17t-40.5 16q-42 14 -75 25.5t-55.5 25
t-34 31t-11.5 43.5q0 17 6 43.5t15.5 55.5t21 57t22.5 49q8 5 21.5 5.5t24.5 0.5zM696 1153q4 -27 13 -44t26.5 -29t44.5 -22t66 -22q38 -12 67 -22.5t49 -24t30 -31t10 -42.5q0 -60 -31.5 -172t-99.5 -274q-38 8 -68 24q10 36 18 72t14 68t9 58.5t3 43.5q0 16 -4.5 27.5
t-14.5 20.5t-26.5 17t-40.5 16q-42 14 -75 25.5t-55.5 25t-34 31t-11.5 43.5q0 17 6 43.5t15.5 55.5t21 57t22.5 49q8 5 21.5 5.5t24.5 0.5z" />
    <glyph glyph-name="uni05E2.alt" unicode="&#xfb20;" horiz-adv-x="1144" 
d="M825 1141q3 -22 8.5 -36t18.5 -24.5t35.5 -20.5t59.5 -24q31 -12 54.5 -21.5t39.5 -20t23.5 -24t7.5 -34.5q0 -19 -4 -60t-11.5 -95.5t-18 -118.5t-22.5 -130t-26 -130t-28.5 -118.5t-29 -95t-28.5 -59.5q-16 -20 -32.5 -32.5t-36.5 -21t-44.5 -14t-56.5 -11.5
q-88 -16 -194 -26t-244 -22q-27 -2 -46 -8.5t-34 -17.5t-27 -27t-25 -37q-23 -3 -43 8q5 46 12 91t19 97q6 24 21.5 42.5t37 31t47 19.5t51.5 9q23 2 45.5 3t42.5 3q-36 94 -57.5 150.5t-32.5 91t-14.5 56t-3.5 45.5q0 28 16 80.5t47 125.5q4 9 4 16q0 11 -15.5 21t-57.5 31
q-34 18 -54.5 31t-31 24.5t-14 23.5t-3.5 27q0 16 9.5 42t24.5 55t32.5 58t33.5 50q2 1 8.5 1.5t14 -0.5t14 -2t9.5 -3q2 -14 4.5 -26.5t12.5 -25.5t29 -27t54 -30q50 -24 74 -40t24 -45q0 -26 -17 -65.5t-37.5 -83t-37.5 -85.5t-17 -72q0 -14 1.5 -27.5t7 -32t15 -45
t26.5 -67t42 -98.5t60 -139q61 6 103 11.5t69.5 11.5t44.5 13.5t29 17.5q23 19 43.5 69t35.5 114t24 134t9 130q0 21 -5 35.5t-15 25t-26.5 19t-38.5 17.5q-36 15 -61 27t-41 24t-23 26.5t-7 34.5q0 19 7.5 45t18.5 54t24 55t24 48q10 2 21 1t22 -3z" />
    <glyph glyph-name="uni05D0.wide" unicode="&#xfb21;" horiz-adv-x="1905" 
d="M331 1128q-1 -8 -1 -17v-16q0 -64 37 -114t122 -102t224 -113.5t344 -148.5l87.5 -37.5t89.5 -39t84.5 -38t74.5 -34.5q61 61 97 106t55 76.5t25 52.5t6 36q0 23 -14.5 42t-53.5 51q-32 27 -52 45t-31 32t-15 26t-4 26q0 24 29.5 67.5t101.5 109.5q13 -1 23.5 -3.5
t20.5 -7.5q-1 -10 -1.5 -17t-0.5 -13q0 -11 3 -20t12.5 -19.5t26.5 -25.5t44 -38q31 -26 52 -46t34 -36.5t18.5 -30t5.5 -25.5q0 -19 -6.5 -47t-35 -77t-87 -123.5t-162.5 -185.5q131 -67 201.5 -121t70.5 -96q0 -18 -8 -37q-20 -46 -38 -90t-37 -93q-25 -2 -44 3
q-13 38 -26.5 68t-39 57t-67.5 55t-111.5 63t-171 80t-245.5 106q-165 70 -303 129t-244 113q-32 -38 -50 -67t-27 -52t-11.5 -41.5t-2.5 -36.5q0 -30 12.5 -60.5t41 -66.5t74.5 -81t114 -105q2 -5 0 -10l-131 -147q-23 17 -44.5 26.5t-51.5 9.5q-32 0 -74.5 -11.5
t-108.5 -34.5q-7 7 -14.5 19t-10.5 25q31 24 69.5 51t83.5 55q-35 38 -59 70t-39 59.5t-21.5 53.5t-6.5 52q0 31 9.5 66t30.5 76t54 89.5t80 105.5q-81 49 -125.5 96t-44.5 98q0 29 13 56q23 48 48.5 90.5t51.5 87.5q11 3 25 1.5t25 -6.5z" />
    <glyph glyph-name="uni05D3.wide" unicode="&#xfb22;" horiz-adv-x="1674" 
d="M1528 842q-72 0 -101 -36t-29 -109q0 -51 2.5 -104.5t7 -106.5t10.5 -104.5t13 -97.5q6 -41 11.5 -80.5t5.5 -56.5q0 -28 -18 -50q-22 -28 -43.5 -58t-40.5 -59q-28 -3 -55 0q-7 64 -9.5 145.5t-2.5 171.5q0 78 1.5 157t4 150t5.5 129.5t6 96.5h-1106q-36 0 -70 3
t-60.5 14t-42.5 32t-16 56q0 9 3.5 28t10.5 44.5t16.5 57t21.5 64.5q10 5 22 7t23 1q13 -29 27.5 -45.5t33.5 -25t44 -11t59 -2.5h1317q6 0 5 -7q-15 -55 -26 -100t-22 -97q-1 -7 -8 -7z" />
    <glyph glyph-name="uni05D4.wide" unicode="&#xfb23;" horiz-adv-x="1853" 
d="M374 564q-7 -25 -12 -44t-8 -36t-4.5 -34t-2.5 -37l-8 -308q0 -9 -1.5 -17t-8.5 -13q-16 -12 -33 -25.5t-32.5 -26t-29 -24t-22.5 -19.5q-25 -3 -49 0l31 380q4 51 20.5 93.5t38.5 65.5q11 12 31.5 29.5t43.5 31.5q10 -2 24 -6t22 -10zM253 1137q13 -29 27.5 -45.5
t33.5 -25t44 -11t59 -2.5h1067q63 0 105.5 -9t68 -26.5t36 -44t10.5 -61.5q0 -34 -10.5 -74.5t-22.5 -88.5q0 -148 13 -263.5t25 -203.5l11 -77t5 -55q0 -19 -4 -30t-13 -23q-21 -29 -40 -58t-36 -59q-28 -3 -55 0q-3 19 -6.5 55t-6.5 77.5t-5 82.5t-2 71q0 87 0.5 150
t1.5 107.5t2 74.5t2 52q1 27 1.5 48t0.5 48q0 24 -3 40t-13.5 26t-31.5 14t-56 4h-1116q-36 0 -70 3t-60.5 14t-42.5 32t-16 56q0 9 3.5 28t10.5 44.5t16.5 57t21.5 64.5q10 5 22 7t23 1z" />
    <glyph glyph-name="uni05DB.wide" unicode="&#xfb24;" horiz-adv-x="1750" 
d="M287 1137q13 -29 27.5 -45.5t33.5 -25t44 -11t59 -2.5h860q73 0 132 -29t101 -90.5t64.5 -157.5t22.5 -229q0 -66 -9.5 -141t-24.5 -147.5t-34 -137.5t-38 -111q-3 -7 -7.5 -8.5t-12.5 -1.5h-1111q-38 0 -66.5 -0.5t-52.5 -3t-45.5 -8.5t-45.5 -17q-11 2 -22 6t-18 12
q8 34 22.5 77.5t32.5 88.5q11 28 43.5 46t100.5 18h1103q12 0 16 7q8 18 16 46.5t14.5 63.5t10.5 75.5t4 82.5q0 72 -14.5 133.5t-42.5 106.5t-69 70.5t-93 25.5h-909q-36 0 -70 3t-60.5 14t-42.5 32t-16 56q0 9 3.5 28t10.5 44.5t16.5 57t21.5 64.5q10 5 22 7t23 1z" />
    <glyph glyph-name="uni05DC.wide" unicode="&#xfb25;" horiz-adv-x="1498" 
d="M1026 233q105 51 169 110.5t99.5 120.5t47.5 119.5t12 108.5q0 78 -34.5 108t-100.5 30h-975q-56 0 -93.5 11t-60 32t-32 51t-9.5 68q0 77 3.5 124.5t14 82t29 65t49.5 72.5q5 6 6 9.5t1 5.5q0 10 -11.5 19.5t-33.5 26.5q-38 30 -63 56t-25 53q0 15 11 35t28.5 42.5
t40 46.5t45.5 47q9 0 21 -4t20 -9q-4 -19 -3 -31.5t8.5 -24t23 -24t41.5 -32.5q42 -32 59 -51t17 -38q0 -15 -9 -32.5t-23 -35.5t-31.5 -37t-34.5 -37t-27 -34.5t-16 -35t-8 -41t-2 -51.5q0 -32 4 -52.5t16.5 -32.5t36 -16.5t61.5 -4.5h959q62 0 106 -19t72 -51.5t41 -75
t13 -90.5q0 -93 -30.5 -203.5t-90.5 -222.5t-147.5 -217.5t-201.5 -189.5q-23 3 -41 11q9 57 21.5 119t26.5 119z" />
    <glyph glyph-name="uni05DD.wide" unicode="&#xfb26;" horiz-adv-x="1879" 
d="M266 833q-67 4 -93 27t-26 68q0 9 4 29t11.5 47t18 59.5t22.5 65.5q10 5 22 7t23 1q13 -29 27.5 -45.5t33.5 -25t44 -11t59 -2.5h1085q89 0 139.5 -29.5t75 -85.5t30 -138.5t5.5 -187.5q0 -75 -4 -157t-12 -162t-21.5 -153t-31.5 -130q-3 -10 -15 -10h-1404q-23 0 -29 20
q-17 69 -27.5 146t-10.5 156q0 142 22.5 268.5t51.5 242.5zM358 830q-29 -150 -37 -252.5t-8 -171.5q0 -64 6 -101t20 -56t35.5 -24.5t53.5 -5.5h1107q37 0 56.5 19.5t28.5 51.5t10 74.5t1 89.5q0 106 -4 178t-20.5 116t-49.5 63t-92 19h-1107z" />
    <glyph glyph-name="uni05E8.wide" unicode="&#xfb27;" horiz-adv-x="1638" 
d="M99 1137q13 -29 27.5 -45.5t33.5 -25t44 -11t59 -2.5h923q63 0 116 -13t91.5 -43t59.5 -78t21 -118q0 -29 -3 -59q-2 -23 -3.5 -50.5t-1.5 -69.5q0 -88 10.5 -173.5t22.5 -166.5q6 -42 12.5 -78t6.5 -56q0 -19 -4 -29t-14 -22q-22 -27 -45 -58.5t-41 -58.5q-28 -3 -55 0
q-2 19 -4 55t-4 77.5t-3 82.5t-1 71q0 94 1 152.5t2.5 98t3.5 68.5t3 65q2 87 -44 133.5t-152 46.5h-976q-36 0 -69.5 2.5t-59 12.5t-41 30.5t-15.5 55.5q0 9 4 28.5t11 46t17 58.5t22 65q10 5 22 7t23 1z" />
    <glyph glyph-name="uni05EA.wide" unicode="&#xfb28;" horiz-adv-x="2025" 
d="M499 830q-22 -50 -36 -88.5t-22.5 -69.5t-11.5 -57t-3 -51q0 -31 6.5 -68.5t21 -83t36.5 -101t52 -123.5q1 -4 0 -8q-8 -24 -14.5 -45.5t-12 -42t-10.5 -41.5t-11 -46q-1 -4 -4 -5.5t-6 -1.5q-27 1 -70 3.5t-88 2.5q-49 0 -92 -5.5t-59 -22.5q-11 2 -22 6t-18 12
q18 69 58 157q6 14 16.5 25t28.5 18.5t45.5 12.5t66.5 7q-20 62 -31.5 105.5t-17.5 75t-7.5 53.5t-1.5 41q0 24 5 54t16.5 70t31.5 93t50 124q-31 1 -59.5 5.5t-50.5 16t-35.5 31.5t-13.5 52q0 9 3.5 28t10.5 44.5t16.5 57t21.5 64.5q10 5 22 7t23 1q13 -29 27.5 -45.5
t33.5 -25t44 -11t59 -2.5h1120q55 0 100 -11.5t77 -38t49 -69t17 -103.5q0 -46 -5.5 -90t-5.5 -92q0 -94 10.5 -188t22.5 -179l11 -77t5 -55q0 -19 -4 -30.5t-13 -23.5q-22 -29 -40.5 -57.5t-35.5 -58.5q-28 -3 -55 0q-3 19 -6.5 55t-6.5 77.5t-5 82.5t-2 71q0 102 1 165
t2 106t2.5 75t2.5 71q1 35 -5 62.5t-23 46t-45.5 28.5t-72.5 10h-1093z" />
    <glyph glyph-name="uniFB29" unicode="&#xfb29;" horiz-adv-x="1029" 
d="M988 516q3 -44 0 -87h-946q-3 43 0 87h430v430q43 3 87 0v-430h429z" />
    <glyph glyph-name="uniFB2A" unicode="&#xfb2a;" horiz-adv-x="1401" 
d="M675 786q0 9 -3.5 16t-12 13t-22 12.5t-34.5 15.5q-20 9 -37.5 17t-31 18.5t-21 24t-7.5 32.5q0 16 7 41.5t18.5 54t25.5 57t28 50.5q6 2 22 2q8 0 14.5 -1t9.5 -2q3 -17 6.5 -29t15 -23.5t33.5 -23.5t62 -28q45 -17 66 -31.5t22 -37.5q0 -40 -14 -95.5t-38.5 -120.5
t-58.5 -137t-73 -144.5t-82.5 -142t-87.5 -129.5q51 7 113 18.5t122.5 26t112.5 31t84 31.5q33 16 66 54.5t62.5 87.5t55 102.5t44 100.5t29 81.5t10.5 44.5q0 17 -15 30.5t-60 30.5q-23 8 -43 16t-35 18.5t-23.5 24.5t-8.5 34q0 22 6.5 49t17 55t22.5 55t23 49q3 1 9 2
t13 1t14 -0.5t10 -1.5q4 -22 11.5 -35t21.5 -23t35.5 -18t53.5 -19q51 -18 77.5 -38.5t26.5 -47.5q0 -34 -19 -105t-51 -160t-74 -185.5t-87 -180.5t-91 -145t-86 -80q-36 -17 -86 -33.5t-106.5 -31t-114.5 -27t-109 -21.5t-91 -14t-60 -5q-13 2 -27 6t-24 10
q-35 107 -60 196.5t-41 166t-23.5 141t-7.5 121.5q0 46 9.5 87t23.5 83q4 11 3 18.5t-8 14.5t-21 15l-35 20q-25 13 -46 24.5t-36 23.5t-23.5 26t-8.5 32q0 16 9 40t23 51t30.5 54t32.5 48q2 1 8.5 1.5t14 -0.5t14 -2t9.5 -3q2 -16 6 -26.5t15.5 -20t33.5 -21t61 -29.5
q86 -41 86 -78q0 -16 -9.5 -38.5t-23.5 -51.5q-9 -20 -20 -45t-20 -53.5t-15.5 -59t-6.5 -62.5q0 -45 11.5 -97t29 -107t38.5 -110t41 -106q33 44 66 95t63 104t55.5 105t44.5 98.5t30 85t11 62.5zM1003 1304q0 35 23.5 58.5t58.5 23.5t58.5 -23.5t23.5 -58.5t-23.5 -58.5
t-58.5 -23.5t-58.5 23.5t-23.5 58.5z" />
    <glyph glyph-name="uniFB2B" unicode="&#xfb2b;" horiz-adv-x="1406" 
d="M718 786q0 9 -3.5 16t-12 13t-22 12.5t-34.5 15.5q-20 9 -37.5 17t-31 18.5t-21 24t-7.5 32.5q0 16 7 41.5t18.5 54t25.5 57t28 50.5q6 2 22 2q8 0 14.5 -1t9.5 -2q3 -17 6.5 -29t15 -23.5t33.5 -23.5t62 -28q45 -17 66 -31.5t22 -37.5q0 -40 -14 -95.5t-38.5 -120.5
t-58.5 -137t-73 -144.5t-82.5 -142t-87.5 -129.5q51 7 113 18.5t122.5 26t112.5 31t84 31.5q33 16 66 54.5t62.5 87.5t55 102.5t44 100.5t29 81.5t10.5 44.5q0 17 -15 30.5t-60 30.5q-23 8 -43 16t-35 18.5t-23.5 24.5t-8.5 34q0 22 6.5 49t17 55t22.5 55t23 49q3 1 9 2
t13 1t14 -0.5t10 -1.5q4 -22 11.5 -35t21.5 -23t35.5 -18t53.5 -19q51 -18 77.5 -38.5t26.5 -47.5q0 -34 -19 -105t-51 -160t-74 -185.5t-87 -180.5t-91 -145t-86 -80q-36 -17 -86 -33.5t-106.5 -31t-114.5 -27t-109 -21.5t-91 -14t-60 -5q-13 2 -27 6t-24 10
q-35 107 -60 196.5t-41 166t-23.5 141t-7.5 121.5q0 46 9.5 87t23.5 83q4 11 3 18.5t-8 14.5t-21 15l-35 20q-25 13 -46 24.5t-36 23.5t-23.5 26t-8.5 32q0 16 9 40t23 51t30.5 54t32.5 48q2 1 8.5 1.5t14 -0.5t14 -2t9.5 -3q2 -16 6 -26.5t15.5 -20t33.5 -21t61 -29.5
q86 -41 86 -78q0 -16 -9.5 -38.5t-23.5 -51.5q-9 -20 -20 -45t-20 -53.5t-15.5 -59t-6.5 -62.5q0 -45 11.5 -97t29 -107t38.5 -110t41 -106q33 44 66 95t63 104t55.5 105t44.5 98.5t30 85t11 62.5zM238 1304q0 35 23.5 58.5t58.5 23.5t58.5 -23.5t23.5 -58.5t-23.5 -58.5
t-58.5 -23.5t-58.5 23.5t-23.5 58.5z" />
    <glyph glyph-name="uniFB2C" unicode="&#xfb2c;" horiz-adv-x="1401" 
d="M675 786q0 9 -3.5 16t-12 13t-22 12.5t-34.5 15.5q-20 9 -37.5 17t-31 18.5t-21 24t-7.5 32.5q0 16 7 41.5t18.5 54t25.5 57t28 50.5q6 2 22 2q8 0 14.5 -1t9.5 -2q3 -17 6.5 -29t15 -23.5t33.5 -23.5t62 -28q45 -17 66 -31.5t22 -37.5q0 -40 -14 -95.5t-38.5 -120.5
t-58.5 -137t-73 -144.5t-82.5 -142t-87.5 -129.5q51 7 113 18.5t122.5 26t112.5 31t84 31.5q33 16 66 54.5t62.5 87.5t55 102.5t44 100.5t29 81.5t10.5 44.5q0 17 -15 30.5t-60 30.5q-23 8 -43 16t-35 18.5t-23.5 24.5t-8.5 34q0 22 6.5 49t17 55t22.5 55t23 49q3 1 9 2
t13 1t14 -0.5t10 -1.5q4 -22 11.5 -35t21.5 -23t35.5 -18t53.5 -19q51 -18 77.5 -38.5t26.5 -47.5q0 -34 -19 -105t-51 -160t-74 -185.5t-87 -180.5t-91 -145t-86 -80q-36 -17 -86 -33.5t-106.5 -31t-114.5 -27t-109 -21.5t-91 -14t-60 -5q-13 2 -27 6t-24 10
q-35 107 -60 196.5t-41 166t-23.5 141t-7.5 121.5q0 46 9.5 87t23.5 83q4 11 3 18.5t-8 14.5t-21 15l-35 20q-25 13 -46 24.5t-36 23.5t-23.5 26t-8.5 32q0 16 9 40t23 51t30.5 54t32.5 48q2 1 8.5 1.5t14 -0.5t14 -2t9.5 -3q2 -16 6 -26.5t15.5 -20t33.5 -21t61 -29.5
q86 -41 86 -78q0 -16 -9.5 -38.5t-23.5 -51.5q-9 -20 -20 -45t-20 -53.5t-15.5 -59t-6.5 -62.5q0 -45 11.5 -97t29 -107t38.5 -110t41 -106q33 44 66 95t63 104t55.5 105t44.5 98.5t30 85t11 62.5zM1003 1304q0 35 23.5 58.5t58.5 23.5t58.5 -23.5t23.5 -58.5t-23.5 -58.5
t-58.5 -23.5t-58.5 23.5t-23.5 58.5zM792 519q0 35 23.5 58.5t58.5 23.5t58.5 -23.5t23.5 -58.5t-23.5 -58.5t-58.5 -23.5t-58.5 23.5t-23.5 58.5z" />
    <glyph glyph-name="uniFB2D" unicode="&#xfb2d;" horiz-adv-x="1406" 
d="M718 786q0 9 -3.5 16t-12 13t-22 12.5t-34.5 15.5q-20 9 -37.5 17t-31 18.5t-21 24t-7.5 32.5q0 16 7 41.5t18.5 54t25.5 57t28 50.5q6 2 22 2q8 0 14.5 -1t9.5 -2q3 -17 6.5 -29t15 -23.5t33.5 -23.5t62 -28q45 -17 66 -31.5t22 -37.5q0 -40 -14 -95.5t-38.5 -120.5
t-58.5 -137t-73 -144.5t-82.5 -142t-87.5 -129.5q51 7 113 18.5t122.5 26t112.5 31t84 31.5q33 16 66 54.5t62.5 87.5t55 102.5t44 100.5t29 81.5t10.5 44.5q0 17 -15 30.5t-60 30.5q-23 8 -43 16t-35 18.5t-23.5 24.5t-8.5 34q0 22 6.5 49t17 55t22.5 55t23 49q3 1 9 2
t13 1t14 -0.5t10 -1.5q4 -22 11.5 -35t21.5 -23t35.5 -18t53.5 -19q51 -18 77.5 -38.5t26.5 -47.5q0 -34 -19 -105t-51 -160t-74 -185.5t-87 -180.5t-91 -145t-86 -80q-36 -17 -86 -33.5t-106.5 -31t-114.5 -27t-109 -21.5t-91 -14t-60 -5q-13 2 -27 6t-24 10
q-35 107 -60 196.5t-41 166t-23.5 141t-7.5 121.5q0 46 9.5 87t23.5 83q4 11 3 18.5t-8 14.5t-21 15l-35 20q-25 13 -46 24.5t-36 23.5t-23.5 26t-8.5 32q0 16 9 40t23 51t30.5 54t32.5 48q2 1 8.5 1.5t14 -0.5t14 -2t9.5 -3q2 -16 6 -26.5t15.5 -20t33.5 -21t61 -29.5
q86 -41 86 -78q0 -16 -9.5 -38.5t-23.5 -51.5q-9 -20 -20 -45t-20 -53.5t-15.5 -59t-6.5 -62.5q0 -45 11.5 -97t29 -107t38.5 -110t41 -106q33 44 66 95t63 104t55.5 105t44.5 98.5t30 85t11 62.5zM238 1304q0 35 23.5 58.5t58.5 23.5t58.5 -23.5t23.5 -58.5t-23.5 -58.5
t-58.5 -23.5t-58.5 23.5t-23.5 58.5zM835 519q0 35 23.5 58.5t58.5 23.5t58.5 -23.5t23.5 -58.5t-23.5 -58.5t-58.5 -23.5t-58.5 23.5t-23.5 58.5z" />
    <glyph glyph-name="uniFB2E" unicode="&#xfb2e;" horiz-adv-x="1116" 
d="M361 -7q-23 17 -44.5 26.5t-51.5 9.5q-32 0 -74.5 -11.5t-108.5 -34.5q-7 7 -14.5 19t-10.5 25q31 24 69.5 51t83.5 55q-35 38 -59 70t-39 59.5t-21.5 53.5t-6.5 52q0 32 9.5 66.5t30 75t52.5 88t77 106.5q-28 30 -52.5 55t-43 48t-29 44.5t-10.5 45.5q0 29 13 56
q23 48 48.5 91.5t51.5 88.5q11 3 25 1.5t25 -6.5q-1 -8 -1 -17v-16q0 -21 3 -40.5t11 -39.5t22 -42t37 -48q42 -45 89.5 -92.5t96.5 -94t98 -91t94 -85.5q32 34 54.5 60.5t37 46.5t21 36t6.5 31q0 23 -15.5 43.5t-52.5 52.5q-30 26 -49 44t-29.5 32.5t-14 26.5t-3.5 26
q0 24 29.5 67.5t101.5 109.5q8 2 21 -2t23 -9q-1 -10 -1.5 -17t-0.5 -13q0 -11 3 -20t12 -19.5t25 -25.5t42 -38q58 -52 81 -82.5t23 -55.5q0 -19 -8.5 -47t-35.5 -69.5t-76.5 -99.5t-131.5 -137q43 -39 73.5 -67.5t52.5 -49.5t37.5 -36t28.5 -27q39 -36 60 -65t21 -52
q0 -18 -8 -37q-20 -46 -38 -90t-37 -93q-25 -2 -44 3q-15 40 -35.5 74t-44 64t-49.5 57t-52 53q-53 52 -114.5 110t-121.5 113t-113.5 103t-91.5 81q-44 -58 -58.5 -99.5t-14.5 -78.5q0 -30 13.5 -61t43 -68t76.5 -82t115 -105q2 -5 0 -10zM731 -288h-357l9 94h357z" />
    <glyph glyph-name="uniFB2F" unicode="&#xfb2f;" horiz-adv-x="1108" 
d="M356 -7q-23 17 -44.5 26.5t-51.5 9.5q-32 0 -74.5 -11.5t-108.5 -34.5q-7 7 -14.5 19t-10.5 25q31 24 69.5 51t83.5 55q-35 38 -59 70t-39 59.5t-21.5 53.5t-6.5 52q0 32 9.5 66.5t30 75t52.5 88t77 106.5q-28 30 -52.5 55t-43 48t-29 44.5t-10.5 45.5q0 29 13 56
q23 48 48.5 91.5t51.5 88.5q11 3 25 1.5t25 -6.5q-1 -8 -1 -17v-16q0 -21 3 -40.5t11 -39.5t22 -42t37 -48q42 -45 89.5 -92.5t96.5 -94t98 -91t94 -85.5q32 34 54.5 60.5t37 46.5t21 36t6.5 31q0 23 -15.5 43.5t-52.5 52.5q-30 26 -49 44t-29.5 32.5t-14 26.5t-3.5 26
q0 24 29.5 67.5t101.5 109.5q8 2 21 -2t23 -9q-1 -10 -1.5 -17t-0.5 -13q0 -11 3 -20t12 -19.5t25 -25.5t42 -38q58 -52 81 -82.5t23 -55.5q0 -19 -8.5 -47t-35.5 -69.5t-76.5 -99.5t-131.5 -137q43 -39 73.5 -67.5t52.5 -49.5t37.5 -36t28.5 -27q39 -36 60 -65t21 -52
q0 -18 -8 -37q-20 -46 -38 -90t-37 -93q-25 -2 -44 3q-15 40 -35.5 74t-44 64t-49.5 57t-52 53q-53 52 -114.5 110t-121.5 113t-113.5 103t-91.5 81q-44 -58 -58.5 -99.5t-14.5 -78.5q0 -30 13.5 -61t43 -68t76.5 -82t115 -105q2 -5 0 -10zM578 -288q-2 -10 -2 -16v-13
q0 -26 3 -45.5t8 -34.5t11 -26t12 -20q9 -14 16 -28t7 -35q0 -32 -20.5 -56.5t-60.5 -24.5t-60.5 24.5t-20.5 56.5q0 21 7 35t16 28q6 9 12 20t11 26t8 34.5t3 45.5v13t-2 16h-157l9 94h357l-9 -94h-148z" />
    <glyph glyph-name="uniFB30" unicode="&#xfb30;" horiz-adv-x="1231" 
d="M416 -7q-23 17 -44.5 26.5t-51.5 9.5q-32 0 -74.5 -11.5t-108.5 -34.5q-7 7 -14.5 19t-10.5 25q31 24 69.5 51t83.5 55q-35 38 -59 70t-39 59.5t-21.5 53.5t-6.5 52q0 32 9.5 66.5t30 75t52.5 88t77 106.5q-28 30 -52.5 55t-43 48t-29 44.5t-10.5 45.5q0 29 13 56
q23 48 48.5 91.5t51.5 88.5q11 3 25 1.5t25 -6.5q-1 -8 -1 -17v-16q0 -21 3 -40.5t11 -39.5t22 -42t37 -48q42 -45 89.5 -92.5t96.5 -94t98 -91t94 -85.5q32 34 54.5 60.5t37 46.5t21 36t6.5 31q0 23 -15.5 43.5t-52.5 52.5q-30 26 -49 44t-29.5 32.5t-14 26.5t-3.5 26
q0 24 29.5 67.5t101.5 109.5q8 2 21 -2t23 -9q-1 -10 -1.5 -17t-0.5 -13q0 -11 3 -20t12 -19.5t25 -25.5t42 -38q58 -52 81 -82.5t23 -55.5q0 -19 -8.5 -47t-35.5 -69.5t-76.5 -99.5t-131.5 -137q43 -39 73.5 -67.5t52.5 -49.5t37.5 -36t28.5 -27q39 -36 60 -65t21 -52
q0 -18 -8 -37q-20 -46 -38 -90t-37 -93q-25 -2 -44 3q-15 40 -35.5 74t-44 64t-49.5 57t-52 53q-53 52 -114.5 110t-121.5 113t-113.5 103t-91.5 81q-44 -58 -58.5 -99.5t-14.5 -78.5q0 -30 13.5 -61t43 -68t76.5 -82t115 -105q2 -5 0 -10zM630 70q0 35 23.5 58.5t58.5 23.5
t58.5 -23.5t23.5 -58.5t-23.5 -58.5t-58.5 -23.5t-58.5 23.5t-23.5 58.5z" />
    <glyph glyph-name="uniFB31" unicode="&#xfb31;" horiz-adv-x="1158" 
d="M281 1137q13 -29 27.5 -45.5t33.5 -25t44 -11t59 -2.5h286q64 0 106.5 -14.5t67 -40t34.5 -60.5t10 -75q0 -35 -2 -65t-4.5 -61t-4.5 -64t-2 -73q0 -11 0.5 -38t2 -61.5t4.5 -73.5t9 -75.5t14.5 -66t21.5 -45.5q16 -20 40.5 -26.5t62.5 -6.5q4 0 3 -6q-16 -51 -29 -97
t-25 -97q-1 -4 -4 -5.5t-6 -1.5h-655q-36 0 -63.5 -0.5t-51.5 -3t-45.5 -8.5t-45.5 -17q-11 2 -22 6t-18 12q8 34 22.5 77.5t32.5 88.5q11 28 43 46t97 18h512q-8 54 -11 102t-3 95q0 37 1.5 77t4 78t4 71.5t1.5 57.5q0 29 -6.5 53t-24 41t-46.5 26.5t-74 9.5h-309
q-36 0 -70 3t-60.5 14t-42.5 32t-16 56q0 9 3.5 28t10.5 44.5t16.5 57t21.5 64.5q10 5 22 7t23 1zM466 519q0 35 23.5 58.5t58.5 23.5t58.5 -23.5t23.5 -58.5t-23.5 -58.5t-58.5 -23.5t-58.5 23.5t-23.5 58.5z" />
    <glyph glyph-name="uniFB32" unicode="&#xfb32;" horiz-adv-x="780" 
d="M379 1144q4 -25 12 -41t23 -28t39.5 -22t61.5 -24q40 -14 65.5 -27.5t40.5 -26.5t21 -26t6 -28q0 -21 -7.5 -41.5t-22.5 -53.5t-25.5 -57t-16.5 -47t-9 -48.5t-3 -60.5q0 -56 17 -117.5t41 -119.5t48.5 -107.5t39.5 -80.5q4 -8 5 -13t1 -10q0 -7 -6 -19
q-25 -45 -45 -85.5t-37 -80.5q-29 -3 -57 0q-17 113 -34.5 187.5t-36.5 133.5q-14 -24 -26 -48t-23 -51t-22 -58t-23 -69q-5 -15 -14 -20t-24 -10q-34 -9 -74 -20.5t-78 -23t-70.5 -22t-52.5 -18.5q-11 -2 -24 2t-21 10q11 38 21.5 79.5t24.5 86.5q8 29 19 46t38 25
q70 21 122 34.5t89.5 31t64 43.5t45.5 71q-9 39 -13 79t-4 91q0 32 4.5 64.5t9.5 60.5q5 23 8 42t3 31q0 22 -20.5 33t-53.5 23q-38 14 -68 26.5t-51 27t-32 32.5t-9 43q1 13 9.5 38.5t21 54.5t27.5 57.5t29 48.5q7 4 21 4q7 0 13.5 -0.5t11.5 -1.5zM181 519q0 35 23.5 58.5
t58.5 23.5t58.5 -23.5t23.5 -58.5t-23.5 -58.5t-58.5 -23.5t-58.5 23.5t-23.5 58.5z" />
    <glyph glyph-name="uniFB33" unicode="&#xfb33;" horiz-adv-x="974" 
d="M860 842q-72 0 -101 -36t-29 -109q0 -51 2.5 -104.5t7 -106.5t10.5 -104.5t13 -97.5q6 -41 11.5 -80.5t5.5 -56.5q0 -28 -18 -50q-22 -28 -43.5 -58t-40.5 -59q-28 -3 -55 0q-7 64 -9.5 145.5t-2.5 171.5q0 78 1.5 157t4 150t5.5 129.5t6 96.5h-430q-36 0 -70 3t-60.5 14
t-42.5 32t-16 56q0 9 3.5 28t10.5 44.5t16.5 57t21.5 64.5q10 5 22 7t23 1q13 -29 27.5 -45.5t33.5 -25t44 -11t59 -2.5h641q6 0 5 -7q-15 -55 -26 -100t-22 -97q-1 -7 -8 -7zM278 519q0 35 23.5 58.5t58.5 23.5t58.5 -23.5t23.5 -58.5t-23.5 -58.5t-58.5 -23.5t-58.5 23.5
t-23.5 58.5z" />
    <glyph glyph-name="uniFB34" unicode="&#xfb34;" horiz-adv-x="1180" 
d="M368 564q-7 -25 -12 -44t-8 -36t-4.5 -34t-2.5 -37l-8 -308q0 -9 -1.5 -17t-8.5 -13q-16 -12 -33 -25.5t-32.5 -26t-29 -24t-22.5 -19.5q-25 -3 -49 0l31 380q4 51 20.5 93.5t38.5 65.5q11 12 31.5 29.5t43.5 31.5q10 -2 24 -6t22 -10zM247 1137q13 -29 27.5 -45.5
t33.5 -25t44 -11t59 -2.5h411q63 0 105.5 -9t68 -26.5t36 -44t10.5 -61.5q0 -34 -10.5 -74.5t-22.5 -88.5q0 -148 13 -263.5t25 -203.5l11 -77t5 -55q0 -19 -4 -30t-13 -23q-21 -29 -40 -58t-36 -59q-28 -3 -55 0q-3 19 -6.5 55t-6.5 77.5t-5 82.5t-2 71q0 87 0.5 150
t1.5 107.5t2 74.5t2 52q1 27 1.5 48t0.5 48q0 24 -3 40t-13.5 26t-31.5 14t-56 4h-460q-36 0 -70 3t-60.5 14t-42.5 32t-16 56q0 9 3.5 28t10.5 44.5t16.5 57t21.5 64.5q10 5 22 7t23 1zM528 519q0 35 23.5 58.5t58.5 23.5t58.5 -23.5t23.5 -58.5t-23.5 -58.5t-58.5 -23.5
t-58.5 23.5t-23.5 58.5z" />
    <glyph glyph-name="uniFB35" unicode="&#xfb35;" horiz-adv-x="519" 
d="M273 -20q-2 20 -4 56.5t-4 78t-3 83.5t-1 72q0 103 3 176.5t7 128.5t7 97t3 82q0 15 -7 24.5t-19 16t-27.5 10.5t-31.5 9q-39 11 -70.5 20.5t-54.5 22t-35.5 29.5t-12.5 42q0 14 6.5 40.5t17 57t23.5 60.5t25 51q8 5 21.5 5.5t24.5 -1.5q6 -24 16.5 -39.5t28.5 -26.5
t44 -19t64 -18q34 -9 56 -17t34 -16.5t16.5 -18.5t4.5 -22q0 -8 -3 -26.5t-6 -39.5q-5 -34 -10.5 -82.5t-5.5 -123.5q0 -105 9.5 -208.5t23.5 -197.5q6 -42 11 -79t5 -57q0 -19 -4 -30t-13 -23q-22 -29 -44.5 -60t-39.5 -57q-28 -3 -55 0zM16 519q0 35 23.5 58.5t58.5 23.5
t58.5 -23.5t23.5 -58.5t-23.5 -58.5t-58.5 -23.5t-58.5 23.5t-23.5 58.5z" />
    <glyph glyph-name="uniFB36" unicode="&#xfb36;" horiz-adv-x="609" 
d="M214 1145q4 -24 16.5 -40.5t31.5 -28.5t43.5 -20.5t53.5 -16.5q27 -8 57.5 -17t60.5 -20t58 -25t51 -32q7 -4 4 -13q-9 -21 -19 -47t-20 -53t-19 -53t-16 -47q-2 -5 -7 -1q-29 20 -56.5 33t-65.5 24q-18 -108 -18 -219q0 -104 16.5 -205.5t51.5 -197.5q3 -8 5.5 -15
t2.5 -15q0 -14 -18 -38q-23 -29 -45.5 -60.5t-39.5 -57.5q-14 -2 -23 -2t-23 2q-26 91 -36 174.5t-10 158.5q0 61 4 118.5t9.5 108.5t9.5 95.5t4 80.5q0 47 -9 75.5t-44 38.5q-64 17 -96 39.5t-32 65.5q0 14 6.5 40t17 56t23.5 59.5t25 50.5q8 5 21.5 5.5t24.5 -1.5zM22 664
q0 35 23.5 58.5t58.5 23.5t58.5 -23.5t23.5 -58.5t-23.5 -58.5t-58.5 -23.5t-58.5 23.5t-23.5 58.5z" />
    <glyph glyph-name="uniFB38" unicode="&#xfb38;" horiz-adv-x="1205" 
d="M512 737q7 26 18.5 65t25 80t27 80t24.5 65q16 24 38.5 40.5t47 27.5t49.5 16t48 5q58 0 104 -19t81.5 -51t60 -75.5t40.5 -92t23 -100t7 -100.5q0 -50 -7 -107.5t-21 -116t-36 -115.5t-51 -106t-66.5 -88t-82.5 -61q-38 -18 -85 -34t-99 -30t-107 -27t-108 -25
q-20 3 -34 7.5t-29 14.5q-41 62 -75 143.5t-59 164t-38.5 155t-11.5 116.5q0 23 5.5 50.5t13.5 55t17 53.5t16 46q4 8 4 17q0 12 -12.5 21t-44.5 27q-25 14 -46 26t-36 24t-23 26t-7 32q0 16 9.5 40.5t24.5 51.5t32.5 53.5t33.5 47.5q8 2 20 2q7 0 13 -0.5t9 -2.5
q2 -16 6 -27t16 -21.5t34.5 -23t61.5 -31.5q43 -21 66 -41.5t22 -40.5q0 -16 -10.5 -38.5t-24.5 -50.5q-10 -20 -23.5 -47.5t-25.5 -58t-20.5 -63.5t-8.5 -65q0 -28 8 -66.5t21 -82t30 -88t35 -83.5t36 -69.5t33 -45.5q40 7 95.5 18.5t111 26.5t103.5 32t72 36
q63 51 96.5 130t33.5 164q0 56 -15 107.5t-45.5 90.5t-76 62.5t-105.5 23.5q-21 0 -46.5 -6.5t-51 -25t-49.5 -51.5t-42 -85q-14 3 -26.5 7t-23.5 11zM571 549q0 35 23.5 58.5t58.5 23.5t58.5 -23.5t23.5 -58.5t-23.5 -58.5t-58.5 -23.5t-58.5 23.5t-23.5 58.5z" />
    <glyph glyph-name="uniFB39" unicode="&#xfb39;" horiz-adv-x="525" 
d="M173 1153q4 -27 13 -44t26.5 -29t44.5 -22t66 -22q38 -12 67 -22.5t49 -24t30 -31t10 -42.5q0 -60 -31.5 -172t-99.5 -274q-38 8 -68 24q10 36 18 72t14 68t9 58.5t3 43.5q0 16 -4.5 27.5t-14.5 20.5t-26.5 17t-40.5 16q-42 14 -75 25.5t-55.5 25t-34 31t-11.5 43.5
q0 17 6 43.5t15.5 55.5t21 57t22.5 49q8 5 21.5 5.5t24.5 0.5zM61 656q0 35 23.5 58.5t58.5 23.5t58.5 -23.5t23.5 -58.5t-23.5 -58.5t-58.5 -23.5t-58.5 23.5t-23.5 58.5z" />
    <glyph glyph-name="uniFB3A" unicode="&#xfb3a;" horiz-adv-x="953" 
d="M838 842q-71 0 -99.5 -36t-28.5 -109q0 -116 4 -228.5t10.5 -213.5t14 -187t14.5 -150q6 -57 10 -92t4 -44q0 -19 -4 -30.5t-13 -22.5q-22 -28 -47 -61t-44 -62q-28 -3 -55 0q-3 46 -5.5 122t-4.5 170t-3 199.5t-1 209.5q0 83 1 162t3.5 147.5t5 123.5t5.5 90h-410
q-36 0 -70 3t-60.5 14t-42.5 32t-16 56q0 9 3.5 28t10.5 44.5t16.5 57t21.5 64.5q10 5 22 7t23 1q13 -29 27.5 -45.5t33.5 -25t44 -11t59 -2.5h624q4 0 3 -6q-15 -55 -26 -100.5t-22 -97.5q-1 -7 -8 -7zM246 519q0 35 23.5 58.5t58.5 23.5t58.5 -23.5t23.5 -58.5
t-23.5 -58.5t-58.5 -23.5t-58.5 23.5t-23.5 58.5z" />
    <glyph glyph-name="uniFB3B" unicode="&#xfb3b;" horiz-adv-x="1097" 
d="M272 1137q13 -29 27.5 -45.5t33.5 -25t44 -11t59 -2.5h237q73 0 132 -29t101 -90.5t64.5 -157.5t22.5 -229q0 -66 -9.5 -141t-24.5 -147.5t-34 -137.5t-38 -111q-3 -7 -7.5 -8.5t-12.5 -1.5h-488q-38 0 -66.5 -0.5t-52.5 -3t-45.5 -8.5t-45.5 -17q-11 2 -22 6t-18 12
q8 34 22.5 77.5t32.5 88.5q11 28 43.5 46t100.5 18h480q12 0 16 7q8 18 16 46.5t14.5 63.5t10.5 75.5t4 82.5q0 72 -14.5 133.5t-42.5 106.5t-69 70.5t-93 25.5h-286q-36 0 -70 3t-60.5 14t-42.5 32t-16 56q0 9 3.5 28t10.5 44.5t16.5 57t21.5 64.5q10 5 22 7t23 1zM465 519
q0 35 23.5 58.5t58.5 23.5t58.5 -23.5t23.5 -58.5t-23.5 -58.5t-58.5 -23.5t-58.5 23.5t-23.5 58.5z" />
    <glyph glyph-name="uniFB3C" unicode="&#xfb3c;" horiz-adv-x="906" 
d="M436 233q105 51 169 110.5t99.5 120.5t47.5 119.5t12 108.5q0 78 -34.5 108t-100.5 30h-359q-56 0 -93.5 11t-60 32t-32 51t-9.5 68q0 77 3.5 124.5t14 82t29 65t49.5 72.5q5 6 6 9.5t1 5.5q0 10 -11.5 19.5t-33.5 26.5q-38 30 -63 56t-25 53q0 15 11 35t28.5 42.5
t40 46.5t45.5 47q9 0 21 -4t20 -9q-4 -19 -3 -31.5t8.5 -24t23 -24t41.5 -32.5q42 -32 59 -51t17 -38q0 -15 -9 -32.5t-23 -35.5t-31.5 -37t-34.5 -37t-27 -34.5t-16 -35t-8 -41t-2 -51.5q0 -32 4 -52.5t16.5 -32.5t36 -16.5t61.5 -4.5h343q62 0 106 -19t72 -51.5t41 -75
t13 -90.5q0 -93 -30.5 -203.5t-90.5 -222.5t-147.5 -217.5t-201.5 -189.5q-23 3 -41 11q9 57 21.5 119t26.5 119zM358 569q0 35 23.5 58.5t58.5 23.5t58.5 -23.5t23.5 -58.5t-23.5 -58.5t-58.5 -23.5t-58.5 23.5t-23.5 58.5z" />
    <glyph glyph-name="uniFB3E" unicode="&#xfb3e;" horiz-adv-x="1233" 
d="M142 -20v33q0 67 4.5 134t11.5 129t15.5 117.5t17 99t15.5 73t11 40.5q16 42 42 80.5t52 76.5q11 17 11 32q0 14 -10.5 26.5t-36.5 27.5q-52 28 -82 51.5t-30 56.5q0 15 11 39.5t26.5 51.5t34 53.5t33.5 44.5q7 3 18.5 1t20.5 -6q1 -23 5.5 -37.5t15.5 -26.5t29.5 -23.5
t48.5 -28.5q32 -19 52.5 -37t26.5 -36q30 25 55.5 47.5t48.5 44t44 42.5t43 44q11 2 19.5 3.5t19.5 -0.5q127 -63 207 -104t99 -63q21 -24 36.5 -79.5t26.5 -130t16.5 -162t5.5 -175.5q0 -125 -15.5 -231.5t-35.5 -177.5q-2 -6 -8 -8t-13 -2h-359q-38 0 -67 -0.5t-53.5 -3.5
t-46.5 -9.5t-45 -17.5q-24 3 -36 20q16 34 37.5 75t49.5 86q9 13 21.5 25t30.5 20t43 13t59 5h211q42 0 64.5 16t33 44t12.5 64.5t2 78.5q0 68 -7 128t-20 108.5t-33 84t-45 53.5q-27 19 -64 39t-72.5 36t-65.5 26.5t-43 10.5q-35 0 -67.5 -12.5t-62 -32.5t-54 -45
t-43.5 -51q-29 -40 -46.5 -78t-27 -93.5t-14.5 -140t-9 -217.5q-1 -19 -2.5 -36t-9.5 -29q-14 -23 -29.5 -48.5t-30 -50t-27 -47.5t-21.5 -41q-28 -3 -55 0zM570 519q0 35 23.5 58.5t58.5 23.5t58.5 -23.5t23.5 -58.5t-23.5 -58.5t-58.5 -23.5t-58.5 23.5t-23.5 58.5z" />
    <glyph glyph-name="uniFB40" unicode="&#xfb40;" horiz-adv-x="727" 
d="M331 1142q6 -25 15 -40t25 -25.5t41 -19t63 -19.5q42 -12 68.5 -24t41.5 -24.5t20.5 -26t5.5 -29.5q0 -19 -5.5 -38.5t-15.5 -52.5q-13 -45 -21.5 -102.5t-8.5 -127.5q0 -74 11 -147.5t24 -133.5t24 -100t11 -46q0 -1 -2 -7q-8 -24 -14.5 -45t-11.5 -41t-10 -40.5
t-11 -45.5q-1 -4 -4 -5.5t-6 -1.5h-290q-36 0 -62.5 -0.5t-48.5 -3t-41 -8.5t-39 -17q-11 2 -22 6t-18 12q9 34 25.5 77.5t36.5 88.5q12 28 41.5 45t94.5 17h214q-6 51 -11 104t-5 107q0 79 3.5 137t8 97.5t8.5 63t4 33.5q0 13 -6.5 21t-18.5 14t-27.5 10.5t-33.5 9.5
q-39 11 -70.5 20.5t-54 22t-34.5 29.5t-12 42q0 14 6.5 40.5t17 57.5t23.5 61t25 51q8 5 21.5 5.5t24.5 -1.5zM180 519q0 35 23.5 58.5t58.5 23.5t58.5 -23.5t23.5 -58.5t-23.5 -58.5t-58.5 -23.5t-58.5 23.5t-23.5 58.5z" />
    <glyph glyph-name="uniFB41" unicode="&#xfb41;" horiz-adv-x="1138" 
d="M336 -23q-33 39 -65 104.5t-57.5 139t-41.5 144t-16 118.5q0 36 9 79.5t23.5 89.5t32.5 92.5t35 88.5q-79 4 -112 27t-33 68q0 9 4 29t11.5 47t18 59.5t22.5 65.5q10 5 22 7t23 1q13 -29 27.5 -45.5t33.5 -25t44 -11t59 -2.5h396q81 0 135.5 -31t87.5 -81.5t46.5 -115.5
t13.5 -134q0 -79 -14 -168.5t-45.5 -173.5t-81.5 -154t-121 -110q-25 -14 -62 -28t-79.5 -27t-86 -24t-81.5 -19.5t-66.5 -14t-40.5 -6.5q-23 3 -41 11zM358 830q-12 -29 -25 -64.5t-24.5 -73.5t-18.5 -76.5t-7 -73.5q0 -40 12 -86t31.5 -92.5t43.5 -90.5t48 -79
q14 1 43.5 6t67 13t79.5 19t80.5 23t69.5 25t47 26q32 26 57 61.5t42 76t26 84.5t9 86q0 46 -11.5 86t-35.5 68.5t-61.5 45t-89.5 16.5h-383zM522 549q0 35 23.5 58.5t58.5 23.5t58.5 -23.5t23.5 -58.5t-23.5 -58.5t-58.5 -23.5t-58.5 23.5t-23.5 58.5z" />
    <glyph glyph-name="uniFB43" unicode="&#xfb43;" horiz-adv-x="920" 
d="M287 391q-90 18 -145.5 36.5t-86.5 41t-41.5 49.5t-10.5 62q0 25 11 59.5t29 73t41.5 79.5t48.5 80q-36 14 -54.5 33.5t-18.5 51.5q0 14 6 38t15.5 51.5t22 56t25.5 50.5q8 5 21.5 5.5t24.5 -1.5q8 -23 18.5 -39t31 -27.5t54 -20.5t86.5 -18q22 -4 52.5 -9t63.5 -10
t64.5 -9.5t54.5 -7.5q39 -5 69.5 -22t52 -49.5t33 -82.5t11.5 -121q0 -32 -1 -91.5t-1 -131.5q0 -87 4 -173.5t10 -165.5t12.5 -146t11.5 -115q6 -57 10 -92t4 -44q0 -19 -4 -30.5t-13 -22.5q-22 -28 -47 -61t-44 -62q-28 -3 -55 0q-3 43 -5.5 114.5t-4.5 159t-3 186.5
t-1 198q0 48 1.5 99t3 98t3 85.5t1.5 60.5q0 60 -9.5 96.5t-27.5 57.5t-44 30t-59 14q-47 7 -94.5 14.5t-87.5 13.5t-69 9.5t-38 3.5q-4 -4 -13 -19t-18 -35t-15.5 -41.5t-6.5 -38.5q0 -30 11.5 -48.5t34 -30.5t56.5 -21t78 -19zM396 470q0 35 23.5 58.5t58.5 23.5
t58.5 -23.5t23.5 -58.5t-23.5 -58.5t-58.5 -23.5t-58.5 23.5t-23.5 58.5z" />
    <glyph glyph-name="uniFB44" unicode="&#xfb44;" horiz-adv-x="1117" 
d="M485 409q-91 17 -148 36t-89.5 42t-44 50.5t-11.5 62.5q0 25 10 56.5t26.5 66t39 72.5t47.5 77q-36 14 -54.5 33.5t-18.5 51.5q0 14 6 38t15.5 51.5t22 56t25.5 50.5q8 5 21.5 5.5t24.5 -1.5q8 -23 18.5 -39t31 -27.5t54 -20.5t86.5 -18q63 -11 138.5 -21.5t165.5 -21.5
q43 -5 73 -40.5t49 -98.5t28 -152t9 -201q0 -37 -2.5 -81.5t-8 -92.5t-12.5 -96t-16.5 -92t-20.5 -81.5t-24 -63.5q-4 -10 -16 -10h-573q-38 0 -67 -0.5t-53.5 -3.5t-46.5 -9.5t-45 -17.5q-11 2 -22 7t-16 13q14 34 33 74.5t45 85.5q17 28 50.5 46t101.5 18h447
q40 0 65 23.5t39 62.5t19 89.5t5 105.5q0 139 -36 215t-105 87q-59 9 -118.5 18t-108.5 16t-82.5 11.5t-40.5 4.5q-4 -4 -11.5 -15.5t-15 -27t-13 -33.5t-5.5 -34q0 -34 12.5 -54t36.5 -32.5t59 -20.5t79 -18zM610 505q0 35 23.5 58.5t58.5 23.5t58.5 -23.5t23.5 -58.5
t-23.5 -58.5t-58.5 -23.5t-58.5 23.5t-23.5 58.5z" />
    <glyph glyph-name="uniFB46" unicode="&#xfb46;" horiz-adv-x="1091" 
d="M284 1140q2 -14 4.5 -26.5t12.5 -25.5t29 -27t54 -30q51 -24 76.5 -41.5t25.5 -46.5q0 -19 -15 -52.5t-32 -78.5q-11 -27 -15.5 -49t-4.5 -45q0 -24 14.5 -52.5t40 -61t60 -67.5t73.5 -71q38 31 74.5 72t64.5 82t45 77t17 57q0 23 -14 40t-43 40q-30 24 -49 40t-30 29.5
t-15.5 26t-4.5 29.5q0 18 13 42t32 49.5t41 50.5t40 45q7 2 19.5 -0.5t22.5 -6.5q-3 -22 -1 -37.5t12 -29.5t29.5 -30.5t51.5 -40.5q51 -38 76 -64t25 -58q0 -20 -14 -52.5t-38 -73t-56.5 -86.5t-69.5 -92.5t-77 -91t-79 -82.5q38 -34 76.5 -64.5t73 -56.5t64 -46.5
t50.5 -34.5q4 -3 2 -8q-6 -16 -14.5 -40t-17.5 -50.5t-17 -52.5t-13 -46q-1 -4 -4 -5.5t-6 -1.5q-45 0 -107 1t-127 1.5t-126.5 1.5t-107.5 1h-58q-29 0 -51.5 -1t-42 -4.5t-37.5 -9t-39 -14.5q-11 2 -22 6t-18 12q10 34 26.5 73t37.5 84q12 27 44.5 47t92.5 20q9 0 38 -0.5
t67 -1t79 -1.5t73 -2q7 0 20.5 -0.5t28.5 -1.5t29 -2t23 -2q-7 6 -17 14t-21 17t-21 17t-17 14q-83 75 -141.5 132.5t-95.5 103.5t-54 83.5t-17 73.5q0 29 2.5 55t10.5 61q2 11 -14.5 21.5t-64.5 35.5q-34 18 -55 31.5t-33 25.5t-16 24.5t-4 27.5q0 16 9.5 42t24.5 55
t32.5 58t33.5 50q2 1 8.5 1.5t14 -0.5t14 -2t9.5 -3zM195 365q0 35 23.5 58.5t58.5 23.5t58.5 -23.5t23.5 -58.5t-23.5 -58.5t-58.5 -23.5t-58.5 23.5t-23.5 58.5z" />
    <glyph glyph-name="uniFB47" unicode="&#xfb47;" horiz-adv-x="1086" 
d="M227 1137q13 -29 27.5 -45.5t33.5 -25t44 -11t59 -2.5h428q69 0 117 -24.5t77 -66.5t42 -98.5t13 -120.5q0 -86 -16.5 -168.5t-42 -155.5t-57.5 -131.5t-63 -95.5q-42 -51 -125.5 -99t-209.5 -109q-23 3 -41 11q22 111 57 220q121 48 190 84.5t99 68.5q22 24 38.5 56.5
t27.5 69.5t16.5 76.5t5.5 77.5q0 37 -8 70t-25.5 58t-44.5 39.5t-66 14.5h-484q-36 0 -70 3t-60.5 14t-42.5 32t-16 56q0 9 3.5 28t10.5 44.5t16.5 57t21.5 64.5q10 5 22 7t23 1zM348 627q-11 -51 -14.5 -99t-3.5 -99q0 -112 6.5 -269t24.5 -346q2 -14 3 -27t1 -26
q0 -14 -3.5 -27t-14.5 -24q-49 -52 -89 -104q-27 -3 -53 0q-1 9 -1.5 32.5t-1 56.5t-0.5 75v88q0 61 0.5 143.5t2 170t3.5 172t4 150.5q1 24 14 43q21 30 39.5 53t44.5 50q20 -3 38 -13zM513 544q0 35 23.5 58.5t58.5 23.5t58.5 -23.5t23.5 -58.5t-23.5 -58.5t-58.5 -23.5
t-58.5 23.5t-23.5 58.5z" />
    <glyph glyph-name="uniFB48" unicode="&#xfb48;" horiz-adv-x="997" 
d="M100 1137q13 -29 27.5 -45.5t33.5 -25t44 -11t59 -2.5h296q63 0 116 -13t91.5 -43t59.5 -78t21 -118q0 -29 -3 -59q-2 -23 -3.5 -50.5t-1.5 -69.5q0 -88 10.5 -173.5t22.5 -166.5q6 -42 12.5 -78t6.5 -56q0 -19 -4 -29t-14 -22q-22 -27 -45 -58.5t-41 -58.5q-28 -3 -55 0
q-2 19 -4 55t-4 77.5t-3 82.5t-1 71q0 94 1 152.5t2.5 98t3.5 68.5t3 65q2 87 -44 133.5t-152 46.5h-349q-36 0 -69.5 2.5t-59 12.5t-41 30.5t-15.5 55.5q0 9 4 28.5t11 46t17 58.5t22 65q10 5 22 7t23 1zM313 519q0 35 23.5 58.5t58.5 23.5t58.5 -23.5t23.5 -58.5
t-23.5 -58.5t-58.5 -23.5t-58.5 23.5t-23.5 58.5z" />
    <glyph glyph-name="uniFB49" unicode="&#xfb49;" horiz-adv-x="1467" 
d="M733 786q0 9 -3.5 16t-12 13t-22 12.5t-34.5 15.5q-20 9 -37.5 17t-31 18.5t-21 24t-7.5 32.5q0 16 7 41.5t18.5 54t25.5 57t28 50.5q6 2 22 2q8 0 14.5 -1t9.5 -2q3 -17 6.5 -29t15 -23.5t33.5 -23.5t62 -28q45 -17 66 -31.5t22 -37.5q0 -40 -14 -95.5t-38.5 -120.5
t-58.5 -137t-73 -144.5t-82.5 -142t-87.5 -129.5q51 7 113 18.5t122.5 26t112.5 31t84 31.5q33 16 66 54.5t62.5 87.5t55 102.5t44 100.5t29 81.5t10.5 44.5q0 17 -15 30.5t-60 30.5q-23 8 -43 16t-35 18.5t-23.5 24.5t-8.5 34q0 22 6.5 49t17 55t22.5 55t23 49q3 1 9 2
t13 1t14 -0.5t10 -1.5q4 -22 11.5 -35t21.5 -23t35.5 -18t53.5 -19q51 -18 77.5 -38.5t26.5 -47.5q0 -34 -19 -105t-51 -160t-74 -185.5t-87 -180.5t-91 -145t-86 -80q-36 -17 -86 -33.5t-106.5 -31t-114.5 -27t-109 -21.5t-91 -14t-60 -5q-13 2 -27 6t-24 10
q-35 107 -60 196.5t-41 166t-23.5 141t-7.5 121.5q0 46 9.5 87t23.5 83q4 11 3 18.5t-8 14.5t-21 15l-35 20q-25 13 -46 24.5t-36 23.5t-23.5 26t-8.5 32q0 16 9 40t23 51t30.5 54t32.5 48q2 1 8.5 1.5t14 -0.5t14 -2t9.5 -3q2 -16 6 -26.5t15.5 -20t33.5 -21t61 -29.5
q86 -41 86 -78q0 -16 -9.5 -38.5t-23.5 -51.5q-9 -20 -20 -45t-20 -53.5t-15.5 -59t-6.5 -62.5q0 -45 11.5 -97t29 -107t38.5 -110t41 -106q33 44 66 95t63 104t55.5 105t44.5 98.5t30 85t11 62.5zM850 519q0 35 23.5 58.5t58.5 23.5t58.5 -23.5t23.5 -58.5t-23.5 -58.5
t-58.5 -23.5t-58.5 23.5t-23.5 58.5z" />
    <glyph glyph-name="uniFB4A" unicode="&#xfb4a;" horiz-adv-x="1301" 
d="M877 830h-397q-22 -50 -36 -88.5t-22.5 -69.5t-11.5 -57t-3 -51q0 -31 6.5 -68.5t21 -83t36.5 -101t52 -123.5q1 -4 0 -8q-8 -24 -14.5 -45.5t-12 -42t-10.5 -41.5t-11 -46q-1 -4 -4 -5.5t-6 -1.5q-27 1 -70 3.5t-88 2.5q-49 0 -92 -5.5t-59 -22.5q-11 2 -22 6t-18 12
q18 69 58 157q6 14 16.5 25t28.5 18.5t45.5 12.5t66.5 7q-20 62 -31.5 105.5t-17.5 75t-7.5 53.5t-1.5 41q0 24 5 54t16.5 70t31.5 93t50 124q-31 1 -59.5 5.5t-50.5 16t-35.5 31.5t-13.5 52q0 9 3.5 28t10.5 44.5t16.5 57t21.5 64.5q10 5 22 7t23 1q13 -29 27.5 -45.5
t33.5 -25t44 -11t59 -2.5h424q55 0 100 -11.5t77 -38t49 -69t17 -103.5q0 -46 -5.5 -90t-5.5 -92q0 -94 10.5 -188t22.5 -179l11 -77t5 -55q0 -19 -4 -30.5t-13 -23.5q-22 -29 -40.5 -57.5t-35.5 -58.5q-28 -3 -55 0q-3 19 -6.5 55t-6.5 77.5t-5 82.5t-2 71q0 102 1 165
t2 106t2.5 75t2.5 71q1 35 -5 62.5t-23 46t-45.5 28.5t-72.5 10zM647 519q0 35 23.5 58.5t58.5 23.5t58.5 -23.5t23.5 -58.5t-23.5 -58.5t-58.5 -23.5t-58.5 23.5t-23.5 58.5z" />
    <glyph glyph-name="uniFB4B" unicode="&#xfb4b;" horiz-adv-x="498" 
d="M250 -20q-2 20 -4 56.5t-4 78t-3 83.5t-1 72q0 103 3 176.5t7 128.5t7 97t3 82q0 15 -7 24.5t-19 16t-27.5 10.5t-31.5 9q-39 11 -70.5 20.5t-54.5 22t-35.5 29.5t-12.5 42q0 14 6.5 40.5t17 57t23.5 60.5t25 51q8 5 21.5 5.5t24.5 -1.5q6 -24 16.5 -39.5t28.5 -26.5
t44 -19t64 -18q34 -9 56 -17t34 -16.5t16.5 -18.5t4.5 -22q0 -8 -3 -26.5t-6 -39.5q-5 -34 -10.5 -82.5t-5.5 -123.5q0 -105 9.5 -208.5t23.5 -197.5q6 -42 11 -79t5 -57q0 -19 -4 -30t-13 -23q-22 -29 -44.5 -60t-39.5 -57q-28 -3 -55 0zM241 1304q0 35 23.5 58.5
t58.5 23.5t58.5 -23.5t23.5 -58.5t-23.5 -58.5t-58.5 -23.5t-58.5 23.5t-23.5 58.5z" />
    <glyph glyph-name="uniFB4C" unicode="&#xfb4c;" horiz-adv-x="1065" 
d="M209 1137q13 -29 27.5 -45.5t33.5 -25t44 -11t59 -2.5h286q64 0 106.5 -14.5t67 -40t34.5 -60.5t10 -75q0 -35 -2 -65t-4.5 -61t-4.5 -64t-2 -73q0 -11 0.5 -38t2 -61.5t4.5 -73.5t9 -75.5t14.5 -66t21.5 -45.5q16 -20 40.5 -26.5t62.5 -6.5q4 0 3 -6q-16 -51 -29 -97
t-25 -97q-1 -4 -4 -5.5t-6 -1.5h-655q-36 0 -63.5 -0.5t-51.5 -3t-45.5 -8.5t-45.5 -17q-11 2 -22 6t-18 12q8 34 22.5 77.5t32.5 88.5q11 28 43 46t97 18h512q-8 54 -11 102t-3 95q0 37 1.5 77t4 78t4 71.5t1.5 57.5q0 29 -6.5 53t-24 41t-46.5 26.5t-74 9.5h-309
q-36 0 -70 3t-60.5 14t-42.5 32t-16 56q0 9 3.5 28t10.5 44.5t16.5 57t21.5 64.5q10 5 22 7t23 1zM729 1224h-463l10 94h463z" />
    <glyph glyph-name="uniFB4D" unicode="&#xfb4d;" horiz-adv-x="995" 
d="M199 1137q13 -29 27.5 -45.5t33.5 -25t44 -11t59 -2.5h237q73 0 132 -29t101 -90.5t64.5 -157.5t22.5 -229q0 -66 -9.5 -141t-24.5 -147.5t-34 -137.5t-38 -111q-3 -7 -7.5 -8.5t-12.5 -1.5h-488q-38 0 -66.5 -0.5t-52.5 -3t-45.5 -8.5t-45.5 -17q-11 2 -22 6t-18 12
q8 34 22.5 77.5t32.5 88.5q11 28 43.5 46t100.5 18h480q12 0 16 7q8 18 16 46.5t14.5 63.5t10.5 75.5t4 82.5q0 72 -14.5 133.5t-42.5 106.5t-69 70.5t-93 25.5h-286q-36 0 -70 3t-60.5 14t-42.5 32t-16 56q0 9 3.5 28t10.5 44.5t16.5 57t21.5 64.5q10 5 22 7t23 1z
M712 1224h-463l10 94h463z" />
    <glyph glyph-name="uniFB4E" unicode="&#xfb4e;" horiz-adv-x="1065" 
d="M453 409q-91 17 -148 36t-89.5 42t-44 50.5t-11.5 62.5q0 25 10 56.5t26.5 66t39 72.5t47.5 77q-36 14 -54.5 33.5t-18.5 51.5q0 14 6 38t15.5 51.5t22 56t25.5 50.5q8 5 21.5 5.5t24.5 -1.5q8 -23 18.5 -39t31 -27.5t54 -20.5t86.5 -18q63 -11 138.5 -21.5t165.5 -21.5
q43 -5 73 -40.5t49 -98.5t28 -152t9 -201q0 -37 -2.5 -81.5t-8 -92.5t-12.5 -96t-16.5 -92t-20.5 -81.5t-24 -63.5q-4 -10 -16 -10h-573q-38 0 -67 -0.5t-53.5 -3.5t-46.5 -9.5t-45 -17.5q-11 2 -22 7t-16 13q14 34 33 74.5t45 85.5q17 28 50.5 46t101.5 18h447
q40 0 65 23.5t39 62.5t19 89.5t5 105.5q0 139 -36 215t-105 87q-59 9 -118.5 18t-108.5 16t-82.5 11.5t-40.5 4.5q-4 -4 -11.5 -15.5t-15 -27t-13 -33.5t-5.5 -34q0 -34 12.5 -54t36.5 -32.5t59 -20.5t79 -18zM813 1224h-463l10 94h463z" />
    <glyph glyph-name="uniFB4F" unicode="&#xfb4f;" horiz-adv-x="1019" 
d="M666 562q32 34 54.5 60.5t37 46.5t21 36t6.5 31q0 23 -15.5 43.5t-52.5 52.5q-30 26 -49 44t-29.5 32.5t-14 26.5t-3.5 26q0 24 29.5 67.5t101.5 109.5q8 2 21 -2t23 -9q-1 -10 -1.5 -17t-0.5 -13q0 -11 3 -20t12 -19.5t25 -25.5t42 -38q58 -52 81 -82.5t23 -55.5
q0 -19 -8.5 -47t-35.5 -69.5t-76.5 -99.5t-131.5 -137q43 -39 73.5 -67.5t52.5 -49.5t37.5 -36t28.5 -27q39 -36 60 -65t21 -52q0 -18 -8 -37q-20 -46 -38 -90t-37 -93q-25 -2 -44 3q-15 40 -35.5 74t-44 64t-49.5 57t-52 53q-66 65 -133 128t-130.5 122t-122.5 112.5
t-109 99.5q-45 42 -73.5 74t-44.5 64t-21.5 68t-5.5 87q0 53 1.5 91.5t5 68t10.5 52.5t17.5 44t26 43t35.5 50q5 7 5.5 10t0.5 5q0 10 -11 19.5t-33 26.5q-38 30 -63 56t-25 53q0 15 11 35t28.5 42.5t40 46.5t45.5 47q9 0 21 -4t20 -9q-4 -19 -3 -31.5t8.5 -24t23 -24
t41.5 -32.5q42 -32 59 -51t17 -38q0 -15 -9 -32.5t-23 -35.5t-31.5 -37t-34.5 -37t-27.5 -35t-17 -36.5t-9 -43t-2.5 -54.5q0 -29 4.5 -55t16 -53.5t32.5 -57.5t54 -66q42 -46 89.5 -93t96.5 -93.5t98 -91t94 -85.5z" />
    </font>
</defs>
</svg>
